<?xml version="1.0" encoding="UTF-8"?>
<!DOCTYPE svg PUBLIC "-//W3C//DTD SVG 1.1//EN" "http://www.w3.org/Graphics/SVG/1.1/DTD/svg11.dtd">
<svg version="1.1" xmlns="http://www.w3.org/2000/svg" xmlns:xlink="http://www.w3.org/1999/xlink" x="0" y="0" width="600" height="600" viewBox="0, 0, 600, 600">
  <g id="Layer_1">
    <path d="M331.391,28.95 C329.296,32.283 329.867,37.617 333.105,44.093 C336.248,50.474 340.629,53.807 351.772,58.283 C366.248,64.093 372.724,71.141 371.201,79.236 C369.772,86.664 355.486,95.998 327.105,108.093 C314.534,113.331 298.725,117.617 297.105,116.093 C295.963,114.95 302.439,109.902 307.582,107.998 C330.248,99.521 340.82,77.712 325.963,70.093 C313.677,63.712 298.915,78.474 295.963,99.998 C294.439,111.712 292.629,113.807 279.963,118.188 C272.153,120.95 241.391,126.283 240.248,125.141 C238.915,123.902 241.582,121.141 250.82,114.093 C261.201,106.093 264.915,101.617 265.677,95.712 C267.582,81.807 250.82,77.617 239.772,89.236 C236.153,93.045 232.534,101.521 229.487,113.331 C225.296,129.998 223.582,132.664 214.534,136.569 C211.772,137.712 206.915,140.474 203.772,142.664 C200.629,144.76 197.772,146.569 197.487,146.569 C196.534,146.569 196.915,138.283 198.439,127.236 C200.629,110.474 198.82,103.045 190.82,96.188 C185.487,91.617 181.201,90.283 174.153,90.76 C167.487,91.236 161.201,94.188 154.058,99.998 C115.296,131.712 107.201,139.236 103.201,147.426 C96.915,160.379 100.439,175.521 109.868,175.807 C116.915,175.998 122.629,167.617 123.677,155.712 C123.963,151.712 124.629,148.283 125.01,147.998 C126.153,147.331 127.296,165.998 126.534,173.998 C125.582,184.95 124.439,187.712 116.344,199.807 C107.106,213.617 104.344,218.759 102.344,226.759 C99.582,237.426 102.058,244.569 108.629,244.569 C116.915,244.569 125.963,228.093 125.963,212.95 C125.963,209.045 127.391,208.569 129.106,211.712 C131.296,215.998 129.487,227.998 124.344,243.045 C119.963,256.188 119.582,257.807 119.582,267.521 C119.487,275.997 119.868,278.855 121.391,281.902 C124.915,289.045 133.391,290.188 137.296,284.093 C142.058,276.95 142.249,261.331 138.058,236.569 C133.296,208.569 131.677,188.188 132.249,164.569 C132.82,142.188 134.249,134.283 139.772,124.188 C142.534,119.141 153.201,108.76 153.772,110.569 C154.344,112.093 151.201,120.95 146.153,131.998 C139.01,147.807 139.391,158.76 147.106,163.521 C151.106,165.998 154.058,166.093 157.963,164.093 C165.106,160.379 168.058,144.855 164.344,130.379 C161.963,120.95 161.963,111.141 164.248,106.855 C166.344,102.95 172.534,99.521 177.391,99.521 C181.868,99.521 186.534,103.521 187.963,108.379 C189.391,113.712 189.201,126.188 187.391,135.426 C184.534,150.664 181.391,158.188 172.725,171.045 C163.582,184.569 160.534,190.76 157.868,200.95 C153.296,218.569 151.963,259.14 151.963,384.378 L151.963,485.521 L158.915,485.521 L165.868,485.521 L166.153,382.283 L166.439,279.045 L168.82,272.569 C172.058,263.521 187.487,231.807 194.439,219.998 C202.725,205.902 211.201,193.617 216.534,188.283 C229.01,175.617 248.058,177.14 256.629,191.521 C263.391,202.759 261.963,211.14 251.582,219.807 C240.725,229.045 231.963,238.378 229.963,242.759 C224.915,253.902 230.534,268.569 239.867,268.569 C243.106,268.569 244.534,267.902 247.391,264.855 C251.963,260.283 257.486,249.236 259.01,241.902 C259.963,237.236 260.344,236.569 261.201,237.998 C262.725,240.855 261.486,254.759 258.534,266.569 C252.534,290.855 251.296,317.617 255.772,326.283 C261.391,337.14 271.296,330.474 274.058,314.188 C275.391,305.997 274.82,297.331 271.486,272.569 C270.153,262.95 268.82,251.426 268.534,247.045 L267.963,239.045 L271.01,248.569 C276.82,266.759 279.296,272.855 282.344,276.95 C288.058,284.474 297.391,286.95 301.867,282.188 C309.772,273.807 295.486,245.712 277.867,235.045 C269.201,229.712 267.486,225.617 267.391,209.521 C267.296,197.14 267.296,197.045 263.582,190.093 L259.867,183.045 L262.248,182.76 C263.486,182.569 268.153,183.902 272.534,185.712 C282.82,189.902 292.629,190.188 300.725,186.664 C317.772,179.14 310.248,166.664 288.629,166.569 C279.391,166.569 268.534,168.76 258.629,172.664 C254.629,174.283 252.248,174.664 247.963,174.188 C229.677,172.093 227.582,172.188 221.201,175.045 C217.963,176.474 213.391,179.617 211.201,181.902 C205.772,187.521 180.153,228.759 171.201,246.378 C166.153,256.188 163.772,260.093 163.296,258.95 C161.963,255.426 163.868,215.331 165.868,206.474 C171.391,181.902 192.725,155.807 218.248,142.474 C222.534,140.283 228.534,137.617 231.677,136.474 C238.629,134.093 268.725,127.521 272.725,127.521 C277.296,127.521 281.963,131.426 285.867,138.569 C293.105,151.807 304.058,159.807 315.391,159.998 C331.296,160.188 335.677,151.236 325.391,139.712 C317.677,131.141 315.296,130.188 301.01,129.521 C287.01,129.045 284.915,127.807 292.248,124.569 C299.486,121.331 321.867,116.283 326.439,116.855 C328.915,117.141 335.01,119.807 342.439,123.902 C361.867,134.76 374.439,137.426 380.915,131.998 C389.582,124.664 379.582,114.664 357.772,108.569 C353.867,107.521 350.439,106.379 350.248,106.188 C349.772,105.712 360.534,99.331 368.724,95.141 C371.677,93.712 379.01,91.426 385.01,90.093 C401.391,86.379 409.677,81.331 413.391,72.379 C415.772,66.569 415.391,62.855 412.058,59.522 C409.677,57.141 408.248,56.569 404.724,56.569 C399.582,56.569 396.82,58.76 387.486,70.569 C377.677,82.855 376.058,82.093 375.01,65.141 C374.534,58.188 373.486,51.807 372.344,48.569 C367.963,36.379 355.01,27.331 340.82,26.76 C333.486,26.379 333.105,26.474 331.391,28.95 z" fill="#000000"/>
    <path d="M442.439,52.569 C439.486,53.807 435.296,58.569 433.582,62.664 C432.534,65.141 432.058,70.188 431.867,78.76 C431.677,95.712 430.82,99.426 424.534,110.474 C418.629,120.95 417.01,125.236 416.058,132.95 L415.391,138.093 L412.915,133.521 C410.724,129.521 410.439,127.902 410.343,116.283 C410.248,103.712 410.248,103.331 407.582,100.76 C405.296,98.474 404.058,98.093 398.82,98.093 C393.391,98.093 392.534,98.379 390.248,101.045 C387.867,103.807 387.772,104.474 388.248,112.569 C389.105,127.712 394.439,137.141 405.201,142.474 C408.534,144.188 412.058,145.521 413.01,145.521 C413.963,145.521 415.296,146.188 415.867,146.95 C417.486,148.855 422.534,169.331 421.677,170.188 C421.296,170.569 417.296,169.426 412.724,167.712 C408.248,165.902 400.724,163.521 395.963,162.474 C385.582,159.998 381.582,157.712 371.391,148.569 C367.105,144.664 361.867,140.569 359.772,139.521 C348.915,133.902 335.105,141.236 339.01,150.569 C339.677,152.283 341.867,154.855 343.867,156.188 C348.629,159.331 361.296,162.474 372.248,163.236 L381.105,163.902 L373.296,167.521 C368.724,169.712 363.105,173.426 359.772,176.474 L353.963,181.712 L342.724,182.76 C322.344,184.474 313.201,187.902 309.105,195.426 C304.82,203.14 308.058,209.521 316.248,209.521 C322.439,209.521 330.534,204.95 339.486,196.379 C343.963,192.093 347.963,188.569 348.344,188.569 C350.344,188.569 348.248,192.379 342.629,198.76 C328.344,215.236 319.105,229.617 317.01,238.759 C315.01,247.712 319.582,257.521 325.867,257.521 C330.82,257.521 336.534,248.95 339.201,237.331 C339.772,234.664 340.629,232.569 341.01,232.569 C342.058,232.569 342.915,239.998 343.01,249.521 C343.105,257.331 342.724,259.14 338.439,270.569 C334.915,280.093 333.772,284.474 333.677,289.045 C333.582,299.045 337.772,304.569 345.486,304.569 C349.772,304.569 352.344,302.664 355.01,297.617 C356.82,294.093 356.534,282.855 354.534,278.093 C349.867,267.045 348.724,259.045 348.248,232.188 C347.677,204.569 348.439,200.855 351.486,215.331 C354.344,228.664 355.01,230.759 357.486,233.14 C360.82,236.474 366.724,236.474 369.963,233.14 C375.01,227.712 372.153,218.855 360.82,204.76 C357.01,199.998 353.963,195.521 353.963,194.664 C353.963,192.474 357.01,187.617 360.915,183.807 C369.01,175.712 381.201,169.617 389.486,169.617 C393.867,169.617 407.391,172.664 408.724,173.998 C408.915,174.188 403.867,177.14 397.296,180.379 C390.82,183.712 383.582,187.712 381.391,189.426 C376.439,192.95 373.391,198.95 372.439,206.855 C371.201,216.855 375.296,219.807 384.534,215.712 C389.867,213.236 393.391,208.855 400.439,195.521 C406.915,183.236 409.963,180.283 415.963,180.379 C423.867,180.474 430.82,186.188 443.772,203.331 C452.915,215.331 460.248,230.95 465.296,248.569 C467.296,255.807 467.391,258.283 467.772,332.569 C468.343,461.807 465.01,500.283 451.772,513.521 C446.058,519.235 440.629,522.188 431.391,524.664 C424.248,526.664 420.248,526.854 389.772,527.331 L355.963,527.807 L353.01,533.045 C351.296,535.902 349.963,538.664 349.963,539.045 C349.963,539.426 369.201,539.521 392.724,539.331 L435.486,539.045 L442.058,536.473 C451.105,533.045 457.391,529.14 462.058,524.283 C469.867,516.283 475.486,500.473 477.962,479.521 C480.343,459.426 481.962,276.569 479.867,259.045 C477.01,234.379 470.248,220.093 444.629,184.093 C430.439,164.188 425.296,154.569 423.677,145.045 C420.724,128.093 431.01,105.045 443.01,101.426 C448.534,99.807 454.629,102.95 460.343,110.664 C467.677,120.474 468.153,127.807 462.439,144.569 C459.01,154.664 458.343,162.093 460.343,168.855 C464.248,182.283 476.534,183.236 479.962,170.474 C482.153,162.283 478.439,140.76 471.677,123.331 C470.248,119.617 469.486,116.569 469.962,116.569 C470.439,116.569 472.82,118.855 475.201,121.712 C487.391,136.283 490.058,138.188 496.534,136.95 L499.962,136.379 L499.962,129.426 C499.962,122.76 499.867,122.474 496.058,118.664 C492.153,114.76 490.82,114.188 473.867,109.141 C467.486,107.236 463.486,105.331 458.439,101.522 C454.724,98.76 450.439,96.283 449.01,95.902 C447.582,95.617 446.153,95.141 445.772,94.95 C445.391,94.664 447.105,91.236 449.582,87.331 C457.01,75.236 459.772,62.95 456.534,56.664 C454.343,52.474 447.486,50.474 442.439,52.569 z" fill="#000000"/>
    <path d="M410.153,241.426 C407.296,242.474 403.201,244.664 401.201,246.283 C397.296,249.331 391.01,257.045 391.01,258.664 C391.01,259.14 392.344,260.188 394.058,261.14 C399.01,263.712 405.105,269.807 407.105,274.093 C409.582,279.521 409.486,291.617 406.915,304.093 C405.867,309.521 405.105,313.997 405.201,314.093 C405.486,314.378 416.058,316.569 418.724,316.855 C419.486,317.045 421.486,312.569 423.772,305.997 C430.915,285.14 436.82,279.045 451.677,277.045 L457.01,276.378 L457.01,269.712 C457.01,261.617 455.867,257.426 452.343,252.378 C445.201,242.188 424.058,236.664 410.153,241.426 z" fill="#000000"/>
    <path d="M389.201,265.807 C386.629,268.95 381.963,296.093 381.963,307.902 L381.963,315.712 L390.248,315.045 C394.724,314.569 398.82,313.807 399.201,313.236 C399.582,312.569 400.629,307.902 401.582,302.759 C404.629,285.521 402.439,273.521 394.915,267.236 C391.391,264.188 390.629,264.093 389.201,265.807 z" fill="#000000"/>
    <path d="M445.962,284.188 C438.343,287.426 433.582,294.664 428.343,310.95 C426.153,317.616 425.772,319.997 426.724,320.283 C427.391,320.569 430.534,322.664 433.677,324.95 C436.915,327.236 439.962,329.521 440.629,329.902 C441.486,330.378 442.534,328.378 443.962,323.331 C445.201,319.331 448.343,309.14 451.105,300.759 C453.867,292.283 455.962,285.236 455.772,285.14 C454.915,284.378 451.01,282.569 450.248,282.569 C449.867,282.664 447.867,283.331 445.962,284.188 z" fill="#000000"/>
    <path d="M381.963,321.521 C365.105,326.664 355.296,344.474 349.486,380.664 C348.915,384.093 349.105,384.378 352.058,384.95 C353.772,385.331 357.677,385.521 360.724,385.521 C374.343,385.521 399.296,392.474 416.248,401.045 L429.105,407.521 L431.105,402.759 C440.439,381.331 445.105,355.521 441.772,344.378 C437.772,330.855 416.724,320.474 394.058,320.664 C388.82,320.664 383.296,321.045 381.963,321.521 z M392.439,326.569 C398.248,332.95 384.058,347.902 376.058,343.616 C371.296,341.045 374.82,331.521 382.248,327.045 C387.296,324.093 390.058,323.902 392.439,326.569 z M431.962,337.616 C434.82,340.474 435.962,343.902 435.962,349.616 C435.962,353.331 435.391,355.14 433.486,357.236 C431.201,359.902 430.915,359.997 428.343,358.569 C424.439,356.378 421.582,351.14 421.486,345.616 C421.391,337.045 427.105,332.664 431.962,337.616 z" fill="#000000"/>
    <path d="M384.439,329.045 C381.677,331.807 381.391,332.855 383.201,334.378 C386.248,336.759 392.439,331.045 389.867,327.997 C388.248,325.997 387.201,326.188 384.439,329.045 z" fill="#000000"/>
    <path d="M425.582,338.188 C424.343,339.521 424.915,345.331 426.439,346.569 C428.629,348.378 431.01,347.045 431.01,343.997 C431.01,339.331 427.867,335.997 425.582,338.188 z" fill="#000000"/>
    <path d="M289.963,371.236 C285.867,372.855 285.867,373.807 290.344,378.474 C295.486,384.093 297.391,387.235 295.963,388.093 C294.439,389.045 291.867,387.14 286.153,381.14 C283.201,378.093 280.248,375.521 279.486,375.521 C277.582,375.521 271.01,381.426 271.01,383.045 C271.01,383.807 274.534,387.616 279.01,391.616 C285.391,397.331 286.725,399.14 285.867,400.188 C283.963,402.474 282.439,401.807 274.439,395.14 C265.677,387.807 264.439,387.807 261.01,394.378 L259.106,398.188 L268.82,403.14 C277.963,407.902 280.82,410.664 277.582,411.902 C276.82,412.188 272.82,410.854 268.629,408.855 C258.534,404.093 255.677,405.235 259.963,412.283 C263.106,417.426 268.439,419.521 278.248,419.521 C287.867,419.521 288.344,419.235 293.867,409.331 C295.677,406.188 299.582,400.188 302.534,395.997 C305.486,391.902 307.963,387.616 307.963,386.664 C307.963,383.712 300.344,373.997 296.629,372.188 C293.01,370.474 292.344,370.378 289.963,371.236 z" fill="#000000"/>
    <path d="M312.82,393.712 C309.201,396.664 293.963,418.854 293.963,421.14 C293.963,421.807 294.629,422.664 295.582,422.95 C296.629,423.331 300.058,420.854 306.058,415.331 C310.915,410.759 319.01,404.283 323.963,400.95 C334.153,393.997 334.153,393.807 321.963,392.95 C316.534,392.569 314.058,392.759 312.82,393.712 z" fill="#000000"/>
    <path d="M347.867,393.902 C345.391,394.569 341.201,396.378 338.629,397.902 C326.153,405.235 302.629,425.616 304.439,427.521 C305.01,427.997 311.963,432.188 319.963,436.854 C327.963,441.426 337.105,446.95 340.248,448.95 L346.153,452.759 L349.486,448.854 C353.963,443.902 374.724,412.95 379.391,404.474 L383.01,397.902 L375.201,395.521 C366.058,392.759 354.248,392.093 347.867,393.902 z" fill="#000000"/>
    <path d="M389.677,404.759 C388.344,406.569 385.105,411.807 382.439,416.474 L377.677,424.759 L382.724,429.426 C388.058,434.378 396.153,444.378 402.439,453.807 C404.534,456.95 406.629,459.521 407.105,459.521 C409.963,459.521 420.534,434.759 421.677,425.521 C422.343,419.902 420.153,415.426 414.439,411.14 C410.343,407.997 399.963,403.14 395.296,402.093 C392.534,401.521 391.867,401.807 389.677,404.759 z" fill="#000000"/>
    <path d="M428.534,428.854 C425.962,437.521 421.867,447.807 417.963,455.235 C412.82,464.854 412.82,465.521 418.343,465.521 C422.248,465.521 429.582,462.569 432.058,459.902 C434.248,457.616 434.439,456.569 434.439,447.235 C434.439,438.95 434.058,436.188 432.248,432.283 C430.058,427.426 429.201,426.664 428.534,428.854 z" fill="#000000"/>
    <path d="M291.486,437.712 C283.963,446.759 283.963,445.997 292.629,450.093 C300.534,453.712 324.439,467.997 325.486,469.616 C326.915,471.902 330.153,470.188 335.391,464.474 C338.534,461.14 340.915,457.807 340.724,457.235 C339.867,454.759 304.725,433.902 298.439,432.283 C296.915,431.807 295.296,433.045 291.486,437.712 z" fill="#000000"/>
    <path d="M369.201,438.474 C366.82,441.807 365.01,444.759 365.01,445.235 C365.01,445.616 366.724,447.997 368.82,450.474 C373.582,456.188 383.963,471.616 386.82,477.331 C388.058,479.616 389.391,481.521 389.772,481.521 C390.153,481.521 393.201,478.854 396.439,475.616 L402.248,469.712 L395.963,459.902 C392.439,454.474 388.248,448.283 386.629,446.093 C383.201,441.426 374.82,432.569 373.963,432.569 C373.582,432.569 371.486,435.235 369.201,438.474 z" fill="#000000"/>
    <path d="M254.439,453.521 C249.01,455.045 243.201,456.569 241.582,456.95 C238.82,457.616 238.725,457.902 239.391,461.902 C240.248,467.235 246.629,480.569 248.344,480.569 C249.106,480.569 250.915,478.188 252.534,475.331 C254.058,472.473 257.963,466.093 261.106,461.235 C266.248,453.426 267.391,450.378 265.201,450.664 C264.82,450.759 259.963,451.997 254.439,453.521 z" fill="#000000"/>
    <path d="M274.915,455.331 C267.963,463.14 257.201,478.854 253.963,485.807 C251.486,491.14 250.915,493.712 250.82,499.712 C250.725,507.616 253.486,519.616 255.391,519.521 C257.391,519.521 280.248,506.569 293.486,497.902 C306.439,489.331 322.915,476.759 322.915,475.331 C323.01,473.14 284.534,450.569 280.629,450.569 C279.867,450.569 277.201,452.664 274.915,455.331 z" fill="#000000"/>
    <path d="M354.724,457.331 C352.344,459.997 349.486,463.331 348.534,464.759 C346.82,467.426 346.82,467.426 353.01,475.712 C356.344,480.283 360.629,486.95 362.439,490.569 C364.344,494.092 366.439,497.902 367.296,499.045 C368.629,500.854 368.915,500.854 371.105,499.426 C375.677,496.378 383.963,488.378 383.963,486.95 C383.963,484.283 361.867,452.569 360.058,452.569 C359.582,452.569 357.201,454.759 354.724,457.331 z" fill="#000000"/>
    <path d="M216.153,459.616 C212.058,460.664 206.915,462.569 204.629,463.807 C201.106,465.712 200.439,466.664 200.153,469.616 C199.963,471.521 200.439,473.902 201.201,474.95 C202.534,476.664 202.82,476.664 208.534,473.807 C211.772,472.093 218.534,469.521 223.487,468.093 C233.963,464.95 235.296,463.902 234.439,460.188 C233.772,457.807 233.391,457.616 228.629,457.616 C225.772,457.616 220.153,458.569 216.153,459.616 z" fill="#000000"/>
    <path d="M432.915,467.712 C429.01,469.807 424.915,470.854 418.439,471.616 C412.058,472.378 409.105,473.14 408.153,474.378 C404.058,479.902 397.01,491.616 397.01,492.95 C397.01,494.759 400.724,497.521 403.105,497.521 C405.772,497.521 409.582,492.188 411.963,485.14 C413.963,479.045 415.867,477.045 417.391,479.521 C417.772,479.997 416.82,483.426 415.486,487.14 C412.248,495.616 412.153,499.14 415.201,499.902 C417.963,500.664 421.772,498.283 422.439,495.331 C422.82,494.092 423.582,489.712 424.248,485.521 C425.105,480.093 425.867,478.093 427.01,478.093 C428.153,478.093 428.534,479.902 428.724,487.807 C429.105,498.569 429.582,499.235 434.439,495.426 C437.201,493.235 437.201,493.14 436.629,484.378 C436.153,475.902 436.82,473.521 438.82,477.331 C439.296,478.283 440.058,480.95 440.439,483.235 C440.82,485.521 441.772,487.997 442.629,488.664 C446.248,491.712 449.296,482.093 447.01,475.14 C445.772,471.521 440.439,464.378 439.105,464.759 C438.724,464.759 435.962,466.188 432.915,467.712 z" fill="#000000"/>
    <path d="M221.963,471.616 C213.01,474.378 207.963,476.95 207.201,479.235 C206.82,480.569 213.01,483.521 216.344,483.521 C219.296,483.521 235.772,477.045 237.867,475.045 C239.106,473.902 239.01,473.331 237.582,471.14 C235.487,467.902 233.867,467.997 221.963,471.616 z" fill="#000000"/>
    <path d="M332.629,477.616 C317.677,490.759 302.058,502.092 289.296,509.14 C269.867,519.807 259.01,526.759 259.01,528.473 C259.01,529.426 260.344,532.283 261.963,534.95 C266.248,541.711 271.772,543.997 281.867,543.331 C291.105,542.664 295.867,541.045 311.486,533.616 C331.486,524.092 361.963,505.521 361.963,502.854 C361.963,498.95 342.724,471.521 340.058,471.616 C339.677,471.616 336.344,474.283 332.629,477.616 z" fill="#000000"/>
    <path d="M231.201,481.807 C226.629,483.521 223.01,485.14 223.01,485.616 C223.01,486.95 229.01,488.569 233.391,488.473 C243.391,488.188 246.058,485.902 241.772,481.331 L239.486,478.759 L231.201,481.807 z" fill="#000000"/>
    <path d="M144.439,494.569 C129.963,495.521 123.963,497.997 123.963,503.14 C123.963,504.854 124.725,505.521 126.725,505.997 C131.296,506.854 241.963,507.712 241.963,506.759 C241.963,506.378 241.01,503.14 239.867,499.807 L237.772,493.521 L196.629,493.712 C173.963,493.807 150.534,494.188 144.439,494.569 z" fill="#000000"/>
    <path d="M123.201,512.664 C117.582,514.283 117.582,521.521 123.106,526.759 L126.153,529.521 L188.534,529.521 C222.915,529.521 251.01,529.426 251.01,529.235 C251.01,529.045 249.106,524.95 246.915,520.188 L242.82,511.521 L184.629,511.616 C151.868,511.712 125.01,512.188 123.201,512.664 z" fill="#000000"/>
    <path d="M342.439,523.712 C338.629,526.378 330.629,531.14 324.724,534.188 C318.82,537.14 313.963,539.997 313.963,540.378 C313.963,541.331 323.296,546.95 328.248,549.045 L332.058,550.664 L335.105,547.426 C339.296,542.95 351.01,522.473 351.01,519.616 C351.01,517.902 349.867,518.473 342.439,523.712 z" fill="#000000"/>
    <path d="M132.629,535.235 C127.487,536.569 134.725,542.188 145.487,545.14 C153.772,547.426 254.439,548.569 257.201,546.378 C258.82,545.14 258.725,544.759 255.963,539.807 L252.915,534.569 L193.677,534.664 C161.106,534.759 133.677,535.045 132.629,535.235 z" fill="#000000"/>
    <path d="M301.01,545.045 C297.963,546.283 292.153,548.569 288.153,549.997 C284.153,551.521 280.534,553.426 280.248,554.283 C279.582,555.997 283.677,560.569 285.867,560.569 C288.153,560.569 311.201,548.283 311.677,546.854 C311.867,546.188 310.82,545.045 309.296,544.283 C306.725,543.045 305.867,543.045 301.01,545.045 z" fill="#000000"/>
    <path d="M313.105,550.854 C312.534,551.616 307.486,554.569 301.963,557.426 C296.439,560.378 291.963,563.235 291.963,563.902 C291.963,566.283 294.344,567.521 298.439,567.521 C303.296,567.521 312.248,562.664 318.344,556.569 L322.248,552.759 L319.105,551.14 C315.391,549.235 314.534,549.14 313.105,550.854 z" fill="#000000"/>
    <path d="M319.772,560.854 C316.058,563.711 311.582,566.95 309.772,568.092 C305.01,571.045 305.486,573.045 311.01,573.331 C314.439,573.616 316.344,573.14 318.915,571.331 C324.534,567.616 331.01,555.235 327.201,555.616 C326.82,555.711 323.486,558.092 319.772,560.854 z" fill="#000000"/>
  </g>
</svg>
