<?xml version="1.0" encoding="UTF-8"?>
<!DOCTYPE svg PUBLIC "-//W3C//DTD SVG 1.1//EN" "http://www.w3.org/Graphics/SVG/1.1/DTD/svg11.dtd">
<svg version="1.1" xmlns="http://www.w3.org/2000/svg" xmlns:xlink="http://www.w3.org/1999/xlink" x="0" y="0" width="400" height="400" viewBox="0, 0, 400, 400">
  <g id="Layer_1">
    <g>
      <path d="M90.687,86.024 C90.687,89.453 90.687,89.453 95.163,89.453 L99.735,89.453 L99.735,122.405 L99.735,155.357 L95.449,155.738 C91.354,156.024 91.163,156.119 91.163,159.357 L91.163,162.786 L110.592,162.595 C132.877,162.31 137.639,161.167 144.592,154.5 C155.639,143.834 150.877,124.596 136.306,120.976 C133.83,120.31 132.592,118.5 134.687,118.5 C136.496,118.5 142.973,112.024 144.306,108.786 C147.258,101.834 145.449,93.357 140.02,88.31 C135.354,83.929 127.639,82.5 108.02,82.5 L90.687,82.5 L90.687,86.024 z M127.258,91.453 C132.877,93.929 134.687,96.786 134.687,102.976 C134.592,111.453 128.496,116.31 116.973,117.262 L110.687,117.738 L110.687,103.643 L110.687,89.453 L116.973,89.548 C120.877,89.548 124.687,90.215 127.258,91.453 z M125.639,125.548 C139.354,128.5 144.211,142.5 134.496,151.072 C130.973,154.215 125.735,155.929 119.735,155.929 C110.306,155.929 110.687,156.691 110.687,139.548 L110.687,124.5 L115.639,124.5 C118.401,124.5 122.877,124.976 125.639,125.548 z" fill="#000000"/>
      <path d="M164.687,85.929 C164.687,89.262 164.782,89.357 168.973,89.738 L173.163,90.024 L173.449,119.453 C173.639,135.738 173.544,150.405 173.163,152.215 C172.687,155.072 172.211,155.453 168.877,155.738 C165.449,156.024 165.163,156.215 165.163,159.357 L165.163,162.786 L179.735,162.691 L194.211,162.595 L194.496,159.072 L194.782,155.453 L189.735,155.453 L184.687,155.453 L184.687,140.024 L184.687,124.5 L203.735,124.5 L222.687,124.5 L222.687,140.024 L222.687,155.453 L217.734,155.453 L212.687,155.453 L212.687,158.976 L212.687,162.5 L226.687,162.5 C234.401,162.5 241.068,162.5 241.449,162.5 C241.83,162.5 242.211,161.072 242.211,159.262 C242.211,156.119 242.02,156.024 237.925,155.738 L233.734,155.357 L233.734,122.405 L233.734,89.453 L237.734,89.453 C241.639,89.453 241.734,89.453 241.734,86.024 L241.734,82.5 L227.163,82.5 L212.687,82.5 L212.687,86.024 L212.687,89.453 L217.734,89.453 L222.687,89.453 L222.687,103.453 L222.687,117.453 L203.735,117.453 L184.687,117.453 L184.687,103.453 L184.687,89.453 L189.735,89.453 L194.687,89.453 L194.687,86.024 L194.687,82.5 L179.735,82.5 L164.687,82.5 L164.687,85.929 z" fill="#000000"/>
      <path d="M258.687,86.024 C258.687,89.262 258.877,89.548 261.925,89.548 C267.925,89.548 267.734,88.31 267.449,123.072 L267.163,154.976 L263.258,155.453 C260.02,155.929 259.163,156.5 258.592,158.786 C258.211,160.215 258.211,161.738 258.687,162.024 C259.163,162.31 271.163,162.595 285.353,162.595 L311.163,162.691 L313.544,152.595 C314.973,146.596 315.639,142.024 315.068,141.548 C314.592,141.072 312.877,140.5 311.163,140.31 C308.306,140.024 308.115,140.31 306.02,146.5 C304.877,150.119 303.353,153.548 302.782,154.215 C301.925,155.072 298.02,155.453 290.115,155.453 L278.687,155.453 L278.877,122.786 L279.163,90.024 L284.211,89.453 C288.973,88.977 289.163,88.881 289.544,85.738 L289.83,82.5 L274.211,82.5 L258.687,82.5 L258.687,86.024 z" fill="#000000"/>
      <path d="M90.401,200.119 C87.068,203.453 93.544,234.31 100.306,247.738 C101.639,250.31 102.687,252.595 102.687,252.786 C102.687,253.072 97.639,253.453 91.449,253.738 C74.401,254.691 61.354,258.024 44.401,265.929 C38.02,268.976 37.354,270.119 41.449,271.072 C42.973,271.453 52.306,273.833 62.211,276.5 C72.116,279.167 82.211,281.833 84.592,282.5 L88.973,283.643 L80.401,286.595 C71.544,289.548 59.354,295.262 54.401,298.691 C52.973,299.738 51.258,300.31 50.687,300.024 C50.116,299.643 49.735,299.738 49.925,300.214 C50.02,300.786 47.449,303.452 44.211,306.214 C40.878,308.976 36.878,312.691 35.258,314.405 L32.306,317.452 L200.02,317.452 C300.115,317.452 367.734,317.167 367.734,316.595 C367.734,315.262 354.02,303.452 347.544,299.262 C339.544,294.119 328.877,288.881 320.496,286.119 C313.449,283.738 313.353,283.548 316.02,282.595 C317.544,282.024 319.258,281.453 319.734,281.453 C320.211,281.453 329.639,279.072 340.591,276.024 C351.639,272.976 360.877,270.5 361.163,270.5 C361.449,270.5 361.734,270.119 361.734,269.548 C361.734,269.072 358.877,267.262 355.449,265.643 C339.544,258.119 326.211,254.595 310.02,253.833 L297.83,253.167 L301.353,245.643 C306.115,235.167 309.639,220.881 310.401,209.167 L310.972,199.357 L304.115,200.024 C288.211,201.453 278.306,203.834 266.211,209.262 C243.354,219.357 222.592,238.976 211.354,261.072 C207.83,268.119 203.163,282.5 201.639,291.452 L200.306,298.976 L199.544,293.452 C198.401,285.262 194.02,270.881 190.211,262.976 C184.877,252.119 178.211,242.786 168.877,233.167 C149.068,213.072 126.401,202.595 97.639,200.024 C94.02,199.738 90.782,199.738 90.401,200.119 z" fill="#000000"/>
    </g>
  </g>
</svg>
