<?xml version="1.0" standalone="no"?>
<!DOCTYPE svg PUBLIC "-//W3C//DTD SVG 20010904//EN"
 "http://www.w3.org/TR/2001/REC-SVG-20010904/DTD/svg10.dtd">
<svg version="1.0" xmlns="http://www.w3.org/2000/svg"
 width="190.692374pt" height="190.789139pt" viewBox="0 0 190.692374 190.789139"
 preserveAspectRatio="xMidYMid meet">
<metadata>
Created by Potrace Professional 1.1m
</metadata>
<g transform="translate(-5.220737,196.510101) rotate(-360.00) scale(0.095238,-0.095238)"
fill="#000000" stroke="none">
<path d="M934 2058 c-104 -13 -193 -40 -302 -90 -123 -57 -208 -118 -297 -211
-179 -187 -266 -390 -279 -649 -19 -389 182 -745 524 -929 281 -152 630 -159
916 -17 611 301 752 1105 280 1595 -176 183 -418 293 -673 305 -55 3 -131 1
-169 -4z m736 -345 c0 -5 -88 -82 -195 -171 l-195 -161 163 -5 163 -6 -208
-118 c-115 -66 -217 -125 -226 -132 -14 -10 15 -12 140 -9 94 2 158 -1 158 -7
0 -17 -120 -120 -182 -158 -91 -54 -228 -97 -330 -104 l-88 -5 -135 -269 -135
-269 -1 84 c-1 236 39 541 95 715 57 178 123 287 235 391 151 138 368 211 672
226 35 2 64 4 66 5 1 1 3 -2 3 -7z"/>
</g>
</svg>
