<?xml version="1.0" encoding="UTF-8"?>
<!DOCTYPE svg PUBLIC "-//W3C//DTD SVG 1.1//EN" "http://www.w3.org/Graphics/SVG/1.1/DTD/svg11.dtd">
<svg version="1.1" xmlns="http://www.w3.org/2000/svg" xmlns:xlink="http://www.w3.org/1999/xlink" x="0" y="0" width="200" height="200" viewBox="0, 0, 200, 200">
  <g id="Layer_1">
    <path d="M88.93,1.667 C73.025,3.572 56.454,9.762 43.692,18.619 C-14.403,58.715 -13.737,143.286 44.93,182.524 C84.263,208.81 137.12,203.476 170.739,169.667 C208.93,131.191 209.025,69.286 170.93,30.905 C154.358,14.143 133.882,4.429 109.787,1.667 C100.549,0.619 98.454,0.619 88.93,1.667 z M76.93,48.143 C76.263,49 73.12,51.286 69.978,53.191 C61.692,58.238 57.978,62.715 57.978,67.762 C57.978,72.524 59.12,75 63.311,79.381 C66.359,82.619 66.454,82.619 75.406,82.619 C80.359,82.619 89.025,82.238 94.644,81.762 C103.692,81 105.501,80.524 112.835,76.619 C117.406,74.334 121.978,71.191 123.025,69.762 C124.168,68.334 127.12,64.334 129.692,60.81 C135.882,52.238 137.882,51 143.12,52.619 C145.406,53.286 148.835,55.477 150.93,57.477 C152.93,59.477 156.073,61.953 157.787,62.81 C160.739,64.429 160.835,64.715 159.787,67.667 C158.358,71.953 153.12,76.905 148.93,78.143 C144.263,79.477 142.073,84.143 142.073,92.81 C141.977,99.286 141.787,99.667 136.358,107.286 L130.644,115.191 L129.692,127.477 L128.644,139.667 L131.978,143.096 C134.739,146.048 135.12,146.81 133.978,148.143 C132.358,150.143 130.168,150.048 126.358,147.762 C122.549,145.476 122.454,145.096 120.549,131.762 C119.787,126.048 118.549,120.81 117.787,120.048 C116.93,119.191 112.168,118.238 104.93,117.667 C87.692,116.143 79.406,115.096 78.168,114.334 C76.168,113.096 71.787,116.238 61.311,126.334 C49.597,137.667 48.263,140.334 52.359,144.524 C54.739,147.096 54.835,147.381 53.406,149.476 C51.501,152.143 47.882,152.334 45.597,149.762 C44.168,148.238 43.978,146.81 44.549,141.476 C45.406,133.381 47.025,129.572 52.073,123.572 C56.168,118.715 56.168,118.715 56.93,107.381 C57.406,101.191 58.454,94.238 59.406,91.857 C60.93,87.572 60.93,87.477 57.787,81.381 C56.073,77.953 54.263,73.572 53.882,71.667 C51.882,63.191 58.073,54.429 69.501,49.667 C77.501,46.334 78.739,46.048 76.93,48.143 z" fill="#000000"/>
  </g>
</svg>
