<?xml version="1.0" encoding="UTF-8"?>
<!DOCTYPE svg PUBLIC "-//W3C//DTD SVG 1.1//EN" "http://www.w3.org/Graphics/SVG/1.1/DTD/svg11.dtd">
<svg version="1.1" xmlns="http://www.w3.org/2000/svg" xmlns:xlink="http://www.w3.org/1999/xlink" x="0" y="0" width="400" height="400" viewBox="0, 0, 400, 400">
  <g id="Layer_1">
    <g>
      <path d="M143.794,101.462 C121.47,103.824 102.194,120.586 96.937,141.996 C95.108,149.386 95.108,164.167 96.937,171.024 C102.118,190.605 116.213,204.548 135.87,209.5 C141.508,210.948 144.175,211.176 153.394,210.872 C162.613,210.567 165.279,210.186 170.689,208.281 C184.175,203.634 195.603,193.957 201.394,182.072 C206.041,172.7 207.337,166.834 207.26,155.786 C207.184,140.929 203.451,129.957 195.07,119.977 C183.489,106.034 164.746,99.253 143.794,101.462 z M160.251,118.377 C164.594,119.443 171.07,123.786 174.498,127.977 C180.822,135.748 183.87,144.967 183.87,156.243 C183.87,172.319 177.013,185.576 165.356,191.9 C160.403,194.567 159.946,194.643 151.489,194.643 C143.337,194.643 142.346,194.415 138.079,192.281 C130.003,188.167 123.299,179.557 120.556,169.576 C118.727,162.948 118.575,150.072 120.251,143.596 C125.508,123.557 141.051,113.729 160.251,118.377 z" fill="#000000"/>
      <path d="M4.67,156.319 L4.67,209.576 L30.499,209.272 C54.422,208.967 56.632,208.815 60.899,207.215 C78.346,200.738 88.022,184.967 83.603,170.186 C81.013,161.576 72.708,153.653 64.099,151.672 C61.737,151.062 59.908,150.453 59.908,150.148 C59.832,149.919 61.051,149.157 62.575,148.396 C69.508,145.119 74.689,138.11 75.527,130.948 C76.67,121.424 71.794,112.967 62.346,107.938 C54.499,103.748 49.318,103.062 25.699,103.062 L4.67,102.986 L4.67,156.319 z M46.27,119.824 C54.194,124.167 56.022,137.119 49.699,143.215 C46.041,146.719 42.308,147.786 33.927,147.786 L26.308,147.786 L26.308,132.548 L26.308,117.234 L34.461,117.538 C41.318,117.843 43.222,118.224 46.27,119.824 z M51.527,164.548 C56.48,166.757 58.156,168.281 59.984,172.243 C61.965,176.586 61.889,181.919 59.68,186.262 C58.308,189.005 56.861,190.376 53.508,192.205 C49.165,194.567 48.784,194.567 37.889,194.643 L26.689,194.643 L26.461,179.481 C26.308,171.1 26.461,163.786 26.689,163.1 C27.375,161.196 46.422,162.338 51.527,164.548 z" fill="#000000"/>
      <path d="M225.47,156.243 L225.47,209.424 L256.251,209.424 L287.108,209.424 L287.108,201.424 L287.108,193.424 L267.679,193.272 L248.251,193.043 L248.098,148.015 L247.87,102.986 L236.67,102.986 L225.47,102.986 L225.47,156.243 z" fill="#000000"/>
      <path d="M299.908,156.243 L299.908,209.424 L320.098,209.424 C342.422,209.348 348.67,208.662 358.346,204.853 C373.813,198.834 387.146,185.653 391.946,171.71 C394.308,164.776 394.841,151.977 393.165,143.824 C389.66,127.367 377.546,113.881 360.327,107.405 C350.955,103.9 343.184,102.986 320.556,102.986 L299.908,102.986 L299.908,156.243 z M347.298,121.348 C359.413,125.615 366.955,133.919 369.851,146.415 C373.051,159.824 369.622,171.786 359.794,181.615 C355.832,185.576 352.784,187.786 348.136,189.996 C341.965,192.967 341.736,193.043 331.908,193.043 L321.851,193.043 L321.698,157.005 C321.546,137.196 321.622,120.51 321.851,119.9 C322.536,118.148 341.279,119.215 347.298,121.348 z" fill="#000000"/>
      <path d="M19.222,226.872 C10.384,230.072 5.813,235.938 5.889,244.243 C5.965,253.005 10.156,258.034 24.632,266.948 C28.822,269.614 33.089,272.586 34.003,273.576 C39.641,279.824 38.27,286.148 30.651,289.043 C26.308,290.719 19.299,290.262 12.213,287.824 C9.699,286.91 7.489,286.224 7.337,286.224 C6.575,286.224 3.908,293.767 4.442,294.3 C6.118,295.976 15.337,298.414 21.508,298.795 C36.365,299.71 48.708,292.014 50.003,280.967 C50.994,272.281 47.108,267.1 32.251,257.195 C20.594,249.424 19.375,248.357 18.232,244.853 C15.718,237.386 23.718,232.814 34.689,235.329 C37.28,235.938 40.251,236.7 41.241,237.005 C42.841,237.538 43.222,237.157 44.67,233.805 C45.584,231.672 46.041,229.691 45.661,229.386 C44.365,228.091 35.984,226.186 29.889,225.805 C24.861,225.424 22.575,225.653 19.222,226.872 z" fill="#000000"/>
      <path d="M120.175,226.872 C113.013,229.386 109.203,232.967 107.146,238.91 C103.946,248.51 109.127,256.891 123.756,265.957 C132.06,271.062 135.718,273.957 137.089,276.7 C141.127,284.395 133.889,291.1 122.765,289.957 C119.946,289.653 115.603,288.662 113.013,287.824 C110.499,286.91 108.289,286.224 108.137,286.224 C107.984,286.224 107.07,287.9 106.232,290.034 C104.632,293.614 104.632,293.843 106.003,294.833 C109.28,297.195 116.289,298.643 124.67,298.643 C132.594,298.643 133.432,298.491 138.46,295.976 C144.479,293.005 148.746,288.662 150.118,283.938 C153.089,274.034 149.203,267.938 133.051,257.195 C121.394,249.424 120.175,248.357 119.032,244.853 C116.518,237.386 124.518,232.814 135.489,235.329 C138.079,235.938 141.051,236.7 142.041,237.005 C143.641,237.538 144.022,237.157 145.47,233.805 C146.384,231.672 146.841,229.691 146.46,229.386 C145.165,228.091 136.784,226.186 130.689,225.805 C125.66,225.424 123.375,225.729 120.175,226.872 z" fill="#000000"/>
      <path d="M364.898,226.719 C356.746,229.234 351.108,236.319 351.108,244.014 C351.032,252.395 354.765,256.967 369.698,266.719 C379.908,273.424 383.032,276.624 383.032,280.434 C383.108,285.843 377.013,290.262 369.851,290.186 C366.27,290.11 357.584,288.205 354.155,286.681 C353.089,286.224 352.403,286.833 351.108,289.348 C350.194,291.1 349.508,293.081 349.508,293.691 C349.508,295.443 359.413,298.338 367.108,298.795 C372.06,299.1 375.184,298.872 378.308,297.957 C391.032,294.224 398.346,283.405 394.689,273.653 C392.555,268.167 388.594,264.357 377.394,256.967 C364.517,248.51 361.774,245.081 363.527,239.976 C365.355,234.872 375.641,233.119 384.403,236.472 L388.517,237.995 L389.736,234.719 C391.793,229.234 391.87,229.31 386.765,227.71 C379.984,225.576 370.079,225.119 364.898,226.719 z" fill="#000000"/>
      <path d="M48.708,227.329 C48.708,227.557 53.508,235.634 59.451,245.31 L70.27,262.91 L70.27,280.205 L70.27,297.424 L76.67,297.424 L83.07,297.424 L83.07,280.205 L83.07,263.062 L93.737,246.072 C99.603,236.7 104.632,228.548 105.013,228.015 C105.394,227.253 104.251,227.024 100.06,227.024 L94.499,227.024 L86.27,240.662 C81.775,248.205 77.889,254.148 77.66,253.919 C77.432,253.614 73.775,247.595 69.508,240.434 L61.813,227.405 L55.261,227.176 C51.603,227.1 48.708,227.176 48.708,227.329 z" fill="#000000"/>
      <path d="M153.47,231.367 L153.47,235.786 L164.899,236.015 L176.251,236.243 L176.479,266.795 L176.708,297.424 L182.651,297.424 L188.67,297.424 L188.67,266.643 L188.67,235.786 L199.87,235.786 L211.07,235.786 L211.07,231.443 L211.07,227.024 L182.27,227.024 L153.47,227.024 L153.47,231.367 z" fill="#000000"/>
      <path d="M218.308,262.224 L218.308,297.424 L239.87,297.424 L261.508,297.424 L261.508,293.005 L261.508,288.586 L246.27,288.586 L231.108,288.586 L231.108,277.005 L231.108,265.424 L241.47,265.424 L251.908,265.424 L251.908,261.005 L251.908,256.586 L241.47,256.586 L231.108,256.586 L231.108,246.224 L231.108,235.786 L245.508,235.786 L259.908,235.786 L259.908,231.443 L259.908,227.024 L239.108,227.024 L218.308,227.024 L218.308,262.224 z" fill="#000000"/>
      <path d="M270.727,232.815 C270.498,236.015 269.889,250.11 269.432,264.205 C268.975,278.3 268.441,291.557 268.213,293.614 L267.832,297.424 L272.936,297.424 L278.117,297.424 L278.575,282.414 C278.879,274.186 279.336,263.9 279.717,259.634 L280.251,251.786 L289.775,275.024 L299.298,298.262 L303.413,298.034 L307.451,297.805 L316.822,275.405 C321.927,263.138 326.498,252.472 326.955,251.786 C327.489,251.024 327.794,257.195 327.794,271.519 C327.87,283.024 328.098,293.538 328.403,294.91 L328.86,297.424 L334.422,297.424 L340.06,297.424 L339.527,267.634 C339.222,251.253 338.841,235.405 338.536,232.434 L338.079,227.024 L332.822,227.024 L327.489,227.024 L316.289,254.224 C310.117,269.157 304.86,281.424 304.708,281.424 C304.479,281.424 299.375,269.234 293.432,254.376 L282.536,227.405 L276.898,227.176 L271.184,226.948 L270.727,232.815 z" fill="#000000"/>
    </g>
  </g>
</svg>
