<?xml version="1.0" encoding="UTF-8"?>
<!DOCTYPE svg PUBLIC "-//W3C//DTD SVG 1.1//EN" "http://www.w3.org/Graphics/SVG/1.1/DTD/svg11.dtd">
<svg version="1.1" xmlns="http://www.w3.org/2000/svg" xmlns:xlink="http://www.w3.org/1999/xlink" x="0" y="0" width="200" height="200" viewBox="0, 0, 200, 200">
  <g id="Layer_1">
    <g>
      <path d="M34.476,10.794 C25.428,12.985 17.238,19.747 12.952,28.318 L10.476,33.366 L10.19,97.746 C10,153.937 10.095,162.794 11.524,167.461 C12.381,170.508 14,173.842 15.048,174.889 C16.095,175.937 16.667,176.889 16.286,176.889 C15.143,176.889 21.333,182.889 24.762,184.984 C26.476,186.127 28.476,186.699 29.143,186.223 C29.809,185.842 30,185.937 29.619,186.604 C29.333,187.175 30.19,187.937 31.619,188.318 C33.428,188.699 34.571,188.508 35.143,187.651 C35.714,186.699 36,186.889 36.095,188.318 C36.095,189.651 36.857,188.794 38.286,185.842 C39.428,183.365 40.381,181.08 40.476,180.699 C40.476,180.318 40.857,179.651 41.238,179.27 C41.619,178.889 41.143,177.937 40.19,177.27 C38,175.651 38.952,174.794 43.905,174.127 C48.952,173.461 49.619,175.746 45.047,177.556 C42.952,178.318 42,179.365 42,180.794 C42,183.746 41.809,184.223 40.476,185.365 C39.809,185.937 39.047,187.08 38.667,188.127 C38.095,189.651 38.857,189.842 45.524,189.651 C49.619,189.556 53.047,189.175 53.047,188.699 C53.047,188.223 53.524,187.842 54.095,187.842 C54.667,187.842 54.857,188.318 54.476,188.794 C54.095,189.461 56.19,189.842 60,189.842 C63.809,189.842 65.905,189.461 65.524,188.794 C65.143,188.318 65.619,187.842 66.476,187.842 C67.333,187.842 68,188.318 68,188.794 C68,190.318 73.714,190.032 74.381,188.604 C74.857,187.556 75.143,187.556 75.619,188.604 C76,189.461 79.524,189.842 88.095,189.842 C95.905,189.842 99.905,189.461 99.524,188.794 C99.143,188.318 99.905,187.842 101.238,187.842 C103.047,187.842 103.238,188.032 102,188.794 C100.857,189.556 101.238,189.842 103.714,189.842 C105.524,189.842 107.047,189.365 107.047,188.794 C107.047,187.365 109.714,187.651 110.381,189.08 C110.857,190.127 111.143,190.127 111.619,189.08 C112,188.223 112.666,188.127 114.095,188.889 C115.428,189.651 116,189.556 116,188.794 C116,187.937 116.381,187.937 117.238,188.604 C119.047,190.032 156,190.318 156,188.889 C156,188.223 156.666,188.223 158,189.08 C159.714,190.127 160.19,190.127 160.952,188.984 C161.619,187.937 161.809,187.842 162.19,188.889 C162.381,189.651 163.143,189.842 163.809,189.461 C165.714,188.223 165.143,186.889 162.762,186.794 C161.524,186.699 161.047,186.508 161.619,186.223 C162.285,185.937 162.571,184.889 162.285,183.842 C161.809,182.032 162.19,181.937 165.143,182.413 C166.952,182.699 169.619,183.27 171.047,183.556 C175.238,184.604 178.381,184.223 177.524,182.794 C177.143,182.318 177.524,181.842 178.381,181.842 C180.476,181.842 184,176.984 183.238,175.08 C182.762,173.842 183.047,173.651 184.571,174.127 C186.381,174.794 186.381,174.794 184.476,173.27 C182.571,171.651 182.571,171.651 184.666,172.318 C186.666,172.889 187.047,172.413 188.476,167.556 C189.904,162.794 190,153.937 189.809,97.746 L189.524,33.366 L187.047,28.318 C183.904,21.937 177.904,15.937 171.524,12.794 L166.476,10.318 L102,10.223 C66.571,10.127 36.19,10.318 34.476,10.794 z M66,71.842 L66,76.794 L55.524,76.794 L45.047,76.794 L45.047,84.794 L45.047,92.794 L56,92.794 L67.047,92.794 L67.047,97.937 L67.047,102.985 L52.952,102.699 C38.857,102.318 38.857,102.318 36.381,99.556 C34.19,96.889 34,95.937 34,84.985 C34,67.651 34.762,66.985 53.714,66.889 L66,66.794 L66,71.842 z M92.19,75.746 L98.476,84.699 L98.762,75.746 L99.047,66.794 L104,66.794 L109.047,66.794 L109.047,84.794 L109.047,102.794 L104.19,102.794 L99.428,102.794 L91.238,90.604 L83.047,78.413 L83.047,90.604 L83.047,102.794 L78.476,102.794 L74,102.794 L74,84.794 L74,66.794 L79.905,66.794 L85.809,66.794 L92.19,75.746 z M126,73.842 C126,77.842 126.381,80.794 127.047,80.794 C127.524,80.794 130,77.651 132.476,73.842 L136.952,66.794 L142.476,66.794 C145.524,66.794 148,67.08 148,67.461 C148,67.746 145.524,71.651 142.381,75.937 C139.333,80.318 137.047,84.413 137.238,85.08 C137.524,85.842 140.476,90.032 143.905,94.604 L150,102.794 L143.524,102.794 L136.952,102.794 L132.476,95.842 C130,92.032 127.524,88.794 127.047,88.794 C126.381,88.794 126,91.842 126,95.842 L126,102.794 L121.047,102.794 L116,102.794 L116,84.794 L116,66.794 L121.047,66.794 L126,66.794 L126,73.842 z M165.047,84.794 L165.047,102.794 L160,102.794 L155.047,102.794 L155.047,84.794 L155.047,66.794 L160,66.794 L165.047,66.794 L165.047,84.794 z M65.047,120.794 C65.047,121.365 63.619,121.842 62,121.842 C60,121.842 59.047,122.318 59.047,123.365 C59.047,124.318 59.905,124.794 61.524,124.794 C62.857,124.794 64,125.27 64,125.842 C64,126.413 62.857,126.794 61.524,126.794 C59.714,126.794 59.047,127.365 59.047,128.794 C59.047,130.413 59.714,130.794 62,130.794 C63.619,130.794 65.047,131.27 65.047,131.842 C65.047,132.413 63.238,132.794 61.047,132.794 L57.047,132.794 L57.047,126.318 L57.047,119.842 L61.047,119.842 C63.238,119.842 65.047,120.318 65.047,120.794 z M72.857,122.032 L74.286,124.223 L76,122.032 C78.762,118.699 80.476,119.365 78,122.794 L75.905,125.842 L78,128.889 C80.857,132.889 79.619,134.127 76.666,130.413 L74.381,127.556 L72.286,130.413 C71.143,132.032 69.809,132.985 69.428,132.604 C69.047,132.223 69.714,130.604 70.952,128.889 L73.143,125.842 L71.047,122.794 C69.524,120.794 69.238,119.842 70.19,119.842 C70.952,119.842 72.095,120.794 72.857,122.032 z M92,121.27 C94.095,123.842 92.762,126.318 89.238,126.699 C86.381,126.889 86,127.365 86,129.937 C86,131.556 85.524,132.794 85.047,132.794 C84.476,132.794 84,130.032 84,126.318 L84,119.842 L87.333,119.842 C89.238,119.842 91.333,120.508 92,121.27 z M105.047,121.937 C106,123.651 105.905,124.413 104.666,125.651 C103.333,126.985 103.238,127.461 104.571,130.032 C106.571,133.842 104.381,133.746 102.19,129.842 C100,125.937 98,125.937 98,129.842 C98,131.461 97.524,132.794 97.047,132.794 C96.476,132.794 96,130.032 96,126.318 L96,119.842 L100,119.842 C102.952,119.842 104.19,120.318 105.047,121.937 z M117.047,120.794 C117.047,121.365 115.619,121.842 114,121.842 C112,121.842 111.047,122.318 111.047,123.365 C111.047,124.223 111.905,124.794 113.428,124.794 C114.762,124.794 116.19,125.27 116.476,125.842 C116.857,126.413 115.809,126.794 114.095,126.794 C111.714,126.794 111.047,127.27 111.047,128.794 C111.047,130.413 111.714,130.794 114,130.794 C115.619,130.794 117.047,131.27 117.047,131.842 C117.047,132.413 115.238,132.794 113.047,132.794 L109.047,132.794 L109.047,126.318 L109.047,119.842 L113.047,119.842 C115.238,119.842 117.047,120.318 117.047,120.794 z M128.952,121.27 C129.619,122.127 129.714,122.889 129.143,123.27 C128.571,123.556 127.809,123.461 127.524,122.889 C126.666,121.556 123.047,121.556 123.047,122.794 C123.047,123.365 124.571,124.508 126.571,125.27 C129.333,126.508 130.095,127.27 129.809,128.985 C129.428,131.842 126.857,133.27 123.619,132.508 C121.143,131.842 119.809,128.794 122,128.794 C122.571,128.794 123.047,129.27 123.047,129.842 C123.047,130.413 124.095,130.794 125.524,130.794 C129.047,130.794 128.666,128.223 124.952,126.985 C121.809,125.842 120.381,123.746 121.333,121.365 C122.095,119.461 127.333,119.365 128.952,121.27 z M141.714,121.556 C142,122.413 141.047,122.604 138.571,122.127 C134.19,121.461 133.809,123.08 138,124.794 C142.285,126.604 143.428,128.223 142,130.794 C140.666,133.27 135.905,133.556 134,131.27 C132.285,129.27 133.333,128.413 135.809,129.937 C138.381,131.556 141.714,130.413 140.095,128.413 C139.428,127.651 137.905,126.794 136.571,126.413 C133.714,125.746 132.571,123.08 134.19,121.175 C135.524,119.461 141.143,119.746 141.714,121.556 z M104.286,148.508 C103.047,148.794 100.952,148.794 99.714,148.508 C98.476,148.318 99.524,148.127 102,148.127 C104.476,148.127 105.524,148.318 104.286,148.508 z M82,156.794 C83.238,157.651 83.047,157.842 81.238,157.842 C79.238,157.842 78.952,158.318 78.857,163.556 L78.666,169.365 L78.286,163.937 C78,159.746 77.524,158.508 76,158.127 C74.857,157.842 74.286,157.175 74.571,156.699 C75.333,155.556 80.095,155.651 82,156.794 z M73.047,158.794 C73.047,159.365 72.476,159.937 71.714,159.937 C71.047,160.032 69.238,160.223 67.714,160.413 C66.19,160.604 65.047,160.318 65.047,159.842 C65.047,159.365 66.476,158.794 68.286,158.604 C70,158.318 71.809,158.127 72.286,158.032 C72.666,157.937 73.047,158.318 73.047,158.794 z M40,161.365 C40,162.413 38.952,162.794 36.476,162.794 C32.095,162.794 31.905,161.08 36.286,160.604 C38,160.318 39.619,160.127 39.714,160.032 C39.905,159.937 40,160.508 40,161.365 z M168.666,166.794 C168.571,168.508 168.19,169.842 167.714,169.842 C167.333,169.842 167.047,168.508 167.238,166.794 C167.333,165.175 167.714,163.842 168.19,163.842 C168.571,163.842 168.857,165.175 168.666,166.794 z M161.714,165.461 C161.428,165.746 160.571,165.842 159.809,165.556 C159.047,165.175 159.238,164.984 160.381,164.889 C161.428,164.889 162.095,165.08 161.714,165.461 z M176,165.27 C176,166.318 174.095,166.794 173.524,165.842 C173.143,165.27 173.619,164.794 174.476,164.794 C175.333,164.794 176,165.08 176,165.27 z M159.714,166.984 C160.952,166.984 162,167.461 162,167.937 C162,169.365 155.238,170.032 151.714,168.889 C149.809,168.318 147.428,168.127 146.476,168.508 C144.762,169.175 144.666,169.08 146,167.556 C147.143,166.223 148.571,165.937 152.476,166.318 C155.238,166.604 158.476,166.889 159.714,166.984 z M176,168.223 C176,168.413 175.333,168.889 174.476,169.27 C173.524,169.556 173.143,169.365 173.524,168.794 C174.095,167.842 176,167.461 176,168.223 z M81.809,170.984 C85.333,172.127 85.143,173.842 81.524,173.842 C80.19,173.842 78.952,174.318 78.762,174.984 C78.571,175.746 77.714,175.556 76.286,174.318 C74.286,172.604 74.19,172.413 75.809,171.175 C77.905,169.556 78,169.556 81.809,170.984 z M123.809,171.651 C124,172.318 123.524,172.794 122.762,172.794 C122,172.794 121.333,172.127 121.333,171.27 C121.333,169.556 123.143,169.842 123.809,171.651 z M140.762,170.413 C140.381,170.794 139.524,170.794 138.857,170.508 C138,170.223 138.285,169.937 139.428,169.937 C140.476,169.842 141.047,170.127 140.762,170.413 z M148,170.794 C148,171.365 147.333,171.842 146.476,171.842 C145.619,171.842 145.143,171.365 145.524,170.794 C145.809,170.318 146.571,169.842 147.047,169.842 C147.619,169.842 148,170.318 148,170.794 z M154.476,171.842 C154.857,172.413 154.666,172.794 154.095,172.794 C153.524,172.794 153.047,172.413 153.047,171.842 C153.047,171.27 153.238,170.794 153.428,170.794 C153.714,170.794 154.19,171.27 154.476,171.842 z M170,171.842 C170,172.413 169.809,172.794 169.524,172.794 C169.333,172.794 168.857,172.413 168.476,171.842 C168.19,171.27 168.381,170.794 168.952,170.794 C169.524,170.794 170,171.27 170,171.842 z M179.238,172.032 C178.571,172.699 178,174.032 178,175.08 C178,176.032 177.619,176.794 177.143,176.794 C175.714,176.794 176.381,173.461 178,172.127 C179.904,170.508 180.762,170.508 179.238,172.032 z M54,173.842 C54,174.413 53.524,174.794 52.952,174.794 C52.381,174.794 52.19,174.413 52.476,173.842 C52.857,173.27 53.333,172.794 53.524,172.794 C53.809,172.794 54,173.27 54,173.842 z M99.524,173.842 C100.857,174.413 100.952,174.699 100,174.794 C99.143,174.794 97.809,174.413 97.047,173.842 C95.143,172.699 96.762,172.699 99.524,173.842 z M140.762,173.461 C140.381,173.746 139.524,173.842 138.857,173.556 C138,173.175 138.285,172.984 139.428,172.889 C140.476,172.889 141.047,173.08 140.762,173.461 z M124.476,174.794 C124.857,175.365 124.476,175.842 123.619,175.842 C122.762,175.842 121.809,175.365 121.524,174.794 C121.143,174.318 121.524,173.842 122.381,173.842 C123.238,173.842 124.19,174.318 124.476,174.794 z M134.285,174.508 C133.524,174.794 133.238,175.461 133.524,175.937 C133.905,176.413 133.428,176.794 132.571,176.794 C130.381,176.794 129.714,175.08 131.714,174.508 C134.19,173.937 135.809,173.842 134.285,174.508 z M171.524,174.794 C171.809,175.365 171.428,175.556 170.571,175.27 C168.857,174.604 168.476,173.842 169.904,173.842 C170.476,173.842 171.143,174.318 171.524,174.794 z M110.857,176.699 C112.476,177.937 112.857,178.794 112.095,179.27 C110.381,180.318 106.762,178.889 107.333,177.27 C107.714,176.413 106.857,175.842 104.666,175.556 L101.524,175.175 L105.047,174.984 C107.047,174.984 109.524,175.651 110.857,176.699 z M141.047,176.318 C141.047,177.175 140.571,177.842 140.095,177.842 C138.762,177.842 137.905,176.318 138.666,175.461 C139.809,174.318 141.047,174.794 141.047,176.318 z M155.238,175.461 C154.571,175.746 153.428,175.746 152.762,175.461 C152.095,175.27 152.666,174.984 154,174.984 C155.333,174.984 155.905,175.27 155.238,175.461 z M164.666,176.413 C164.666,177.27 164.095,177.746 163.238,177.365 C162.476,177.08 161.524,176.794 161.143,176.794 C160.762,176.699 161.428,176.318 162.476,175.842 C163.619,175.365 164.571,174.984 164.571,174.889 C164.666,174.889 164.666,175.556 164.666,176.413 z M116.857,176.794 C118,177.461 117.905,177.842 116.19,178.699 C114.381,179.651 114.19,179.556 114.285,177.842 C114.476,175.651 114.857,175.461 116.857,176.794 z M147.809,176.699 C148.857,177.365 148.762,177.651 147.238,178.032 C146.095,178.413 145.333,178.032 145.333,177.175 C145.333,175.651 145.905,175.556 147.809,176.699 z M128.476,177.842 C128.857,178.413 128.381,178.794 127.524,178.794 C126.666,178.794 126,178.413 126,177.842 C126,177.27 126.381,176.794 126.952,176.794 C127.428,176.794 128.19,177.27 128.476,177.842 z M171.238,178.032 C170.381,178.889 169.428,178.889 167.809,178.032 C165.619,177.08 165.714,176.984 168.952,176.889 C171.619,176.889 172.095,177.08 171.238,178.032 z M30,178.318 C30,178.508 29.524,178.984 29.047,179.365 C28.476,179.651 28,179.461 28,178.889 C28,178.318 28.476,177.842 29.047,177.842 C29.524,177.842 30,178.032 30,178.318 z M134.571,178.984 C134.952,179.556 136.476,179.842 138.095,179.461 C139.905,179.08 141.047,179.27 141.047,179.937 C141.047,180.604 142,180.794 143.428,180.413 C145.047,180.032 146,180.318 146.381,181.461 C146.952,182.794 146.571,182.984 144.285,182.413 C142.762,182.032 139.619,181.556 137.238,181.175 C133.714,180.699 133.047,180.889 133.047,182.318 C133.047,183.175 132.571,183.651 132,183.365 C131.524,183.08 131.333,182.127 131.619,181.27 C132,180.508 131.714,179.842 131.047,179.842 C130.381,179.842 130.19,179.365 130.476,178.794 C131.333,177.556 133.714,177.556 134.571,178.984 z M178.476,178.699 C179.047,179.746 176,181.175 175.143,180.318 C174.857,180.032 175.238,179.842 175.904,179.842 C176.571,179.842 176.857,179.365 176.476,178.794 C176.19,178.318 176.285,177.842 176.857,177.842 C177.428,177.842 178.095,178.223 178.476,178.699 z M24,179.27 C24,179.556 23.524,180.032 23.047,180.318 C22.476,180.699 22,180.508 22,179.937 C22,179.365 22.476,178.794 23.047,178.794 C23.524,178.794 24,179.08 24,179.27 z M149.047,180.794 C149.047,181.365 148.571,181.842 148,181.842 C147.428,181.842 147.047,181.365 147.047,180.794 C147.047,180.318 147.428,179.842 148,179.842 C148.571,179.842 149.047,180.318 149.047,180.794 z M157.619,181.746 C157.619,182.889 157.047,183.461 156.285,183.08 C154.666,182.508 154.666,181.175 156.285,180.508 C156.952,180.223 157.524,179.937 157.524,179.937 C157.524,179.842 157.619,180.699 157.619,181.746 z M171.524,180.794 C171.809,181.365 171.428,181.842 170.571,181.842 C169.714,181.842 169.047,181.365 169.047,180.794 C169.047,180.318 169.428,179.842 169.904,179.842 C170.476,179.842 171.143,180.318 171.524,180.794 z M116.762,181.461 C116.381,181.746 115.524,181.842 114.857,181.556 C114,181.175 114.285,180.984 115.428,180.889 C116.476,180.889 117.047,181.08 116.762,181.461 z M126,181.842 C127.238,182.604 127.047,182.794 125.238,182.794 C124,182.794 123.047,182.413 123.047,181.842 C123.047,180.604 124.095,180.604 126,181.842 z M97.047,182.794 C97.047,183.365 96.762,183.842 96.571,183.842 C96.286,183.842 95.809,183.365 95.524,182.794 C95.143,182.318 95.333,181.842 95.905,181.842 C96.476,181.842 97.047,182.318 97.047,182.794 z M108.571,186.604 C107.524,187.651 106.762,185.937 107.524,184.127 C108.286,182.413 108.286,182.413 108.762,184.127 C108.952,185.175 108.952,186.223 108.571,186.604 z M115.809,186.127 C114.666,186.508 113.428,186.604 113.143,186.318 C112.857,186.032 113.143,185.842 113.809,185.842 C114.476,185.842 114.666,185.175 114.285,184.223 C113.809,182.889 114,182.794 115.809,183.937 L118,185.27 L115.809,186.127 z M141.714,183.461 C141.428,183.746 140.571,183.842 139.809,183.556 C139.047,183.175 139.238,182.984 140.381,182.889 C141.428,182.889 142.095,183.08 141.714,183.461 z M155.524,184.413 L160.476,185.746 L156,185.175 C153.524,184.889 150.476,184.604 149.238,184.699 C148,184.794 147.047,184.413 147.047,183.842 C147.047,182.508 149.333,182.699 155.524,184.413 z M126.19,186.032 C125.238,186.984 124.762,186.984 123.809,186.032 C122.857,185.08 123.143,184.794 125.047,184.794 C126.857,184.794 127.143,185.08 126.19,186.032 z M141.524,186.794 C141.809,187.365 141.619,187.842 141.047,187.842 C140.476,187.842 140,187.365 140,186.794 C140,186.318 140.19,185.842 140.476,185.842 C140.666,185.842 141.143,186.318 141.524,186.794 z M79.047,187.27 C79.047,187.556 78.571,188.032 78,188.318 C77.428,188.699 77.047,188.508 77.047,187.937 C77.047,187.365 77.428,186.794 78,186.794 C78.571,186.794 79.047,187.08 79.047,187.27 z M92,187.842 C93.238,188.604 93.047,188.794 91.238,188.794 C90,188.794 89.047,188.413 89.047,187.842 C89.047,186.604 90.095,186.604 92,187.842 z M149.524,187.842 C149.809,188.413 149.619,188.794 149.047,188.794 C148.476,188.794 148,188.413 148,187.842 C148,187.27 148.19,186.794 148.476,186.794 C148.666,186.794 149.143,187.27 149.524,187.842 z M84.762,188.413 C84.381,188.794 83.524,188.794 82.857,188.508 C82,188.223 82.286,187.937 83.428,187.937 C84.476,187.842 85.047,188.127 84.762,188.413 z" fill="#000000"/>
      <path d="M86,123.842 C86,125.937 86.762,126.223 89.428,125.27 C91.905,124.223 91.333,121.842 88.476,121.842 C86.666,121.842 86,122.413 86,123.842 z" fill="#000000"/>
      <path d="M98,123.842 C98,126.032 99.143,126.318 102.095,124.794 C104.571,123.461 103.619,121.842 100.476,121.842 C98.666,121.842 98,122.413 98,123.842 z" fill="#000000"/>
    </g>
  </g>
</svg>
