<?xml version="1.0" encoding="UTF-8"?>
<!DOCTYPE svg PUBLIC "-//W3C//DTD SVG 1.1//EN" "http://www.w3.org/Graphics/SVG/1.1/DTD/svg11.dtd">
<svg version="1.1" xmlns="http://www.w3.org/2000/svg" xmlns:xlink="http://www.w3.org/1999/xlink" x="0" y="0" width="400" height="400" viewBox="0, 0, 400, 400">
  <g id="Layer_1">
    <g>
      <path d="M87.344,120.6 C67.608,124.188 49.297,138.12 39.112,157.222 C37.74,159.808 36.685,162.077 36.843,162.183 C36.949,162.288 38.426,160.758 40.115,158.7 C49.825,146.774 64.758,138.383 80.642,135.85 C87.449,134.742 101.539,135.428 108.61,137.17 C120.8,140.23 129.243,144.769 137.422,152.684 L140.905,156.061 L145.602,151.365 C148.187,148.779 150.298,146.563 150.298,146.352 C150.298,146.193 148.768,144.241 146.921,142.025 C137.844,131.365 123.227,123.133 108.874,120.653 C103.069,119.597 92.832,119.597 87.344,120.6 z" fill="#000000"/>
      <path d="M213.727,144.769 C208.45,145.455 202.962,147.249 199.479,149.465 L196.577,151.312 L196.419,148.832 L196.208,146.352 L183.226,146.352 L170.245,146.352 L170.245,193.739 L170.245,241.126 L184.123,241.126 L197.949,241.126 L197.949,209.622 C197.949,177.275 198.16,173.581 200.218,169.57 C202.276,165.56 207.923,163.555 217.263,163.555 C224.703,163.555 228.714,164.61 231.933,167.512 C237.315,172.209 237.79,176.378 237.843,214.952 L237.843,241.126 L251.721,241.126 L265.547,241.126 L265.547,208.567 C265.547,174.953 265.23,168.832 263.278,163.132 C260.323,154.478 253.357,148.568 242.539,145.507 C238.634,144.399 220.112,143.924 213.727,144.769 z" fill="#000000"/>
      <path d="M289.399,165.56 L271.616,186.404 L271.774,189.728 L271.932,193 L290.19,217.063 L308.501,241.073 L322.485,241.126 C330.19,241.126 336.469,241.02 336.469,240.862 C336.469,240.704 327.129,228.831 315.678,214.477 C304.227,200.124 294.94,188.198 295.045,187.987 C295.098,187.723 303.647,178.119 314.042,166.668 C324.385,155.217 332.934,145.56 333.039,145.243 C333.198,144.927 328.607,144.716 320.216,144.716 L307.235,144.716 L289.399,165.56 z" fill="#000000"/>
      <path d="M86.183,145.666 C86.711,145.771 87.449,145.771 87.819,145.613 C88.188,145.507 87.766,145.349 86.869,145.402 C85.919,145.402 85.655,145.507 86.183,145.666 z" fill="#000000"/>
      <path d="M101.644,146.352 C104.019,146.985 107.185,148.093 108.716,148.832 C110.246,149.623 111.934,150.257 112.568,150.257 C114.52,150.257 125.285,156.061 124.599,156.747 C124.441,156.906 123.755,156.642 123.069,156.114 C122.383,155.639 121.222,155.217 120.536,155.217 C119.375,155.217 119.322,155.375 119.955,156.483 C120.325,157.169 121.38,158.594 122.33,159.65 C123.913,161.549 123.913,161.549 121.644,159.439 L119.322,157.275 L117.792,158.33 C116.895,158.911 115.892,159.28 115.523,159.227 C115.153,159.122 114.837,159.333 114.837,159.702 C114.837,160.019 114.573,160.125 114.309,159.966 C113.359,159.386 113.676,160.652 115.101,163.555 C115.892,165.032 116.473,166.51 116.473,166.721 C116.473,166.985 115.945,166.193 115.312,164.979 L114.151,162.763 L112.832,165.401 C111.46,168.093 110.774,168.726 111.037,167.037 C111.143,166.51 110.879,165.296 110.51,164.346 C109.718,162.446 109.771,161.444 110.826,160.336 C111.407,159.702 111.407,159.386 110.879,158.753 C110.246,158.014 110.035,158.067 109.243,159.069 C108.504,159.966 107.66,160.23 105.76,160.23 C102.647,160.23 102.489,160.863 104.863,165.19 C106.658,168.462 106.816,168.779 105.972,168.251 C105.655,168.093 105.444,168.146 105.444,168.462 C105.444,168.779 105.708,169.201 106.024,169.412 C106.446,169.676 106.446,169.94 105.919,170.256 C105.338,170.573 105.391,170.784 106.183,171.101 C106.71,171.312 107.449,171.153 107.766,170.837 C108.135,170.467 108.821,170.204 109.243,170.204 C109.929,170.256 109.824,170.415 109.032,170.89 C106.974,172.103 106.077,173.686 106.288,175.903 C106.446,177.75 106.288,178.066 104.969,178.647 C104.125,178.963 103.28,179.28 103.069,179.28 C102.858,179.333 102.33,179.86 101.855,180.441 C101.169,181.443 101.011,181.443 100.695,180.652 C100.22,179.438 101.328,177.38 102.436,177.38 C104.072,177.38 104.811,175.955 104.6,173.159 C104.494,171.681 104.388,169.834 104.336,169.095 C104.336,167.882 104.125,168.04 103.122,170.151 C102.436,171.47 101.433,172.684 100.906,172.842 C100.325,173 99.903,173.422 99.903,173.845 C99.903,174.267 99.586,174.636 99.27,174.636 C98.9,174.636 99.059,175.217 99.586,176.114 C100.483,177.486 100.483,177.644 99.692,178.225 C99.164,178.594 98.953,179.069 99.164,179.28 C99.323,179.438 99.217,179.597 98.848,179.597 C98.531,179.597 98.214,179.016 98.214,178.277 C98.214,176.694 97.634,176.167 96.579,176.853 C95.945,177.222 95.998,177.644 96.79,179.385 C97.581,181.021 97.634,181.707 97.159,182.763 C96.842,183.501 96.79,183.976 97.053,183.818 C97.37,183.607 97.739,183.713 97.951,184.029 C98.109,184.346 98.056,184.61 97.739,184.61 C97.476,184.61 97.37,185.137 97.528,185.823 C97.739,186.615 97.634,186.879 97.212,186.615 C96.842,186.404 96.579,185.823 96.579,185.401 C96.579,184.768 96.156,184.874 94.89,185.823 C93.254,187.037 93.254,187.037 93.254,192.578 C93.254,197.96 93.254,198.066 94.309,197.116 C95.681,195.85 96.684,196.483 96.209,198.277 C95.84,199.649 95.945,199.702 97.845,199.491 C100.114,199.227 100.22,199.332 99.006,200.915 C98.584,201.496 98.373,202.446 98.531,203.026 C98.689,203.554 98.584,203.976 98.267,203.976 C97.951,203.976 97.634,203.712 97.634,203.29 C97.634,202.815 97.528,202.815 97.159,203.343 C96.526,204.398 95.998,202.921 96.367,201.127 C96.579,200.071 96.473,200.124 95.47,201.601 C94.468,203.079 94.046,203.29 93.043,202.921 C92.41,202.71 91.513,201.918 91.143,201.179 C90.563,200.018 90.616,199.755 91.565,199.069 C92.568,198.435 92.674,197.697 92.674,192.842 C92.674,188.567 92.515,187.354 91.882,187.354 C91.46,187.354 91.143,187.776 91.196,188.304 C91.249,188.778 90.985,189.306 90.563,189.464 C90.193,189.57 89.93,189.464 89.93,189.253 C89.982,188.99 89.982,188.409 89.982,187.934 C89.877,187.195 89.824,187.195 89.402,187.881 C89.032,188.462 89.244,189.148 89.93,190.045 C91.354,191.839 91.302,193 89.613,194.583 C88.821,195.322 88.241,195.586 88.241,195.216 C88.241,194.478 86.922,192.894 86.341,192.894 C85.655,192.894 86.077,195.375 86.869,196.272 C87.344,196.799 87.819,198.013 87.924,198.963 C88.083,199.913 88.769,201.232 89.455,201.865 C90.141,202.446 90.404,202.815 90.035,202.604 C89.613,202.446 89.349,202.604 89.349,203.132 C89.349,203.607 90.035,204.134 90.879,204.293 C91.724,204.504 92.779,204.82 93.307,205.084 C94.468,205.718 98.9,205.981 99.745,205.506 C100.061,205.243 100.483,205.295 100.642,205.559 C100.8,205.77 100.431,206.298 99.85,206.667 C99.217,207.09 98.795,207.09 98.795,206.773 C98.795,206.456 98.373,206.192 97.898,206.192 C97.423,206.192 97.212,206.456 97.37,206.773 C97.581,207.09 97.476,207.301 97.159,207.301 C96.842,207.301 96.473,207.09 96.262,206.773 C96.104,206.456 95.101,206.192 94.046,206.192 C90.563,206.192 87.027,204.134 85.972,201.39 C85.708,200.704 85.075,200.124 84.494,200.124 C83.703,200.124 83.65,200.018 84.389,199.543 C85.075,199.121 85.022,199.016 84.125,199.016 C83.544,199.016 83.228,198.857 83.439,198.646 C83.65,198.435 83.386,197.802 82.911,197.274 C82.383,196.694 82.12,196.061 82.331,195.85 C82.542,195.691 82.7,195.797 82.7,196.166 C82.7,196.483 83.069,196.799 83.492,196.799 C83.914,196.799 84.653,197.169 85.127,197.644 C85.919,198.435 86.025,198.435 86.025,197.644 C86.025,197.169 85.655,196.641 85.18,196.43 C84.653,196.219 84.441,195.744 84.6,195.269 C85.18,193.792 84.336,190.731 83.333,190.678 C82.806,190.678 82.067,189.887 81.592,188.884 C81.117,187.934 80.537,187.09 80.22,187.09 C79.851,187.09 79.534,191.628 79.376,199.016 L79.059,210.942 L78.953,199.069 L78.848,187.143 L76.895,189.306 C74.89,191.417 74.362,193.792 75.576,194.953 C75.998,195.427 75.998,195.85 75.576,196.588 C74.996,197.591 74.943,197.591 74.626,196.43 C74.415,195.744 73.993,195.322 73.624,195.48 C72.99,195.691 70.51,191.1 70.51,189.676 C70.51,188.567 66.236,184.715 65.55,185.137 C64.442,185.823 63.756,193.897 64.02,203.185 C64.125,208.303 64.072,210.889 63.809,209.253 C63.228,205.559 63.175,194.689 63.65,189.412 C63.861,186.562 63.809,185.137 63.439,185.137 C63.123,185.137 62.964,185.612 63.123,186.14 C63.439,187.301 61.381,190.15 60.273,190.15 C59.851,190.15 59.429,190.362 59.323,190.678 C59.218,190.942 58.004,191.734 56.685,192.367 L54.152,193.475 L56.315,193.158 C57.74,192.947 58.637,193.053 58.901,193.528 C59.429,194.372 57.582,197.591 54.943,200.388 C52.569,202.973 52.463,203.343 53.044,206.931 C53.36,208.989 53.255,209.834 52.569,210.942 C51.513,212.525 51.724,214.477 53.413,219.49 C53.993,221.126 54.363,222.551 54.204,222.709 C53.941,222.973 51.091,214.477 51.091,213.264 C51.144,212.683 50.88,212.367 50.616,212.578 C50.3,212.736 50.088,213.686 50.141,214.636 C50.141,215.638 49.877,216.483 49.561,216.641 C49.191,216.746 48.928,217.116 48.928,217.38 C48.928,218.066 45.972,222.234 45.497,222.287 C45.339,222.287 44.6,220.968 43.967,219.385 C39.535,208.725 38.848,195.005 42.173,183.765 L43.176,180.441 L45.867,180.441 C48.4,180.441 49.402,180.019 49.455,178.911 C49.455,178.699 48.928,178.488 48.294,178.488 C47.661,178.488 47.344,178.277 47.503,177.961 C47.978,177.222 46.078,177.908 44.917,178.911 C44.178,179.544 44.02,179.544 44.125,178.963 C44.442,177.433 46.289,173.528 46.711,173.528 C46.922,173.528 47.397,172.789 47.714,171.839 C49.086,167.882 57.423,159.016 63.703,154.848 C67.819,152.104 73.94,149.307 80.22,147.354 C84.23,146.088 84.705,145.877 82.542,146.141 C78.848,146.563 73.782,148.304 68.611,150.89 C35.999,167.09 28.875,211.206 54.679,237.01 C59.059,241.39 63.334,244.45 69.244,247.406 C73.571,249.622 81.909,252.208 84.283,252.155 C85.127,252.155 84.019,251.627 81.697,250.994 C77.793,249.886 77.212,249.464 79.27,249.041 C82.542,248.355 84.811,248.25 85.18,248.83 C85.339,249.147 86.025,249.411 86.605,249.411 C87.344,249.464 87.555,249.2 87.291,248.514 C87.08,247.933 87.186,247.722 87.555,247.986 C88.135,248.355 95.418,245.717 95.998,244.925 C96.156,244.714 97.581,244.609 99.217,244.714 C100.8,244.82 102.119,244.714 102.119,244.556 C102.119,244.345 104.652,244.134 107.766,244.134 C113.306,244.081 116.051,243.87 120.641,243.078 L122.858,242.709 L120.958,243.976 C116.842,246.614 107.871,250.202 101.275,251.785 C100.378,251.997 100.483,252.102 101.592,252.155 C103.913,252.26 112.304,249.622 116.684,247.406 C122.541,244.45 126.816,241.39 131.195,237.01 C152.039,216.113 152.039,182.024 131.195,161.022 C123.069,152.79 111.037,146.774 100.431,145.613 C97.581,145.296 97.634,145.349 101.644,146.352 z M127.818,159.175 C128.926,160.125 129.823,161.074 129.823,161.338 C129.823,161.549 128.926,162.183 127.818,162.71 C126.552,163.291 125.918,163.924 126.13,164.399 C126.393,165.032 126.235,165.085 125.391,164.557 C124.81,164.188 124.23,163.449 124.072,162.869 C123.86,162.024 123.913,161.971 124.599,162.499 C125.18,162.974 125.707,162.921 126.868,162.13 C127.976,161.391 128.188,161.074 127.554,160.863 C127.132,160.758 126.552,160.283 126.288,159.861 C126.077,159.439 125.602,159.227 125.338,159.439 C125.021,159.597 124.81,159.491 124.81,159.175 C124.81,158.858 125.074,158.541 125.391,158.541 C125.707,158.541 125.813,158.33 125.655,158.014 C125.021,157.011 125.866,157.433 127.818,159.175 z M123.438,164.663 C123.227,164.979 122.7,165.19 122.277,165.19 C121.802,165.19 121.591,164.979 121.75,164.663 C121.961,164.346 122.488,164.082 122.911,164.082 C123.386,164.082 123.597,164.346 123.438,164.663 z M119.692,165.56 C119.481,165.718 119.006,165.771 118.636,165.613 C118.161,165.401 118.32,165.296 118.953,165.243 C119.533,165.243 119.85,165.349 119.692,165.56 z M106.341,184.188 C106.235,184.874 106.13,184.293 106.13,182.921 C106.13,181.602 106.235,181.021 106.341,181.707 C106.499,182.393 106.499,183.501 106.341,184.188 z M123.966,187.934 C124.177,188.251 124.072,188.462 123.755,188.462 C123.438,188.462 123.174,188.251 123.174,187.934 C123.174,187.618 122.752,187.354 122.33,187.354 C121.855,187.354 121.486,187.143 121.486,186.826 C121.486,186.14 123.438,187.037 123.966,187.934 z M98.003,190.256 C97.845,190.889 98.056,191.47 98.531,191.628 C99.428,191.997 100.642,195.427 100.22,196.536 C99.956,197.222 99.692,197.274 98.795,196.694 C98.056,196.219 97.898,195.744 98.214,195.164 C98.478,194.636 98.373,194.161 97.845,193.739 C97.423,193.422 96.895,192.103 96.737,190.836 C96.42,188.778 96.526,188.515 97.37,188.831 C97.951,189.042 98.214,189.57 98.003,190.256 z M82.014,192.894 C81.909,194.161 81.064,194.478 81.064,193.264 C81.064,192.631 81.539,191.786 81.909,191.786 C82.014,191.786 82.014,192.314 82.014,192.894 z M96.104,194.689 C95.681,195.111 95.47,195.111 95.47,194.794 C95.47,194.055 96.104,193.369 96.473,193.739 C96.631,193.897 96.473,194.319 96.104,194.689 z M102.067,199.702 C102.067,200.071 101.855,200.757 101.539,201.232 C101.117,201.865 101.011,201.707 101.011,200.546 C101.011,199.702 101.222,199.016 101.539,199.016 C101.855,199.016 102.067,199.332 102.067,199.702 z M105.18,201.707 C105.655,202.287 105.919,202.34 106.183,201.865 C106.869,200.81 112.093,203.448 112.093,204.873 C112.093,205.137 112.462,205.77 112.99,206.298 C114.204,207.617 112.884,207.723 111.407,206.404 C110.615,205.665 110.246,205.665 109.56,206.192 C108.979,206.72 108.557,206.773 107.977,206.298 C107.607,205.929 107.08,205.823 106.869,206.034 C106.71,206.245 106.552,205.718 106.552,204.926 C106.552,203.976 106.235,203.448 105.708,203.448 C105.233,203.448 104.758,203.448 104.6,203.448 C103.913,203.448 102.33,201.443 102.489,200.863 C102.805,200.071 104.336,200.546 105.18,201.707 z M101.275,202.34 C102.014,202.34 102.7,202.551 102.858,202.815 C103.069,203.079 102.383,203.132 101.433,202.921 C100.483,202.762 99.639,202.287 99.534,201.918 C99.481,201.496 99.534,201.443 99.692,201.76 C99.85,202.076 100.536,202.34 101.275,202.34 z M114.784,203.765 C114.045,204.662 112.62,204.82 112.62,203.976 C112.62,203.712 112.99,203.448 113.465,203.448 C113.887,203.448 114.309,203.185 114.309,202.868 C114.309,202.551 114.52,202.446 114.89,202.657 C115.259,202.868 115.259,203.237 114.784,203.765 z M120.114,206.667 C120.589,208.039 120.219,207.881 117.897,205.823 L115.681,203.923 L117.739,204.873 C118.847,205.401 119.903,206.192 120.114,206.667 z M109.876,208.725 C109.876,209.2 110.088,209.517 110.404,209.517 C110.721,209.517 110.985,210.308 110.985,211.206 C110.985,212.103 111.196,212.841 111.512,212.841 C112.515,212.841 114.256,217.063 113.94,218.752 C113.676,220.282 111.248,224.345 110.14,225.19 C109.824,225.401 108.716,225.612 107.66,225.612 C106.183,225.612 105.338,225.137 103.702,223.395 C101.433,221.021 100.431,220.757 98.056,221.971 C97.212,222.446 95.629,222.868 94.52,222.973 L92.515,223.132 L92.357,220.071 C92.093,215.163 92.462,214.108 94.732,213.369 C95.84,213 97.476,211.892 98.373,210.836 C99.27,209.781 100.325,209.042 100.695,209.2 C101.011,209.306 101.803,209.095 102.383,208.673 C102.964,208.25 104.019,207.881 104.705,207.881 C105.813,207.881 105.919,208.092 105.655,209.253 C105.444,210.045 105.549,210.625 105.866,210.625 C106.183,210.625 106.816,210.783 107.291,210.994 C107.924,211.206 108.188,210.994 108.188,210.203 C108.188,208.567 108.768,207.301 109.349,207.617 C109.613,207.828 109.876,208.303 109.876,208.725 z M58.321,209.411 C58.321,209.886 57.898,211.733 57.423,213.527 C56.632,216.324 56.315,216.746 55.154,216.746 C53.888,216.746 53.782,216.588 54.099,215.005 C54.31,214.055 54.468,212.841 54.468,212.314 C54.468,211.258 57.265,207.934 57.898,208.303 C58.109,208.409 58.321,208.884 58.321,209.411 z M129.137,211.417 C128.715,211.839 128.346,212.103 128.24,211.997 C127.871,211.68 128.715,210.625 129.296,210.625 C129.612,210.625 129.507,210.994 129.137,211.417 z M64.811,214.372 C64.653,214.899 64.547,214.636 64.547,213.686 C64.495,212.789 64.653,212.367 64.758,212.736 C64.917,213.105 64.917,213.844 64.811,214.372 z M122.277,213.95 C122.858,214.847 121.644,215.111 120.905,214.266 C120.378,213.58 120.378,213.422 121.116,213.422 C121.591,213.422 122.119,213.633 122.277,213.95 z M79.745,215.797 C79.587,216.166 79.481,215.849 79.481,215.058 C79.481,214.319 79.587,214.002 79.745,214.372 C79.903,214.794 79.903,215.374 79.745,215.797 z M65.339,217.38 C65.181,217.855 65.022,217.696 65.022,217.063 C64.969,216.483 65.128,216.166 65.286,216.324 C65.497,216.535 65.497,217.01 65.339,217.38 z M56.579,227.142 C57.529,229.042 58.215,230.572 58.057,230.572 C57.74,230.572 54.468,224.187 54.468,223.606 C54.468,222.973 54.785,223.501 56.579,227.142 z M123.122,228.461 C119.058,232.102 118.161,232.63 118.161,231.205 C118.161,230.572 118.953,229.675 120.114,228.989 C121.169,228.356 122.066,227.617 122.066,227.3 C122.066,226.984 122.436,226.931 122.963,227.089 C123.491,227.3 123.755,227.248 123.597,226.931 C123.438,226.667 123.491,225.876 123.755,225.137 C124.23,223.923 124.335,223.923 125.18,224.82 C126.024,225.664 125.918,225.876 123.122,228.461 z M109.296,227.775 C109.296,228.039 108.927,228.514 108.504,228.883 C107.924,229.358 107.713,229.358 107.449,228.725 C107.291,228.303 107.291,227.775 107.502,227.617 C107.977,227.089 109.296,227.195 109.296,227.775 z M67.186,233.369 C67.186,233.685 66.922,233.897 66.658,233.897 C66.341,233.897 66.078,233.685 66.078,233.369 C66.078,233.052 66.341,232.788 66.658,232.788 C66.922,232.788 67.186,233.052 67.186,233.369 z M75.893,241.337 C74.204,242.815 73.993,243.342 75.207,243.342 C76.421,243.342 77.898,245.928 77.423,247.089 C77.159,247.617 77.001,248.197 77.054,248.408 C77.265,249.411 75.418,249.147 72.463,247.775 C69.508,246.403 69.297,246.139 70.405,245.822 C71.302,245.506 71.566,245.136 71.302,244.398 C71.144,243.817 71.249,243.342 71.566,243.342 C71.882,243.342 72.199,243.026 72.199,242.656 C72.199,241.812 74.837,240.123 76.315,240.071 C77.318,240.018 77.265,240.176 75.893,241.337 z" fill="#000000"/>
      <path d="M357.788,146.299 C347.023,151.206 346.548,166.721 357.05,172.05 C366.179,176.694 376.944,170.942 377.841,160.916 C378.421,154.742 375.677,149.623 370.348,146.827 C366.706,144.927 361.324,144.716 357.788,146.299 z" fill="#000000"/>
      <path d="M35.788,147.935 C26.395,155.375 16.844,170.151 12.411,184.188 C7.028,201.127 8.084,221.021 15.313,238.118 C22.173,254.318 35.207,267.194 51.672,274.001 C68.083,280.809 90.721,282.075 107.66,277.22 C124.705,272.313 139.111,261.495 148.451,246.561 C152.356,240.387 152.725,239.173 149.981,241.759 C141.116,249.991 127.871,257.696 115.945,261.495 C107.977,264.081 102.33,264.978 94.151,264.925 C62.173,264.925 37.635,247.775 28.136,218.699 C25.656,211.047 24.442,202.604 24.442,192.367 C24.39,174.161 27.925,161.074 35.841,150.046 C37.529,147.724 38.796,145.824 38.69,145.824 C38.585,145.824 37.265,146.774 35.788,147.935 z" fill="#000000"/>
      <path d="M91.565,146.246 C91.565,146.457 91.829,147.038 92.146,147.46 C92.568,148.146 92.674,148.093 92.674,147.09 C92.674,146.404 92.41,145.824 92.146,145.824 C91.829,145.824 91.565,146.035 91.565,146.246 z" fill="#000000"/>
      <path d="M93.254,146.932 C93.254,147.565 93.412,148.04 93.623,148.093 C93.887,148.093 94.626,148.251 95.312,148.357 C96.948,148.674 96.895,147.829 95.207,146.721 C93.412,145.56 93.254,145.613 93.254,146.932 z" fill="#000000"/>
      <path d="M102.647,147.988 C103.386,148.621 104.758,149.096 105.708,149.096 L107.344,149.043 L105.708,148.357 C104.758,147.935 103.386,147.46 102.647,147.249 L101.275,146.879 L102.647,147.988 z" fill="#000000"/>
      <path d="M107.66,149.676 C107.66,150.415 108.61,150.89 108.979,150.309 C109.138,150.046 108.927,149.676 108.452,149.518 C108.03,149.307 107.66,149.412 107.66,149.676 z" fill="#000000"/>
      <path d="M101.644,161.444 C100.589,162.763 100.695,163.713 101.961,163.818 C103.016,163.924 103.122,163.713 102.858,162.499 C102.383,160.652 102.383,160.599 101.644,161.444 z" fill="#000000"/>
      <path d="M94.837,168.409 C94.784,168.62 94.784,169.254 94.837,169.781 C94.943,170.362 94.573,170.731 94.098,170.731 C93.412,170.731 93.201,171.523 93.148,174.478 L93.043,178.225 L92.832,175.058 C92.621,171.945 92.04,170.995 91.354,172.684 C91.196,173.159 90.616,173.528 90.035,173.528 C89.507,173.528 87.08,175.375 84.653,177.644 C82.12,179.966 80.695,181.655 81.328,181.496 C82.806,181.127 84.864,183.238 83.967,184.135 C83.492,184.61 83.492,185.032 83.967,185.718 C84.441,186.509 84.864,186.615 86.183,186.246 C87.186,185.929 88.135,185.982 88.769,186.404 C89.56,186.879 90.404,186.826 92.462,186.193 C94.573,185.507 95.365,184.926 96.104,183.449 C96.579,182.393 96.79,181.496 96.473,181.391 C96.209,181.285 96.156,180.969 96.315,180.652 C96.526,180.388 96.262,179.491 95.734,178.752 C95.259,178.013 95.048,177.38 95.259,177.38 C95.47,177.38 95.207,176.958 94.679,176.378 C93.834,175.428 93.834,175.322 94.837,174.372 C95.418,173.845 96.209,173.581 96.579,173.845 C97.212,174.214 99.903,171.681 99.903,170.731 C99.903,170.467 100.061,169.834 100.272,169.306 C100.483,168.673 100.431,168.515 100.009,168.726 C99.692,168.937 99.217,168.884 99.059,168.568 C98.637,167.882 94.943,167.776 94.837,168.409 z" fill="#000000"/>
      <path d="M56.421,171.628 C56.262,172.156 56.421,172.948 56.79,173.422 C57.16,173.897 57.423,174.689 57.318,175.217 C57.212,175.744 57.582,176.325 58.057,176.483 C58.795,176.8 58.901,176.589 58.584,175.164 C58.373,174.214 57.898,172.842 57.529,172.103 C56.896,170.942 56.737,170.837 56.421,171.628 z" fill="#000000"/>
      <path d="M50.827,172.948 C50.669,173.264 50.88,173.528 51.408,173.528 C51.883,173.528 52.146,173.264 51.935,172.948 C51.777,172.684 51.513,172.42 51.408,172.42 C51.302,172.42 51.038,172.684 50.827,172.948 z" fill="#000000"/>
      <path d="M95.734,175.164 C94.679,175.639 94.679,175.692 95.84,175.692 C96.526,175.744 97.106,175.48 97.106,175.164 C97.106,174.9 97.053,174.636 96.948,174.689 C96.895,174.689 96.315,174.953 95.734,175.164 z" fill="#000000"/>
      <path d="M57.212,182.393 C57.212,182.71 57.476,182.921 57.793,182.921 C58.109,182.921 58.215,182.71 58.057,182.393 C57.846,182.077 57.582,181.813 57.476,181.813 C57.318,181.813 57.212,182.077 57.212,182.393 z" fill="#000000"/>
      <path d="M58.901,184.61 C58.901,184.926 59.112,185.137 59.376,185.137 C59.693,185.137 60.062,184.926 60.273,184.61 C60.431,184.293 60.22,184.029 59.745,184.029 C59.27,184.029 58.901,184.293 58.901,184.61 z" fill="#000000"/>
      <path d="M351.984,213.158 L351.984,241.126 L364.174,241.126 L376.363,241.126 L376.363,213.158 L376.363,185.137 L364.174,185.137 L351.984,185.137 L351.984,213.158 z" fill="#000000"/>
      <path d="M51.355,188.092 C51.513,188.462 51.83,189.201 51.988,189.676 C52.305,190.52 53.888,191.628 53.888,190.995 C53.888,190.15 52.516,187.934 51.83,187.67 C51.302,187.512 51.144,187.618 51.355,188.092 z" fill="#000000"/>
      <path d="M80.378,249.833 C80.8,249.991 81.275,249.939 81.434,249.78 C81.645,249.569 81.275,249.464 80.695,249.464 C80.062,249.516 79.956,249.622 80.378,249.833 z" fill="#000000"/>
      <path d="M86.711,252.577 C87.291,252.735 88.03,252.735 88.399,252.577 C88.769,252.419 88.346,252.313 87.397,252.313 C86.5,252.313 86.183,252.471 86.711,252.577 z" fill="#000000"/>
      <path d="M97.792,252.577 C98.373,252.735 99.111,252.735 99.481,252.577 C99.85,252.419 99.428,252.313 98.478,252.313 C97.581,252.313 97.265,252.471 97.792,252.577 z" fill="#000000"/>
    </g>
  </g>
</svg>
