<?xml version="1.0" encoding="UTF-8"?>
<!DOCTYPE svg PUBLIC "-//W3C//DTD SVG 1.1//EN" "http://www.w3.org/Graphics/SVG/1.1/DTD/svg11.dtd">
<svg version="1.1" xmlns="http://www.w3.org/2000/svg" xmlns:xlink="http://www.w3.org/1999/xlink" x="0" y="0" width="400" height="400" viewBox="0, 0, 400, 400">
  <g id="Layer_1">
    <path d="M91.014,174.003 C83.465,174.003 76.473,179.494 71.62,185.193 C67.691,189.815 65.728,196.939 65.728,202.871 C65.728,208.802 67.956,215.398 71.884,220.02 C76.66,225.72 81.803,229.626 89.429,229.626 C96.285,229.626 104.439,226.748 109.136,222.049 C113.912,217.35 117.884,209.461 117.884,202.606 C117.884,195.829 116.024,187.713 111.249,183.015 C106.473,178.237 97.791,174.002 91.014,174.002 z M226.575,175.865 C218.719,175.865 212.325,178.955 207.395,185.131 C203.391,190.088 201.387,195.736 201.387,202.074 C201.387,208.494 203.391,214.183 207.395,219.14 C212.324,225.316 218.719,228.405 226.575,228.405 C233.585,228.405 239.514,225.882 244.366,220.843 C249.221,215.723 251.646,209.47 251.646,202.074 C251.646,194.761 249.18,188.587 244.251,183.548 C239.4,178.429 233.506,175.866 226.575,175.866 z M200,7.5 C93.686,7.5 7.5,93.686 7.5,200 C7.5,306.314 93.686,392.5 200,392.5 C306.314,392.5 392.5,306.314 392.5,200 C392.5,93.686 306.314,7.5 200,7.5 z M154.339,258.829 L118.683,258.829 L118.683,244.315 C115.063,248.86 106.544,253.493 102.848,255.571 C96.379,259.19 87.593,261.549 79.35,261.549 C66.025,261.549 54.163,257.338 43.765,248.173 C31.364,237.236 25.537,220.514 25.537,202.49 C25.537,184.157 31.891,169.522 44.601,158.585 C54.691,149.881 67.03,142.914 80.125,142.914 C87.75,142.914 97.155,143.599 103.855,146.833 C107.707,148.681 114.602,153.031 118.685,157.268 L118.685,80.81 L154.34,80.81 L154.34,258.829 z M276.371,242.42 C264.51,256.072 247.91,262.899 226.575,262.899 C205.162,262.899 188.525,256.072 176.661,242.42 C166.88,231.206 161.988,217.432 161.988,201.099 C161.988,186.39 166.917,173.348 176.776,161.972 C188.714,148.238 205.699,141.371 227.728,141.371 C247.985,141.371 264.16,148.237 276.254,161.972 C286.113,173.186 291.043,186.552 291.043,202.074 C291.044,217.758 286.153,231.206 276.371,242.421 z M306.464,87.785 C310.624,83.626 315.669,81.547 321.599,81.547 C327.53,81.547 332.575,83.626 336.734,87.785 C340.894,91.868 342.973,96.875 342.973,102.805 C342.973,108.813 340.894,113.896 336.734,118.056 C332.652,122.138 327.607,124.179 321.599,124.179 C315.667,124.179 310.622,122.1 306.464,117.94 C302.382,113.781 300.341,108.735 300.341,102.805 C300.339,96.875 302.382,91.868 306.464,87.785 z M340.548,258.74 L302.651,258.74 L302.651,145.542 L340.548,145.542 L340.548,258.74 z" fill="#000000"/>
  </g>
</svg>
