<?xml version="1.0" encoding="UTF-8"?>
<!DOCTYPE svg PUBLIC "-//W3C//DTD SVG 1.1//EN" "http://www.w3.org/Graphics/SVG/1.1/DTD/svg11.dtd">
<svg version="1.1" xmlns="http://www.w3.org/2000/svg" xmlns:xlink="http://www.w3.org/1999/xlink" x="0" y="0" width="800" height="800" viewBox="0, 0, 800, 800">
  <g id="g3">
    <path d="M178.712,221.044 C125.349,221.044 81.147,261.897 74.26,314.679 L283.166,314.679 C276.272,261.897 232.079,221.044 178.712,221.044 M107.435,290.003 C121.025,263.689 147.859,245.718 178.711,245.718 C209.561,245.718 236.396,263.689 249.986,290.003 L107.435,290.003 z M651.357,407.094 L651.357,171.687 L626.678,171.687 L626.678,431.768 L779.38,431.768 L779.38,407.094 L651.357,407.094 z M598.689,171.687 L574.004,171.687 L574.004,236.932 C544.898,195.518 496.777,168.369 442.402,168.369 C387.178,168.369 338.381,196.353 309.425,238.863 C280.959,196.355 233.011,168.369 178.712,168.369 C91.542,168.369 20.62,240.453 20.62,329.057 C20.62,417.668 91.542,489.751 178.712,489.751 C233.011,489.751 280.956,461.756 309.42,419.242 C338.375,461.768 387.178,489.751 442.402,489.751 C496.777,489.751 544.898,462.602 574.005,421.181 L574.005,484.443 L779.38,484.443 L779.38,459.763 L598.689,459.763 L598.689,171.687 z M442.402,465.072 C390.111,465.072 344.731,435.378 321.958,392.034 L296.786,392.034 C274.462,435.378 229.974,465.072 178.711,465.072 C105.148,465.072 45.3,404.053 45.3,329.057 C45.3,254.062 105.148,193.048 178.711,193.048 C242.834,193.048 296.519,239.413 309.248,300.979 C322.231,239.413 376.992,193.048 442.401,193.048 C517.438,193.048 578.485,254.062 578.485,329.057 C578.486,404.054 517.439,465.072 442.402,465.072 M442.402,221.044 C382.799,221.044 334.312,269.494 334.312,329.057 C334.312,333.672 334.635,338.213 335.2,342.677 L74.163,342.677 C80.724,395.826 125.09,437.076 178.712,437.076 C213.883,437.076 244.962,419.257 264.083,392.034 L231.415,392.034 C217.267,404.694 198.866,412.401 178.711,412.401 C147.57,412.401 120.544,394.076 107.079,367.355 L250.343,367.355 L341.348,367.355 C356.855,408.066 396.292,437.077 442.401,437.077 C502.005,437.077 550.492,388.621 550.492,329.058 C550.493,269.494 502.006,221.044 442.402,221.044 M442.402,412.401 C396.412,412.401 358.992,375.012 358.992,329.057 C358.992,283.107 396.412,245.718 442.402,245.718 C488.393,245.718 525.81,283.107 525.81,329.057 C525.81,375.011 488.393,412.401 442.402,412.401" fill="#000000" id="path13"/>
    <path d="M72.154,588.432 L72.154,593.372 L43.843,593.372 L43.843,616.089 L75.367,616.089 L75.367,621.027 L38.411,621.027 L38.411,562.755 L74.049,562.755 L74.049,567.694 L43.843,567.694 L43.843,588.432 z" fill="#000000" id="path16"/>
    <path d="M86.642,593.703 C86.642,590.909 86.23,584.978 86.23,583.007 L91.169,583.007 C91.248,585.802 91.334,588.93 91.498,589.667 L91.745,589.667 C93.722,585.47 98.576,582.014 104.75,582.014 C116.599,582.014 119.235,590.082 119.235,598.398 L119.235,621.03 L114.296,621.03 L114.296,598.642 C114.296,592.465 112.57,586.461 104.75,586.461 C97.422,586.461 91.578,591.561 91.578,602.018 L91.578,621.031 L86.641,621.031 L86.641,593.703 z" fill="#000000" id="path17"/>
    <path d="M165.08,615.433 C161.374,619.879 156.52,622.018 151.09,622.018 C139.403,622.018 131.083,613.618 131.083,602.015 C131.083,590.409 139.403,582.012 151.09,582.012 C156.602,582.012 161.542,584.406 165.244,588.603 L161.295,591.56 C158.414,588.437 155.037,586.459 151.09,586.459 C141.788,586.459 136.026,593.453 136.026,602.015 C136.026,610.573 141.789,617.569 151.09,617.569 C155.202,617.569 158.747,615.432 161.295,612.302 L165.08,615.433 z" fill="#000000" id="path19"/>
    <path d="M184.338,632.799 C182.444,637.656 179.314,640.783 173.883,640.783 C172.24,640.783 170.595,640.451 169.027,640.04 L169.521,635.428 C170.921,635.845 172.484,636.342 173.965,636.342 C177.587,636.342 179.155,632.967 180.305,630.005 L183.762,621.189 L168.285,583.003 L173.801,583.003 L186.397,615.021 L198.66,583.003 L203.924,583.003 L184.338,632.799 z" fill="#000000" id="path21"/>
    <path d="M244.423,615.433 C240.72,619.879 235.865,622.018 230.43,622.018 C218.746,622.018 210.429,613.618 210.429,602.015 C210.429,590.409 218.746,582.012 230.43,582.012 C235.945,582.012 240.882,584.406 244.59,588.603 L240.638,591.56 C237.757,588.437 234.38,586.459 230.43,586.459 C221.131,586.459 215.368,593.453 215.368,602.015 C215.368,610.573 221.131,617.569 230.43,617.569 C234.548,617.569 238.084,615.432 240.638,612.302 L244.423,615.433 z" fill="#000000" id="path23"/>
    <path d="M253.804,558.805 L258.743,558.805 L258.743,621.034 L253.804,621.034 z" fill="#000000" id="path25"/>
    <path d="M291.416,582.013 C303.105,582.013 311.419,590.41 311.419,602.016 C311.419,613.621 303.105,622.017 291.416,622.017 C279.728,622.017 271.418,613.621 271.418,602.016 C271.418,590.41 279.728,582.013 291.416,582.013 M291.416,617.57 C300.717,617.57 306.482,610.574 306.482,602.016 C306.482,593.458 300.717,586.46 291.416,586.46 C282.114,586.46 276.352,593.457 276.352,602.016 C276.352,610.574 282.115,617.57 291.416,617.57" fill="#000000" id="path27"/>
    <path d="M322.201,583.006 L327.138,583.006 L327.138,589.667 L327.305,589.667 C330.349,584.404 336.851,582.013 342.529,582.013 C354.219,582.013 362.526,590.41 362.526,602.016 C362.526,613.621 354.219,622.017 342.529,622.017 C336.851,622.017 330.35,619.629 327.305,614.366 L327.138,614.366 L327.138,639.793 L322.201,639.793 L322.201,583.006 z M342.528,617.57 C351.829,617.57 357.595,610.574 357.595,602.016 C357.595,593.458 351.829,586.46 342.528,586.46 C333.559,586.46 326.643,593.457 326.643,602.016 C326.643,610.574 333.559,617.57 342.528,617.57" fill="#000000" id="path29"/>
    <path d="M407.962,613.871 C404.091,619.632 398.251,622.014 391.5,622.014 C379.892,622.014 372.237,613.705 372.237,601.935 C372.237,590.578 380.139,582.013 391.253,582.013 C402.943,582.013 409.112,590.988 409.112,599.799 L409.112,603.253 L377.181,603.253 C377.181,607.364 380.06,617.57 391.585,617.57 C396.602,617.57 401.873,614.939 404.34,610.821 L407.962,613.871 z M404.177,598.805 C404.177,592.055 398.331,586.458 391.01,586.458 C380.226,586.458 377.182,596.827 377.182,598.805 L404.177,598.805 z" fill="#000000" id="path31"/>
    <path d="M454.218,614.363 L454.055,614.363 C451.011,619.63 444.504,622.019 438.826,622.019 C427.136,622.019 418.823,613.622 418.823,602.017 C418.823,590.41 427.136,582.013 438.826,582.013 C444.504,582.013 451.01,584.407 454.055,589.666 L454.218,589.666 L454.218,558.805 L459.156,558.805 L459.156,621.032 L454.218,621.032 L454.218,614.363 z M438.826,586.46 C429.524,586.46 423.759,593.457 423.759,602.017 C423.759,610.574 429.524,617.57 438.826,617.57 C447.796,617.57 454.712,610.574 454.712,602.017 C454.712,593.457 447.796,586.46 438.826,586.46" fill="#000000" id="path33"/>
    <path d="M475.371,564.233 C477.43,564.233 479.071,565.882 479.071,567.941 C479.071,569.997 477.43,571.645 475.371,571.645 C473.312,571.645 471.665,569.997 471.665,567.941 C471.665,565.882 473.312,564.233 475.371,564.233 M472.9,583.004 L477.838,583.004 L477.838,621.031 L472.9,621.031 L472.9,583.004 z" fill="#000000" id="path35"/>
    <path d="M522.203,605.063 C522.203,612.469 522.368,616.666 522.944,621.031 L518.335,621.031 C518.003,619.134 517.841,616.996 517.841,614.86 L517.672,614.86 C514.878,619.711 510.756,622.014 504.341,622.014 C497.834,622.014 490.923,618.806 490.923,610.742 C490.923,599.136 504.51,597.984 511.999,597.984 L517.759,597.984 L517.759,595.68 C517.759,589.093 513.152,586.462 507.058,586.462 C502.615,586.462 498.83,587.859 495.452,590.739 L492.573,587.365 C496.194,583.91 502.118,582.017 507.058,582.017 C516.277,582.017 522.204,586.132 522.204,595.759 L522.204,605.063 z M512.325,601.932 C504.09,601.932 495.863,603.991 495.863,610.491 C495.863,615.184 500.39,617.572 504.509,617.572 C515.045,617.572 517.757,610.821 517.757,604.485 L517.757,601.932 L512.325,601.932 z" fill="#000000" id="path37"/>
    <path d="M576.277,582.013 C587.967,582.013 596.275,590.41 596.275,602.016 C596.275,613.621 587.967,622.017 576.277,622.017 C564.59,622.017 556.274,613.621 556.274,602.016 C556.274,590.41 564.589,582.013 576.277,582.013 M576.277,617.57 C585.579,617.57 591.344,610.574 591.344,602.016 C591.344,593.458 585.579,586.46 576.277,586.46 C566.97,586.46 561.213,593.457 561.213,602.016 C561.212,610.574 566.97,617.57 576.277,617.57" fill="#000000" id="path39"/>
    <path d="M610.93,587.444 L603.022,587.444 L603.022,583.003 L610.93,583.003 L610.93,570.573 C610.93,560.781 617.428,557.811 622.284,557.811 C624.67,557.811 626.482,558.146 627.966,558.804 L626.974,563.084 C625.821,562.509 624.427,562.259 622.531,562.259 C618.005,562.259 615.862,565.553 615.862,572.379 L615.862,583.003 L624.755,583.003 L624.755,587.444 L615.862,587.444 L615.862,621.031 L610.929,621.031 L610.929,587.444 z" fill="#000000" id="path41"/>
    <path d="M656.935,621.027 L656.935,562.755 L662.371,562.755 L662.371,616.089 L689.529,616.089 L689.529,621.027 z" fill="#000000" id="path43"/>
    <path d="M700.804,564.233 C702.857,564.233 704.507,565.882 704.507,567.941 C704.507,569.997 702.857,571.645 700.804,571.645 C698.748,571.645 697.098,569.997 697.098,567.941 C697.098,565.882 698.748,564.233 700.804,564.233 M698.336,583.004 L703.273,583.004 L703.273,621.031 L698.336,621.031 L698.336,583.004 z" fill="#000000" id="path45"/>
    <path d="M720.887,587.444 L712.982,587.444 L712.982,583.003 L720.887,583.003 L720.887,570.573 C720.887,560.781 727.385,557.811 732.244,557.811 C734.627,557.811 736.442,558.146 737.922,558.804 L736.931,563.084 C735.781,562.509 734.384,562.259 732.488,562.259 C727.962,562.259 725.825,565.553 725.825,572.379 L725.825,583.003 L734.712,583.003 L734.712,587.444 L725.825,587.444 L725.825,621.031 L720.887,621.031 L720.887,587.444 z" fill="#000000" id="path47"/>
    <path d="M776.852,613.871 C772.981,619.632 767.139,622.014 760.391,622.014 C748.785,622.014 741.128,613.705 741.128,601.935 C741.128,590.578 749.033,582.013 760.141,582.013 C771.831,582.013 778.006,590.988 778.006,599.799 L778.006,603.253 L746.074,603.253 C746.074,607.364 748.954,617.57 760.474,617.57 C765.49,617.57 770.761,614.939 773.229,610.821 L776.852,613.871 z M773.07,598.805 C773.07,592.055 767.225,586.458 759.898,586.458 C749.12,586.458 746.074,596.827 746.074,598.805 L773.07,598.805 z" fill="#000000" id="path49"/>
  </g>
</svg>
