<?xml version="1.0" encoding="UTF-8"?>
<!DOCTYPE svg PUBLIC "-//W3C//DTD SVG 1.1//EN" "http://www.w3.org/Graphics/SVG/1.1/DTD/svg11.dtd">
<svg version="1.1" xmlns="http://www.w3.org/2000/svg" xmlns:xlink="http://www.w3.org/1999/xlink" x="0" y="0" width="450" height="450" viewBox="0, 0, 450, 450">
  <g id="Layer_1">
    <g>
      <path d="M114.245,147.193 C85.436,151.86 61.15,172.431 52.007,199.812 C48.864,209.289 48.293,213.146 48.293,224.955 C48.293,236.765 48.864,240.622 52.007,250.098 C60.721,276.241 83.102,296.098 110.626,302.05 C118.007,303.622 131.531,303.86 139.293,302.527 C167.959,297.622 191.293,278.098 200.674,251.098 C204.102,241.336 204.769,237.003 204.769,224.955 C204.769,212.908 204.102,208.574 200.674,198.812 C191.674,172.908 169.817,153.812 142.388,147.86 C136.15,146.527 120.769,146.146 114.245,147.193 z" fill="#000000"/>
      <path d="M311.816,147.193 C282.197,152.051 258.245,172.098 249.007,199.812 C245.912,209.193 245.293,213.146 245.293,224.717 C245.245,233.86 245.388,235.908 246.436,240.669 C253.15,272.003 276.436,295.193 308.007,302.05 C312.483,303.003 314.721,303.146 323.531,303.146 C332.293,303.146 334.531,303.003 339.007,302.05 C370.674,295.193 393.721,272.098 400.578,240.336 C401.531,235.955 401.721,233.669 401.721,224.955 C401.721,216.241 401.531,213.955 400.578,209.574 C393.769,177.955 370.531,154.622 339.245,147.955 C332.674,146.527 318.34,146.146 311.816,147.193 z" fill="#000000"/>
    </g>
  </g>
</svg>
