<?xml version="1.0" encoding="UTF-8"?>
<!DOCTYPE svg PUBLIC "-//W3C//DTD SVG 1.1//EN" "http://www.w3.org/Graphics/SVG/1.1/DTD/svg11.dtd">
<svg version="1.1" xmlns="http://www.w3.org/2000/svg" xmlns:xlink="http://www.w3.org/1999/xlink" x="0" y="0" width="350" height="350" viewBox="0, 0, 350, 350">
  <g id="Layer_1">
    <path d="M252.522,95.313 C252.522,84.739 261.634,71.105 271.872,66.802 C275.935,65.1 279.697,63.694 284.332,64.116 C294.104,65.016 301.558,72.082 307.449,79.599 C313.911,87.839 317.687,98.028 317.687,108.532 C317.687,136.763 291.573,159.649 259.362,159.649 C259.362,159.649 247.838,160.613 238.248,154.369 C238.248,154.369 211.599,145.249 198.157,96.052 C213.892,95.989 229.628,95.932 245.349,95.883 C249.97,95.869 254.588,95.855 259.202,95.827 C260.438,95.82 262.049,95.539 263.257,95.82 C268.187,96.924 270.002,103.336 275.078,104.152 C277.819,104.588 279.958,103.878 281.047,101.311 C282.334,98.267 282.532,95.686 279.662,93.964 C275.317,91.355 272.533,94.188 270.401,97.971 L269.678,99.153 M89.748,112.217 C86.935,118.847 98.199,124.233 101.257,116.885 C102.629,113.574 102.01,108.307 97.679,107.928 C94.459,107.632 90.979,111.007 87.682,111.633 C80.888,112.92 73.013,111.963 66.109,112.006 C55.147,112.076 44.185,112.146 33.231,112.217 C33.231,114.185 33.16,116.161 33.188,118.102 C33.977,157.624 78.512,180.553 113.598,168.558 C158.387,153.237 165.897,93.134 122.864,70.001 C91.858,53.33 52.735,69.825 53.032,108.167 L52.722,110.438 M219.517,231.664 C218.392,218.318 220.432,207.455 228.769,196.88 C239.317,183.542 256.853,178.381 273.362,181.292 C308.511,187.493 330.638,224.33 316.688,258.108 C302.008,293.672 255.622,305.33 223.686,286.142 C208.562,277.05 197.552,261.56 195.428,243.877 C195.287,242.731 194.612,232.374 195.372,232.374 C196.7,232.381 198.029,232.395 199.364,232.402 C205.722,232.444 212.092,232.486 218.448,232.528 C222.457,232.563 226.463,232.592 230.465,232.613 C228.91,232.599 236.968,249.874 238.783,251.857 C243.873,257.426 247.964,260.611 255.532,261.11 C264.222,261.666 271.942,261.511 279.113,256.357 C290.448,248.194 296.635,233.766 290.11,220.336 C284.62,209.03 269.368,204.242 258.034,209.164 C246.861,214.008 241.222,232.655 248.557,243.272 C256.057,254.128 272.92,254.466 280.604,243.996 C288.648,233.028 281.378,215.794 267.638,214.838 C251.903,213.256 246.285,238.561 260.804,243.272 C264.334,244.418 268.657,244.383 271.957,242.674 C275.267,240.966 277.538,237.577 278.087,233.555 C277.567,230.356 276.428,225.652 273.757,223.113 C270.922,220.414 266.443,220.055 262.183,222.038 C255.411,225.174 256.613,234.961 262.843,237.633 C269.973,240.692 273.587,234.631 272.448,230.074 C271.548,226.524 267.822,223.753 263.448,226.594 L262.364,227.916 C261.929,229.322 262.134,231.228 263.083,232.353 C264.474,234.005 267.104,234.363 268.531,232.226 C269.944,230.103 266.373,227.501 264.757,230.194 M110.799,228.872 C107.804,228.485 102.757,224.991 106.637,222.263 C110.857,219.289 114.997,224.899 116.017,228.232 C118.942,237.83 99.445,236.902 97.834,226.713 C96.048,219.211 100.463,213.424 106.004,211.596 C110.167,210.218 114.849,211.013 118.957,211.955 C130.178,214.535 132.442,230.932 130.192,240.228 C127.408,251.745 120.235,257.876 109.069,260.238 C93.06,263.628 81.22,255.999 73.759,241.817 C72.36,239.166 68.022,224.942 65.743,224.899 C61.609,224.815 57.474,224.731 53.339,224.653 C45.254,224.499 37.168,224.344 29.083,224.182 C34.088,249.228 45.677,279.23 71.804,288.933 C102.145,300.211 144.128,286.324 153.275,253.116 C160.357,227.417 141.624,194.792 113.288,194.792 C102.067,194.792 91.463,203.377 87.534,213.734 C83.574,224.168 89.811,241.88 102.038,243.996 C111.067,245.557 118.253,243.588 121.36,234.919 C123.624,228.605 121.628,222.572 116.017,218.55 C112.705,216.181 102.679,215.703 102.404,222.755 C102.235,227.03 105.358,231.467 111.404,229.955" fill-opacity="0" stroke="#E0E0E0" stroke-width="8" stroke-linecap="round" stroke-linejoin="round"/>
    <path d="M252.522,95.313 C252.522,84.739 261.634,71.105 271.872,66.802 C275.935,65.1 279.697,63.694 284.332,64.116 C294.104,65.016 301.558,72.082 307.449,79.599 C313.911,87.839 317.687,98.028 317.687,108.532 C317.687,136.763 291.573,159.649 259.362,159.649 C259.362,159.649 247.838,160.613 238.248,154.369 C238.248,154.369 211.599,145.249 198.157,96.052 C213.892,95.989 229.628,95.932 245.349,95.883 C249.97,95.869 254.588,95.855 259.202,95.827 C260.438,95.82 262.049,95.539 263.257,95.82 C268.187,96.924 270.002,103.336 275.078,104.152 C277.819,104.588 279.958,103.878 281.047,101.311 C282.334,98.267 282.532,95.686 279.662,93.964 C275.317,91.355 272.533,94.188 270.401,97.971 L269.678,99.153 M89.748,112.217 C86.935,118.847 98.199,124.233 101.257,116.885 C102.629,113.574 102.01,108.307 97.679,107.928 C94.459,107.632 90.979,111.007 87.682,111.633 C80.888,112.92 73.013,111.963 66.109,112.006 C55.147,112.076 44.185,112.146 33.231,112.217 C33.231,114.185 33.159,116.161 33.188,118.102 C33.977,157.624 78.512,180.553 113.598,168.558 C158.387,153.237 165.897,93.134 122.864,70.001 C91.858,53.33 52.735,69.825 53.032,108.167 L52.722,110.438 M219.517,231.664 C218.392,218.318 220.432,207.455 228.769,196.88 C239.317,183.542 256.853,178.381 273.362,181.292 C308.511,187.493 330.638,224.33 316.688,258.108 C302.008,293.672 255.622,305.33 223.686,286.142 C208.562,277.05 197.552,261.56 195.428,243.877 C195.287,242.731 194.612,232.374 195.372,232.374 C196.7,232.381 198.029,232.395 199.364,232.402 C205.722,232.444 212.092,232.486 218.448,232.528 C222.457,232.563 226.463,232.592 230.465,232.613 C228.91,232.599 236.968,249.874 238.783,251.857 C243.873,257.426 247.964,260.611 255.532,261.11 C264.222,261.666 271.942,261.511 279.113,256.357 C290.448,248.194 296.635,233.766 290.11,220.336 C284.62,209.03 269.368,204.242 258.034,209.164 C246.861,214.008 241.222,232.655 248.557,243.272 C256.057,254.128 272.92,254.466 280.604,243.996 C288.648,233.028 281.378,215.794 267.638,214.838 C251.903,213.256 246.285,238.561 260.804,243.272 C264.334,244.418 268.657,244.383 271.957,242.674 C275.267,240.966 277.538,237.577 278.087,233.555 C277.567,230.356 276.428,225.652 273.757,223.113 C270.922,220.414 266.443,220.055 262.183,222.038 C255.411,225.174 256.613,234.961 262.843,237.633 C269.973,240.692 273.587,234.631 272.448,230.074 C271.548,226.524 267.822,223.753 263.448,226.594 L262.364,227.916 C261.929,229.322 262.134,231.228 263.083,232.353 C264.474,234.005 267.104,234.363 268.531,232.226 C269.944,230.103 266.373,227.501 264.757,230.194 M110.799,228.872 C107.804,228.485 102.757,224.991 106.637,222.263 C110.857,219.289 114.997,224.899 116.017,228.232 C118.942,237.83 99.445,236.902 97.834,226.713 C96.048,219.211 100.463,213.424 106.004,211.596 C110.167,210.218 114.849,211.013 118.957,211.955 C130.178,214.535 132.442,230.932 130.192,240.228 C127.408,251.745 120.235,257.876 109.069,260.238 C93.06,263.628 81.22,255.999 73.758,241.817 C72.36,239.166 68.022,224.942 65.743,224.899 C61.609,224.815 57.474,224.731 53.339,224.653 C45.254,224.499 37.168,224.344 29.083,224.182 C34.088,249.228 45.677,279.23 71.804,288.933 C102.145,300.211 144.128,286.324 153.275,253.116 C160.357,227.417 141.624,194.792 113.288,194.792 C102.067,194.792 91.463,203.377 87.534,213.734 C83.574,224.168 89.811,241.88 102.038,243.996 C111.067,245.557 118.253,243.588 121.36,234.919 C123.624,228.605 121.628,222.572 116.017,218.55 C112.705,216.181 102.679,215.703 102.404,222.755 C102.235,227.03 105.358,231.467 111.404,229.955" fill-opacity="0" stroke="#000000" stroke-width="8" stroke-linecap="round" stroke-linejoin="round"/>
  </g>
</svg>
