<?xml version="1.0" encoding="UTF-8"?>
<!DOCTYPE svg PUBLIC "-//W3C//DTD SVG 1.1//EN" "http://www.w3.org/Graphics/SVG/1.1/DTD/svg11.dtd">
<svg version="1.1" xmlns="http://www.w3.org/2000/svg" xmlns:xlink="http://www.w3.org/1999/xlink" x="0" y="0" width="250" height="250" viewBox="0, 0, 250, 250">
  <g id="Layer_1">
    <path d="M85.057,36.47 C76.867,55.613 72.391,80.661 73.629,101.137 C74.2,110.661 76.772,126.089 78.676,130.756 C79.153,132.089 77.819,132.565 71.343,133.518 C54.867,135.899 38.676,144.661 31.534,155.137 C29.629,157.803 28.391,160.28 28.581,160.47 C28.772,160.661 31.819,159.042 35.153,156.756 C50.772,145.994 69.724,146.089 87.629,156.756 C90.867,158.661 100.772,167.327 109.724,175.899 C118.772,184.47 128.867,193.613 132.295,196.184 C145.724,206.184 159.724,212.946 174.676,216.375 C185.819,218.946 206.295,218.946 215.057,216.28 L221.438,214.375 L220.867,207.232 C219.343,189.803 209.914,174.28 193.248,161.518 C185.152,155.423 163.819,144.851 151.533,140.851 C139.629,137.042 124.295,134.089 108.962,132.661 C102.2,132.089 96.581,131.423 96.391,131.232 C96.105,131.042 96.676,127.994 97.629,124.565 C102.2,106.565 101.914,82.184 96.772,59.708 C94.581,49.994 88.581,31.708 87.533,31.708 C87.343,31.708 86.2,33.899 85.057,36.47 z" fill="#000000"/>
    <path d="M163.819,55.804 C149.629,58.185 137.629,63.994 128.391,73.042 C118.676,82.565 111.248,101.804 111.248,117.327 L111.248,123.042 L118.486,122.375 C137.152,120.565 151.533,114.375 162.676,103.327 C173.629,92.28 179.629,78.851 181.629,61.042 L182.295,54.756 L175.533,54.851 C171.724,54.946 166.486,55.327 163.819,55.804 z" fill="#000000"/>
  </g>
</svg>
