<?xml version="1.0" encoding="UTF-8"?>
<!DOCTYPE svg PUBLIC "-//W3C//DTD SVG 1.1//EN" "http://www.w3.org/Graphics/SVG/1.1/DTD/svg11.dtd">
<svg version="1.1" xmlns="http://www.w3.org/2000/svg" xmlns:xlink="http://www.w3.org/1999/xlink" x="0" y="0" width="400" height="400" viewBox="0, 0, 400, 400">
  <g id="Layer_1">
    <g>
      <path d="M164.578,74.041 C164.578,75.755 169.912,94.517 172.102,100.803 C175.912,111.47 183.055,124.898 187.721,130.136 C189.817,132.612 195.34,137.184 199.817,140.327 C212.864,149.374 231.055,164.231 240.293,173.374 C244.959,177.946 249.15,181.755 249.531,181.755 C252.483,181.755 250.959,166.803 246.864,155.279 C238.959,133.374 224.007,111.47 208.578,99.565 C194.864,88.898 164.578,71.374 164.578,74.041 z" fill="#000000"/>
      <path d="M57.15,106.231 C63.245,120.993 75.15,131.089 117.055,157.279 L124.102,161.66 L111.055,161.755 C98.579,161.85 89.245,162.803 87.912,164.041 C86.864,165.089 91.34,171.279 97.817,177.374 C111.626,190.612 128.959,199.755 154.102,207.184 C156.007,207.755 152.007,208.517 138.864,210.136 C125.626,211.755 120.578,212.993 120.578,214.517 C120.578,216.041 139.531,236.612 146.007,242.041 C153.912,248.803 158.769,251.755 168.102,255.469 C174.959,258.136 175.436,258.231 196.388,258.231 C215.912,258.231 217.816,258.422 218.769,260.041 C220.293,262.898 214.578,271.469 203.626,282.993 C187.626,299.85 170.007,310.041 147.15,315.66 L136.198,318.326 L143.245,320.612 C158.293,325.374 164.197,326.136 184.102,326.231 C204.007,326.231 211.626,325.279 225.626,320.707 C271.055,305.85 306.293,267.66 315.912,222.708 C316.864,218.612 318.864,208.898 320.578,201.089 C323.626,186.612 327.626,175.279 331.721,169.184 C333.054,167.279 336.483,163.85 339.34,161.66 C342.293,159.374 344.483,157.089 344.293,156.422 C343.721,154.517 329.912,151.66 318.483,151.089 C293.435,149.66 275.245,159.184 260.578,181.279 C257.721,185.66 254.388,190.231 253.245,191.469 C249.436,195.755 247.34,194.612 232.674,180.517 C213.531,161.946 202.864,153.565 183.626,142.041 C159.626,127.755 131.15,116.708 99.626,109.374 C90.959,107.374 62.293,102.708 58.579,102.708 L55.721,102.708 L57.15,106.231 z M308.959,163.85 C312.578,166.708 312.578,171.85 308.864,174.708 C301.816,180.231 293.721,170.517 300.007,164.231 C303.055,161.184 305.435,161.089 308.959,163.85 z" fill="#000000"/>
    </g>
  </g>
</svg>
