<?xml version="1.0" standalone="no"?>
<!DOCTYPE svg PUBLIC "-//W3C//DTD SVG 20010904//EN"
 "http://www.w3.org/TR/2001/REC-SVG-20010904/DTD/svg10.dtd">
<svg version="1.0" xmlns="http://www.w3.org/2000/svg"
 width="400.000000pt" height="400.000000pt" viewBox="0 0 400.000000 400.000000"
 preserveAspectRatio="xMidYMid meet">
<metadata>
Created by Potrace Professional 1.1m
</metadata>
<g transform="translate(0.000000,400.000000) rotate(-360.00) scale(0.095238,-0.095238)"
fill="#000000" stroke="none">
<path d="M0 2100 l0 -2100 2100 0 2100 0 0 2100 0 2100 -2100 0 -2100 0 0
-2100z m2208 1239 c47 -12 282 -65 520 -120 239 -54 436 -101 439 -103 3 -3
-4 -20 -14 -38 l-19 -33 -1019 0 -1019 0 -17 36 c-20 42 -30 35 92 63 134 30
765 174 850 195 106 24 87 24 187 0z m929 -462 l-3 -106 -1008 1 c-554 0
-1011 0 -1016 0 -4 0 -7 47 -7 105 l0 105 1018 0 1019 0 -3 -105z m-1789 -231
c6 -32 10 -357 10 -723 0 -566 -2 -666 -15 -674 -18 -12 -146 -13 -164 -2 -9
6 -17 75 -25 213 -15 255 -7 1177 10 1221 12 29 13 29 93 26 l82 -3 9 -58z
m539 55 c8 -5 16 -82 25 -223 16 -277 5 -1218 -15 -1231 -16 -10 -145 -10
-161 0 -19 13 -23 58 -36 430 -14 399 2 1008 26 1024 15 10 145 10 161 0z
m640 0 c25 -16 38 -433 30 -953 -4 -271 -9 -495 -12 -498 -13 -13 -157 -12
-174 1 -16 13 -20 58 -31 408 -14 442 0 1026 25 1042 17 10 146 10 162 0z
m558 -5 c38 -46 40 -1423 2 -1447 -23 -14 -140 -12 -160 3 -33 26 -50 766 -28
1209 8 151 16 235 24 240 20 13 150 9 162 -5z m55 -1588 c0 -48 -4 -68 -14
-68 -7 0 -464 -1 -1015 -1 l-1003 0 -3 68 -3 69 1019 0 1019 0 0 -68z m84
-184 l0 -52 -1087 0 -1087 0 0 52 0 53 1087 0 1087 0 0 -53z"/>
</g>
</svg>
