<?xml version="1.0" encoding="UTF-8"?>
<!DOCTYPE svg PUBLIC "-//W3C//DTD SVG 1.1//EN" "http://www.w3.org/Graphics/SVG/1.1/DTD/svg11.dtd">
<svg version="1.1" xmlns="http://www.w3.org/2000/svg" xmlns:xlink="http://www.w3.org/1999/xlink" x="0" y="0" width="400" height="400" viewBox="0, 0, 400, 400">
  <g id="Layer_1">
    <g>
      <path d="M175.124,13.944 C158.71,17.354 141.82,26.314 129.609,37.971 C123.979,43.363 123.265,43.68 117.239,44.393 C101.697,46.138 84.411,53.354 70.296,63.979 C50.234,79.125 35.406,105.054 32.71,129.715 C32.076,135.265 31.442,136.772 26.525,143.195 C20.102,151.68 13.442,165.08 10.032,176.499 C7.891,183.715 7.653,186.252 7.653,202.508 C7.732,219.16 7.97,221.142 10.508,229.468 C14.155,241.521 19.785,252.781 27.08,262.455 C30.887,267.53 33.107,271.415 33.107,273.159 C33.107,278.076 38.102,293.459 42.622,302.578 C55.389,328.111 78.781,346.666 107.168,353.882 C111.767,355.071 117.001,356.023 118.745,356.023 C121.441,356.023 123.503,357.291 129.688,362.842 C143.803,375.529 161.961,384.252 180.12,387.027 C192.014,388.93 210.807,387.741 221.591,384.49 C237.133,379.891 251.009,372.04 261.635,361.811 C266.313,357.371 267.106,356.974 274.084,356.023 C315.318,350.234 347.274,322.005 357.661,282.278 C358.851,277.6 360.199,275.538 365.194,270.463 C396.674,238.745 401.432,185.063 375.978,147.636 C373.679,144.226 369,138.358 365.591,134.473 C360.437,128.684 359.247,126.702 358.692,122.737 C357.741,116.235 354.093,105.688 349.732,97.045 C338.789,75.239 318.172,57.001 295.811,49.389 C287.327,46.455 276.305,43.997 271.785,43.997 C269.247,43.997 267.503,42.966 263.617,38.922 C252.278,27.345 233.565,17.354 216.675,13.865 C204.86,11.407 186.78,11.486 175.124,13.944 z M210.093,19.019 C218.657,20.367 227.935,23.46 236.657,27.741 C244.031,31.389 254.419,38.446 257.353,41.697 C259.098,43.68 259.018,43.68 251.089,44.314 C242.683,44.948 224.604,50.341 218.261,54.067 L214.851,56.05 L212.234,53.592 C203.512,45.266 187.177,44.948 178.534,53.037 C176.472,55.019 176.393,55.019 169.891,52.006 C161.327,48.12 150.384,45.186 142.137,44.393 C132.543,43.521 132.384,43.363 136.745,39.794 C158.234,22.429 184.56,14.975 210.093,19.019 z M151.653,52.482 C154.904,53.354 161.168,55.415 165.45,57.16 C171.873,59.697 173.142,60.57 172.904,62.314 C172.666,63.979 171.159,64.614 164.102,66.041 C146.34,69.768 129.926,76.191 115.098,85.23 C110.974,87.768 107.485,89.433 107.327,88.957 C106.772,87.451 111.054,75.239 114.384,68.499 C116.049,65.169 119.459,59.618 121.996,56.129 L126.596,49.785 L136.111,50.341 C141.344,50.578 148.322,51.609 151.653,52.482 z M270.12,55.733 C277.335,65.724 287.009,88.402 284.948,90.464 C284.71,90.702 279.556,88.006 273.529,84.437 C258.305,75.398 239.67,68.42 222.225,65.248 C219.767,64.772 217.626,63.9 217.388,63.266 C216.516,60.807 235.705,53.037 247.758,51.054 C250.454,50.578 255.609,50.182 259.335,50.103 L265.996,50.023 L270.12,55.733 z M117.08,51.53 C117.08,51.847 116.049,53.512 114.701,55.336 C109.626,62.076 101.38,81.662 99.952,90.385 C99.635,92.129 98.842,92.288 92.34,92.05 C86.552,91.891 84.093,92.288 80.604,94.032 C75.133,96.649 69.345,103.151 68.552,107.671 C68.155,109.495 67.6,111.001 67.204,111.001 C65.776,111.001 48.411,121.468 44.367,124.719 C41.988,126.702 39.847,128.05 39.609,127.812 C39.371,127.574 40.243,123.213 41.671,118.058 C45.953,102.041 54.12,88.164 66.252,76.27 C78.86,63.9 89.327,57.953 107.089,52.957 C113.908,51.054 117.08,50.578 117.08,51.53 z M287.564,53.512 C311.749,60.49 331.256,76.191 343.071,98.155 C347.036,105.53 352.666,120.755 351.714,121.706 C351.476,121.944 349.177,120.755 346.56,118.931 C341.485,115.442 326.498,108.702 321.423,107.512 C318.807,106.957 317.617,105.768 315.397,101.724 C311.829,95.063 305.327,90.86 297.556,90.226 C292.164,89.75 292.164,89.75 291.053,85.627 C288.278,75.318 282.648,62.79 277.097,54.226 C274.957,51.054 274.957,50.975 276.939,50.975 C277.97,50.975 282.807,52.085 287.564,53.512 z M174.093,73.97 C178.534,84.596 194.71,89.829 205.732,84.2 C210.093,81.979 215.565,76.429 216.595,73.019 C217.388,70.481 217.23,70.481 229.758,73.574 C246.014,77.539 262.983,84.675 273.846,92.129 L278.049,95.063 L275.194,99.028 C263.3,115.442 282.014,136.376 302.155,129.239 C305.168,128.129 308.26,127.019 309.133,126.622 C310.719,125.988 312.701,128.525 318.886,139.468 C325.309,150.807 330.542,165.16 333,178.323 L333.873,183.08 L330.225,184.587 C321.582,188.155 316.111,197.988 318.093,206.314 C319.203,211.309 323.485,216.622 328.639,219.318 C330.78,220.508 332.763,221.538 333,221.697 C333.635,222.014 329.908,236.287 327.371,242.948 C323.961,252.067 318.727,262.296 313.494,269.988 C306.278,280.772 306.674,280.375 303.027,279.107 C301.282,278.472 297.238,277.996 294.146,277.996 C279.001,277.996 268.058,291.159 272.498,304.005 C274.322,309.318 274.639,309.08 259.653,316.455 C247.6,322.322 237.212,325.811 224.287,328.428 L215.961,330.173 L212.789,326.604 C203.432,316.217 186.305,316.217 177.106,326.604 L174.014,330.093 L165.371,328.428 C149.829,325.336 128.657,317.01 117.001,309.318 L113.195,306.781 L113.75,300.596 C114.463,292.983 112.798,288.701 107.248,283.706 C102.411,279.345 96.622,277.6 88.772,278.234 L82.904,278.631 L79.177,273.556 C73.706,266.182 67.521,255.239 64.19,246.834 C60.701,238.19 56.895,224.076 57.688,222.886 C58.005,222.411 59.512,222.014 61.019,222.014 C65.618,222.014 74.023,217.098 76.878,212.737 C80.604,207.107 81.08,198.939 77.908,193.547 C74.578,187.838 68.393,183.794 62.049,183.239 L56.895,182.684 L57.53,177.45 C58.798,166.587 65.063,149.856 72.754,136.931 L77.274,129.318 L82.983,131.301 C93.45,134.79 104.71,131.459 110.578,123.054 C113.274,119.327 113.591,117.979 113.591,112.032 C113.591,106.164 113.274,104.816 110.737,101.565 C108.041,97.997 107.961,97.759 109.785,96.411 C114.622,92.684 130.481,83.882 138.411,80.552 C146.419,77.142 167.195,71.116 171.239,71.037 C172.111,71.037 173.459,72.305 174.093,73.97 z M333,119.01 C337.679,121.23 344.34,125.116 347.829,127.574 L354.093,132.094 L354.093,141.292 C354.093,153.265 352.745,161.274 348.78,173.01 C345.926,181.494 345.37,182.525 342.992,182.763 C340.454,183.08 340.296,182.763 339.106,176.261 C336.252,160.561 329.353,143.512 320.155,129.16 C315.08,121.23 315,120.992 316.269,117.424 C317.538,114.014 317.776,113.856 321.027,114.332 C322.93,114.649 328.322,116.79 333,119.01 z M70.613,121.865 L72.358,125.829 L69.107,130.428 C65.301,136.058 58.164,151.045 55.23,159.768 C54.041,163.257 52.296,170.076 51.345,174.992 C50.393,179.909 49.204,183.873 48.728,183.715 C45.873,182.763 39.53,161.036 38.499,148.428 L37.864,139.865 L41.75,135.821 C43.891,133.6 47.776,130.191 50.472,128.208 C54.992,124.878 66.886,118.058 68.234,117.979 C68.552,117.979 69.582,119.724 70.613,121.865 z M364.877,143.354 C374.234,154.058 382.877,173.486 385.177,188.948 C386.604,198.86 385.89,215.75 383.591,224.393 C380.102,237.873 372.569,252.622 364.639,261.582 L360.595,266.182 L360.437,256.745 C360.199,245.248 358.851,237.001 355.441,226.693 L352.904,218.922 L355.441,216.939 C358.692,214.402 361.705,209.406 362.498,205.124 C363.529,199.415 361.388,193.944 356.155,188.869 L351.476,184.27 L354.252,176.895 C357.899,167.539 359.961,157.627 360.357,147.715 C360.516,143.512 360.912,140.023 361.229,140.023 C361.626,140.023 363.212,141.451 364.877,143.354 z M36.12,170.076 C37.309,174.041 39.292,179.591 40.56,182.446 L42.86,187.6 L40.005,190.772 C34.455,197.036 33.82,205.362 38.578,212.261 L40.957,215.75 L37.547,225.662 C34.058,235.891 32.155,245.486 32.155,252.701 C32.155,255.08 31.759,256.983 31.362,256.983 C30.887,256.983 29.142,254.604 27.398,251.75 C8.129,219.873 8.525,182.605 28.428,151.521 L31.6,146.605 L32.79,154.772 C33.424,159.292 34.931,166.191 36.12,170.076 z M49.283,221.221 C50.076,221.935 51.265,225.265 51.979,228.596 C54.754,242.869 61.97,259.679 71.406,273.794 L76.798,281.882 L73.627,284.974 L70.375,288.146 L64.032,284.895 C55.706,280.772 46.27,273.952 41.75,268.957 C38.42,265.23 38.102,264.516 38.102,258.648 C38.102,255.08 38.816,248.261 39.609,243.345 C41.116,234.464 45.715,219.953 47.063,219.953 C47.38,219.953 48.411,220.508 49.283,221.221 z M349.018,227.406 C352.745,237.477 354.331,248.261 353.934,261.107 C353.617,273.001 353.617,273.159 350.763,275.3 C342.278,281.723 326.895,289.494 319.124,291.318 C316.904,291.794 316.269,291.318 314.287,287.512 L311.987,283.151 L316.904,276.331 C326.419,263.089 333.159,248.578 337.124,232.798 C338.234,228.199 339.423,223.917 339.661,223.204 C339.899,222.569 341.644,222.014 343.547,222.014 C346.798,222.014 347.115,222.252 349.018,227.406 z M47.459,282.358 C50.869,284.816 56.895,288.463 60.86,290.525 C67.997,294.173 68.155,294.331 68.155,298.137 C68.155,302.737 70.375,308.525 73.389,311.855 C78.543,317.327 89.644,320.34 97.256,318.199 C100.825,317.247 100.904,317.247 101.935,320.816 C103.283,325.177 111.054,341.115 114.226,345.794 L116.446,349.124 L112.481,348.49 C84.093,343.573 55.944,320.499 45.239,293.38 C42.701,286.878 40.085,277.996 40.719,277.996 C41.036,277.996 44.049,279.979 47.459,282.358 z M347.829,291.873 C338.075,316.058 319.52,334.455 295.494,344.049 C288.199,346.904 275.591,349.758 274.56,348.807 C274.243,348.49 275.432,346.19 277.097,343.653 C280.507,338.578 286.534,325.97 287.644,321.688 C288.278,319.151 288.675,318.992 293.987,318.992 C304.692,318.992 314.921,311.776 317.221,302.578 C318.252,298.534 318.569,298.217 323.882,296.552 C330.146,294.569 342.04,289.177 346.639,286.243 C348.304,285.133 349.732,284.657 349.97,285.054 C350.128,285.53 349.177,288.622 347.829,291.873 z M115.177,315.503 C129.45,324.225 147.688,331.441 163.785,334.692 C171.159,336.199 172.19,336.675 171.873,338.419 C171.239,342.86 146.974,349.917 132.543,349.996 C124.772,349.996 124.851,350.076 117.873,339.212 C110.023,326.922 104.948,312.014 108.675,312.014 C109.071,312.014 112.005,313.6 115.177,315.503 z M281.3,315.344 C282.886,316.534 282.727,317.247 279.635,324.86 C277.811,329.38 273.688,336.833 270.595,341.512 L264.965,349.996 L259.256,349.996 C252.199,349.996 243.794,348.569 235.071,345.873 C227.38,343.494 217.864,338.816 217.943,337.468 C217.943,336.913 222.225,335.565 227.3,334.455 C242.049,331.203 250.692,328.111 264.648,320.895 C271.785,317.247 278.049,314.155 278.604,314.155 C279.159,314.076 280.349,314.631 281.3,315.344 z M238.957,353.565 C244.19,354.913 250.058,356.023 252.199,356.023 C254.261,356.023 256.243,356.419 256.56,356.895 C257.591,358.481 245.935,366.807 235.626,371.961 C221.353,379.018 210.886,381.476 194.631,381.397 C184.64,381.318 179.644,380.842 173.142,379.098 C162.516,376.402 146.499,368.551 138.728,362.366 C132.226,357.133 132.543,356.181 140.631,356.023 C145.785,355.943 158.393,352.772 166.481,349.521 C169.891,348.093 173.062,346.983 173.459,346.983 C173.855,346.983 175.758,348.728 177.662,350.948 C182.578,356.34 188.208,358.322 197.01,357.847 C202.798,357.529 204.78,356.895 208.349,354.437 C210.648,352.772 213.503,349.996 214.613,348.331 L216.595,345.318 L223.098,348.252 C226.666,349.917 233.802,352.296 238.957,353.565 z" fill="#000000"/>
      <path d="M93.133,201.001 L93.133,230.023 L96.622,230.023 L100.111,230.023 L100.111,201.001 L100.111,171.979 L96.622,171.979 L93.133,171.979 L93.133,201.001 z" fill="#000000"/>
      <path d="M136.111,201.08 L136.111,230.102 L139.838,229.785 L143.644,229.468 L143.882,217.812 L144.199,206.155 L155.935,205.838 C169.098,205.362 172.666,204.094 175.996,198.701 C180.199,191.961 179.644,182.605 174.728,177.133 C170.842,172.772 167.274,171.979 151.177,171.979 L136.111,171.979 L136.111,201.08 z M168.067,180.939 C172.587,185.459 171.873,193.944 166.798,197.036 C164.261,198.622 161.803,198.939 153.873,199.019 L144.12,199.019 L144.12,188.948 L144.12,178.957 L155.142,178.957 C164.736,178.957 166.402,179.195 168.067,180.939 z" fill="#000000"/>
      <path d="M211.362,200.763 L211.6,229.468 L215.327,229.785 L219.054,230.102 L219.371,208.138 L219.609,186.173 L233.644,207.82 L247.679,229.468 L251.644,229.468 L255.609,229.468 L255.846,200.763 L256.164,171.979 L252.12,171.979 L248.155,171.979 L247.917,193.627 L247.6,215.353 L233.723,193.627 L219.846,171.979 L215.485,171.979 L211.124,171.979 L211.362,200.763 z" fill="#000000"/>
      <path d="M292.322,200.763 L292.639,229.468 L296.366,229.785 L300.093,230.102 L300.093,201.08 L300.093,171.979 L296.128,171.979 L292.084,171.979 L292.322,200.763 z" fill="#000000"/>
    </g>
  </g>
</svg>
