<?xml version="1.0" standalone="no"?>
<!DOCTYPE svg PUBLIC "-//W3C//DTD SVG 20010904//EN"
 "http://www.w3.org/TR/2001/REC-SVG-20010904/DTD/svg10.dtd">
<svg version="1.0" xmlns="http://www.w3.org/2000/svg"
 width="400.000000pt" height="400.000000pt" viewBox="0 0 400.000000 400.000000"
 preserveAspectRatio="xMidYMid meet">
<metadata>
Created by Potrace Professional 1.1m
</metadata>
<g transform="translate(0.000000,400.000000) rotate(-360.00) scale(0.095238,-0.095238)"
fill="#000000" stroke="none">
<path d="M0 2100 l0 -2100 2100 0 2100 0 0 2100 0 2100 -2100 0 -2100 0 0
-2100z m1225 1402 c28 -9 85 -37 125 -63 40 -26 85 -47 100 -47 38 -1 80 35
88 74 9 37 28 35 41 -4 21 -58 -34 -164 -101 -199 -36 -19 -39 -24 -39 -65 0
-209 -229 -341 -373 -215 -46 40 -66 118 -48 185 11 43 27 64 40 51 3 -3 10
-33 14 -66 7 -49 15 -66 41 -90 86 -77 220 8 220 139 1 58 -34 130 -77 162
-66 50 -180 67 -263 39 -54 -19 -127 -87 -162 -153 -25 -47 -28 -64 -28 -163
0 -101 3 -115 31 -171 35 -68 103 -137 162 -162 47 -21 164 -23 243 -3 32 7
119 38 194 69 75 30 157 61 181 68 25 7 45 18 45 23 0 5 -11 24 -25 43 -28 37
-48 100 -48 151 -1 41 16 54 26 22 7 -23 23 -39 38 -40 4 0 19 26 35 58 21 42
40 64 73 84 83 48 108 29 55 -41 -39 -50 -60 -123 -52 -171 8 -43 53 -86 108
-102 45 -13 47 -16 47 -53 0 -36 -3 -41 -36 -52 -26 -8 -48 -27 -71 -62 -45
-68 -61 -148 -48 -252 5 -46 5 -85 0 -88 -29 -18 -91 90 -91 158 0 52 -12 67
-32 43 -36 -44 -43 15 -9 82 12 24 34 60 49 80 l26 36 -30 -8 c-132 -33 -278
-121 -371 -223 l-62 -69 -38 14 c-46 17 -47 28 -6 67 17 17 32 33 32 37 0 3
-36 4 -79 2 -191 -10 -357 95 -428 271 -19 49 -23 79 -23 189 -1 122 1 136 29
194 16 34 41 78 55 97 34 45 112 98 178 121 65 22 193 24 264 3z m1342 -10 c0
-24 -14 -32 -93 -53 -47 -13 -72 -28 -110 -66 -98 -99 -90 -7 -97 -1079 -7
-1080 -4 -1045 -99 -1242 -90 -186 -253 -315 -440 -349 -94 -17 -380 -8 -400
13 -8 8 -26 54 -40 103 -14 49 -40 135 -57 191 l-31 102 62 -54 c201 -179 235
-197 366 -197 76 0 98 4 144 27 65 32 122 94 156 169 51 115 54 166 68 1174
14 1064 17 1015 -63 1116 -35 44 -114 97 -145 97 -5 0 -26 5 -48 11 -37 10
-52 36 -32 56 4 4 199 5 433 4 410 -3 426 -4 426 -23z m726 -32 c157 -32 165
-32 222 -6 26 12 45 16 45 9 0 -25 -46 -89 -80 -113 -20 -13 -35 -28 -33 -31
85 -153 108 -282 76 -418 -23 -99 -52 -151 -132 -238 -101 -111 -106 -148 -35
-227 39 -43 111 -74 173 -73 16 0 32 -6 36 -12 10 -15 -25 -52 -67 -69 l-35
-15 21 -23 c84 -90 85 -274 1 -334 -31 -22 -104 -40 -104 -25 0 5 19 26 43 48
47 43 49 65 7 70 -26 4 -27 6 -22 60 7 65 0 102 -24 126 -24 24 -35 10 -35
-41 0 -36 -7 -53 -31 -78 -17 -18 -35 -33 -40 -33 -5 0 -10 44 -9 97 0 94 -1
101 -44 189 -50 103 -57 155 -23 184 11 10 21 28 21 40 0 21 -9 24 -91 34
-137 18 -195 59 -257 181 -19 38 -24 66 -25 147 -2 109 -15 142 -64 168 -14 7
-24 19 -22 25 5 16 75 20 101 6 19 -10 28 -7 56 17 49 41 93 57 161 57 48 0
69 -6 100 -28 40 -28 83 -98 83 -137 0 -80 -48 -150 -102 -150 -53 0 -59 19
-19 57 40 38 46 72 21 120 -18 34 -35 43 -86 43 -87 0 -140 -67 -140 -178 0
-108 34 -166 121 -207 133 -62 277 4 349 162 20 45 25 72 25 143 -1 227 -143
374 -363 374 -145 0 -288 -66 -390 -182 -46 -52 -122 -192 -136 -251 -7 -27
-5 -29 26 -29 39 0 69 -14 108 -50 44 -41 38 -58 -16 -50 -24 3 -74 -1 -111
-9 -63 -13 -69 -13 -108 8 -22 12 -40 30 -40 39 -1 33 63 202 107 284 93 175
271 306 460 338 75 12 199 5 321 -19z m-858 -714 c32 -19 81 -59 109 -87 51
-52 51 -52 43 -106 l-7 -55 -75 73 c-41 39 -90 80 -108 89 -32 17 -34 22 -34
70 0 29 2 53 6 53 4 0 33 -17 66 -37z m319 -163 c4 -55 12 -95 24 -113 l18
-28 18 54 c29 89 107 175 91 100 -4 -16 -10 -71 -13 -123 -8 -104 4 -167 38
-207 l21 -24 29 37 c57 72 132 147 140 139 5 -5 -9 -58 -30 -119 -39 -109 -39
-111 -39 -279 -1 -94 -2 -169 -3 -168 -1 1 -25 37 -55 80 -29 43 -79 112 -111
152 -43 55 -64 94 -82 152 -32 104 -55 113 -46 17 8 -86 33 -144 99 -229 67
-88 140 -211 177 -298 16 -40 31 -74 32 -76 1 -2 22 18 46 44 145 157 360 127
415 -59 28 -96 -9 -203 -89 -257 -36 -24 -89 -31 -100 -14 -3 6 11 18 31 28
37 17 79 60 79 80 0 6 -14 7 -31 3 -40 -8 -40 3 -5 55 37 53 30 111 -16 153
-55 49 -140 34 -210 -36 -47 -47 -70 -101 -96 -230 -30 -154 -66 -225 -215
-434 -53 -75 -45 -147 21 -183 l32 -18 -35 -3 c-45 -4 -39 -23 17 -49 24 -12
44 -25 44 -29 1 -14 -95 -8 -130 8 -38 18 -64 57 -74 112 l-8 39 -94 -79 c-94
-78 -180 -130 -193 -117 -4 4 15 32 41 62 27 31 49 59 49 63 0 5 -20 1 -45 -8
-24 -9 -77 -16 -116 -16 -60 0 -81 6 -125 31 -30 16 -60 40 -68 52 -15 22 -14
22 73 20 63 -1 94 3 107 13 16 14 15 18 -20 53 -20 21 -37 42 -37 46 0 4 40 4
88 0 121 -9 134 -3 86 42 -50 47 -48 58 10 52 26 -3 47 -3 47 0 0 2 -10 27
-22 54 -12 27 -19 52 -16 55 2 3 27 -8 54 -23 42 -25 56 -28 113 -24 42 4 86
16 122 34 30 16 58 26 60 24 9 -9 -199 -197 -281 -255 -80 -57 -99 -78 -68
-78 26 0 133 61 200 115 239 190 333 411 274 641 -66 254 -275 399 -470 326
-67 -26 -81 -27 -81 -5 0 27 37 72 94 116 l54 41 -30 12 c-17 8 -50 11 -79 7
-60 -7 -66 8 -17 38 35 21 131 58 178 68 l28 6 5 144 c7 173 39 297 75 297 10
0 16 -24 20 -84z m-311 -43 c27 -22 33 -37 39 -91 4 -35 14 -89 21 -118 l14
-53 -42 -21 c-24 -11 -44 -20 -45 -20 -9 0 -39 169 -44 250 -6 109 -7 108 57
53z m-1636 -26 c12 -15 25 -44 29 -63 3 -20 8 -36 9 -36 2 0 24 11 49 25 56
32 155 51 213 42 97 -16 198 -82 248 -162 36 -58 82 -54 177 16 42 31 101 35
149 10 40 -21 44 -63 4 -53 -49 13 -78 -3 -112 -63 -17 -31 -42 -64 -54 -72
-28 -20 -71 -20 -97 -1 -29 23 -31 22 -45 -36 -30 -117 -137 -198 -243 -186
-98 12 -166 64 -190 144 -13 41 -6 95 11 95 6 0 21 -23 35 -50 35 -72 82 -101
152 -95 40 3 63 12 83 30 72 67 75 181 5 255 -104 110 -285 86 -377 -50 -43
-64 -59 -120 -59 -206 -1 -89 26 -165 79 -225 59 -67 114 -94 193 -94 122 0
198 41 373 204 123 114 195 170 262 204 55 28 151 58 186 58 21 0 24 -5 24
-46 l0 -47 -55 -18 c-77 -24 -144 -64 -157 -94 -16 -36 -2 -91 33 -128 18 -17
28 -35 25 -38 -4 -4 -26 -7 -49 -7 -35 0 -48 7 -89 47 -26 26 -49 48 -51 48
-3 0 -41 -36 -86 -80 -242 -239 -470 -282 -650 -125 -148 130 -183 369 -91
621 29 80 37 114 33 153 -5 57 3 62 33 23z m323 -204 c8 -8 1 -39 -20 -100
-34 -96 -43 -100 -76 -35 -20 37 -20 76 1 115 12 24 22 31 50 31 19 0 39 -5
45 -11z m-101 -461 c0 -43 -10 -46 -61 -16 -46 28 -51 41 -38 108 l7 32 46
-46 c34 -34 46 -54 46 -78z m1668 18 c26 -16 48 -55 40 -69 -4 -7 -21 -5 -46
3 -22 8 -54 15 -70 15 -43 1 -118 -46 -140 -87 -40 -78 -5 -199 71 -240 44
-25 117 -21 161 7 l29 19 -52 54 c-62 65 -117 136 -117 152 0 16 46 14 86 -3
19 -8 65 -47 103 -87 37 -39 89 -89 114 -111 42 -36 45 -42 40 -77 -8 -50 -12
-53 -41 -32 -13 9 -35 25 -48 34 -23 17 -26 16 -53 -3 -74 -55 -132 -68 -212
-46 -50 14 -110 66 -144 124 -25 42 -28 58 -27 138 1 62 -3 101 -15 125 -9 19
-14 36 -12 38 2 3 19 -2 37 -11 31 -15 34 -15 63 12 67 64 171 84 233 45z
m-1240 -237 c6 -16 14 -37 17 -47 9 -27 22 -23 57 19 19 23 34 33 38 26 7 -10
-18 -169 -32 -205 -4 -9 20 -2 66 21 145 73 248 74 168 1 -36 -34 -49 -59 -30
-59 5 0 32 7 61 16 66 20 88 20 88 -1 0 -28 -108 -124 -182 -163 -39 -20 -70
-39 -70 -43 0 -5 12 -11 26 -14 90 -18 86 -16 65 -31 -39 -29 -188 -31 -241
-4 -15 8 -18 5 -19 -20 -2 -62 -51 -148 -51 -88 0 39 -14 55 -91 107 -65 44
-98 77 -98 97 0 3 22 0 49 -5 101 -20 290 10 350 55 39 29 17 35 -57 17 -126
-32 -313 -18 -425 31 -49 22 -55 22 -48 7 34 -82 47 -126 53 -175 14 -116 -49
-297 -133 -382 -34 -34 -58 -45 -49 -21 2 7 8 25 13 40 l8 26 -25 -23 c-33
-29 -129 -88 -145 -88 -17 1 -14 29 6 59 20 31 22 28 -41 44 -60 15 -128 57
-145 87 -9 18 -7 23 22 39 18 10 47 27 65 38 l34 20 -39 15 c-54 22 -52 45 4
45 91 0 174 73 207 183 l19 64 8 -55 c17 -121 -38 -243 -138 -302 -68 -40 -74
-46 -56 -58 26 -16 106 18 154 64 115 113 125 262 35 502 -23 60 -40 111 -39
112 2 2 24 -2 49 -8 30 -8 61 -27 91 -57 85 -85 233 -102 305 -34 24 22 34 45
56 132 14 52 25 57 40 16z m1803 -261 c14 -5 12 -10 -10 -31 -15 -13 -26 -29
-26 -34 0 -6 34 -27 76 -47 102 -48 179 -125 201 -199 20 -67 21 -96 1 -161
-41 -138 -184 -210 -299 -151 -50 25 -93 26 -124 4 -22 -15 -23 -15 -23 9 0
13 6 33 14 44 10 14 12 40 9 91 -3 45 0 83 8 103 35 86 140 114 200 54 30 -30
38 -64 25 -100 -9 -21 -36 -22 -36 0 0 18 -46 68 -63 68 -6 0 -23 -12 -37 -26
-33 -33 -35 -96 -5 -135 32 -41 105 -65 150 -50 37 12 80 51 101 92 20 40 14
118 -14 166 -33 56 -80 91 -190 143 -49 23 -89 43 -89 45 0 23 29 79 51 98 28
24 50 29 80 17z"/>
</g>
</svg>
