<?xml version="1.0" encoding="UTF-8"?>
<!DOCTYPE svg PUBLIC "-//W3C//DTD SVG 1.1//EN" "http://www.w3.org/Graphics/SVG/1.1/DTD/svg11.dtd">
<svg version="1.1" xmlns="http://www.w3.org/2000/svg" xmlns:xlink="http://www.w3.org/1999/xlink" x="0" y="0" width="150" height="150" viewBox="0, 0, 150, 150">
  <g id="Layer_1">
    <g>
      <path d="M100.394,83.138 L113.067,70.463 C122.312,61.22 122.312,46.177 113.067,36.934 C103.823,27.688 88.781,27.688 79.537,36.934 L61.248,55.223 C52.003,64.466 52.003,79.509 61.248,88.752 C62.613,90.118 64.107,91.276 65.688,92.238 L75.479,82.446 C73.614,82 71.845,81.059 70.393,79.608 C66.191,75.406 66.191,68.568 70.393,64.367 L88.682,46.078 C92.884,41.876 99.722,41.876 103.923,46.078 C108.125,50.28 108.125,57.117 103.923,61.319 L98.55,66.693 C100.764,71.904 101.376,77.635 100.394,83.138 z" fill="#000000"/>
      <path d="M49.607,66.862 L36.934,79.536 C27.688,88.78 27.688,103.822 36.934,113.066 C46.177,122.311 61.22,122.311 70.464,113.066 L88.752,94.777 C97.997,85.533 97.996,70.491 88.752,61.248 C87.388,59.882 85.894,58.724 84.313,57.762 L74.522,67.554 C76.386,68.001 78.155,68.94 79.608,70.392 C83.81,74.594 83.81,81.431 79.608,85.633 L61.318,103.922 C57.116,108.124 50.279,108.124 46.077,103.922 C41.875,99.72 41.875,92.883 46.077,88.681 L51.451,83.308 C49.236,78.097 48.624,72.365 49.607,66.862 z" fill="#000000"/>
    </g>
  </g>
</svg>
