<svg viewBox="0 0 534 72" fill="none" xmlns="http://www.w3.org/2000/svg">
<g clip-path="url(#clip0_302_60)">
<path d="M120 13.81C119.884 13.8128 119.771 13.8492 119.675 13.9149C119.579 13.9806 119.504 14.0727 119.46 14.18L113.14 31.34L114.14 31.73L116.44 25.5L116.5 25.34H123.5L123.56 25.5L125.9 31.73L126.9 31.33L120.45 14.18C120.416 14.083 120.356 13.9971 120.277 13.9319C120.197 13.8666 120.102 13.8244 120 13.81ZM123.09 24.22H117L117.12 23.88L119.8 16.62L120 16L120.24 16.63L123 23.88L123.09 24.22Z" fill="white" stroke="white" stroke-miterlimit="10"/>
<path d="M133.32 15.16H138.81H139.06V15.41V31.74H140.18V15.41V15.16H140.43H145.87V14.04H133.32V15.16Z" fill="white" stroke="white" stroke-miterlimit="10"/>
<path d="M95.74 42.18H90.07C89.9205 42.18 89.7771 42.2386 89.6704 42.3434C89.5638 42.4481 89.5026 42.5906 89.5 42.74V59.66C89.5026 59.8094 89.5638 59.9519 89.6704 60.0566C89.7771 60.1613 89.9205 60.22 90.07 60.22H95.74C100.6 60.22 103.87 55.37 103.87 50.83C103.87 46.67 100.76 42.18 95.74 42.18ZM95.74 59.1H90.63V43.3H95.74C100.07 43.3 102.74 47.21 102.74 50.83C102.74 54.45 100.31 59.1 95.74 59.1Z" fill="white" stroke="white" stroke-miterlimit="10"/>
<path d="M265.91 42.62C267.162 42.5833 268.389 42.9818 269.381 43.7475C270.373 44.5133 271.068 45.599 271.35 46.82L272.46 46.62C272.126 45.1422 271.291 43.8253 270.098 42.8922C268.904 41.9592 267.425 41.4673 265.91 41.5C262.16 41.5 257.69 43.2 257.69 51.33C257.69 57.44 261.74 60.22 265.5 60.22C267.018 60.309 268.523 59.8893 269.777 59.0272C271.03 58.1651 271.96 56.9099 272.42 55.46L271.34 55.15C270.958 56.3764 270.174 57.4383 269.115 58.1641C268.055 58.8899 266.781 59.2373 265.5 59.15C262.18 59.15 258.82 56.75 258.82 51.38C258.82 45.47 261.14 42.62 265.91 42.62Z" fill="white" stroke="white" stroke-miterlimit="10"/>
<path d="M386 42.62C387.251 42.5838 388.476 42.9826 389.467 43.7484C390.457 44.5143 391.151 45.5998 391.43 46.82L392.54 46.62C392.208 45.143 391.376 43.8263 390.184 42.8931C388.992 41.96 387.514 41.4678 386 41.5C382.25 41.5 377.78 43.2 377.78 51.33C377.78 57.44 381.83 60.22 385.59 60.22C387.108 60.3072 388.612 59.8868 389.865 59.025C391.118 58.1632 392.049 56.909 392.51 55.46L391.43 55.15C391.047 56.3754 390.262 57.4363 389.203 58.1618C388.144 58.8874 386.871 59.2355 385.59 59.15C382.26 59.15 378.9 56.75 378.9 51.38C378.9 45.47 381.22 42.62 386 42.62Z" fill="white" stroke="white" stroke-miterlimit="10"/>
<path d="M290.38 41.5C286.63 41.5 282.16 43.2 282.16 51.33C282.16 57.44 286.16 60.22 289.97 60.22C293.55 60.22 297.82 57.9 298.08 51.36C298.21 49.9724 298.059 48.5728 297.636 47.2447C297.214 45.9167 296.528 44.6873 295.62 43.63C294.943 42.93 294.127 42.3789 293.225 42.0122C292.322 41.6454 291.353 41.471 290.38 41.5ZM297 51.31C296.77 57.05 293.24 59.1 290 59.1C286.76 59.1 283.32 56.7 283.32 51.33C283.32 45.47 285.64 42.62 290.41 42.62C291.232 42.5917 292.052 42.7364 292.815 43.0448C293.578 43.3531 294.268 43.8182 294.84 44.41C295.644 45.3568 296.249 46.4554 296.62 47.6407C296.991 48.826 297.12 50.0738 297 51.31Z" fill="white" stroke="white" stroke-miterlimit="10"/>
<path d="M450.54 41.5C446.79 41.5 442.32 43.2 442.32 51.33C442.32 57.44 446.32 60.22 450.13 60.22C453.7 60.22 457.97 57.9 458.24 51.36C458.368 49.9725 458.216 48.5735 457.793 47.2458C457.371 45.9181 456.686 44.6885 455.78 43.63C455.101 42.9329 454.284 42.3838 453.383 42.0173C452.481 41.6507 451.513 41.4746 450.54 41.5ZM457.11 51.31C456.88 57.05 453.35 59.1 450.11 59.1C446.87 59.1 443.42 56.7 443.42 51.33C443.42 45.47 445.74 42.62 450.52 42.62C451.351 42.5846 452.18 42.7258 452.952 43.0344C453.724 43.3429 454.422 43.8118 455 44.41C455.795 45.3607 456.392 46.4611 456.754 47.6463C457.116 48.8314 457.237 50.0772 457.11 51.31Z" fill="white" stroke="white" stroke-miterlimit="10"/>
<path d="M117.69 43.08H116.57V60.23H117.69V43.08Z" fill="white" stroke="white" stroke-miterlimit="10"/>
<path d="M159.8 43.08H158.68V60.23H159.8V43.08Z" fill="white" stroke="white" stroke-miterlimit="10"/>
<path d="M429.08 43.08H427.96V60.23H429.08V43.08Z" fill="white" stroke="white" stroke-miterlimit="10"/>
<path d="M144.76 50.56H138.44V51.69H144.2V51.94C144.1 55.28 143.34 59.1 138.27 59.1C132.2 59.1 131.53 53.57 131.52 51.2C131.52 49.43 131.8 46.2 133.74 44.2C134.336 43.636 135.041 43.1989 135.811 42.9152C136.581 42.6316 137.401 42.5073 138.22 42.55C142.92 42.55 143.86 45.42 144.04 46.3L145.16 46.21C144.96 45.21 143.85 41.42 138.22 41.42C137.25 41.3781 136.282 41.5338 135.375 41.8776C134.467 42.2214 133.639 42.7462 132.94 43.42C130.83 45.54 130.39 48.81 130.4 51.18C130.4 55.54 132.49 60.18 138.27 60.18C139.313 60.2589 140.358 60.0803 141.316 59.6601C142.273 59.2398 143.112 58.5908 143.76 57.77L144.21 57.15V59.37H145.34V51V50.89C145.29 50.781 145.208 50.6905 145.103 50.6312C144.999 50.572 144.879 50.5471 144.76 50.56Z" fill="white" stroke="white" stroke-miterlimit="10"/>
<path d="M173.04 43.65H178.53H178.78V43.9V60.22H179.91V43.9V43.65H180.16H185.59V42.52H173.04V43.65Z" fill="white" stroke="white" stroke-miterlimit="10"/>
<path d="M402.67 43.65H408.16H408.41V43.9V60.22H409.53V43.9V43.65H409.78H415.22V42.52H402.67V43.65Z" fill="white" stroke="white" stroke-miterlimit="10"/>
<path d="M202.26 42.24C202.144 42.2393 202.031 42.2733 201.935 42.3374C201.839 42.4015 201.764 42.493 201.72 42.6L195.41 59.76L196.46 60.15L198.75 53.92L198.81 53.76H205.81L205.87 53.92L208.22 60.15L209.22 59.76L202.78 42.6C202.738 42.4954 202.667 42.4053 202.574 42.3413C202.482 42.2772 202.372 42.242 202.26 42.24ZM205.35 52.64H199.23L199.35 52.3L202 45L202.24 44.37L202.47 45L205.2 52.26L205.35 52.64Z" fill="white" stroke="white" stroke-miterlimit="10"/>
<path d="M311.79 59.1V42.48H310.66V59.66C310.66 59.8085 310.719 59.951 310.824 60.056C310.929 60.161 311.071 60.22 311.22 60.22H320.22V59.1H311.74H311.79Z" fill="white" stroke="white" stroke-miterlimit="10"/>
<path d="M222.28 59.1V42.48H221.15V59.66C221.15 59.8085 221.209 59.951 221.314 60.056C221.419 60.161 221.561 60.22 221.71 60.22H230.71V59.1H222.23H222.28Z" fill="white" stroke="white" stroke-miterlimit="10"/>
<path d="M333.77 59.1V42.48H332.65V59.66C332.65 59.8085 332.709 59.951 332.814 60.056C332.919 60.161 333.061 60.22 333.21 60.22H342.26V59.1H333.77Z" fill="white" stroke="white" stroke-miterlimit="10"/>
<path d="M357.18 59.1V51.1H365.56V50H357.18V43.05H366V41.93H356.59C356.442 41.93 356.299 41.989 356.194 42.094C356.089 42.199 356.03 42.3415 356.03 42.49V59.66C356.03 59.8085 356.089 59.951 356.194 60.056C356.299 60.161 356.442 60.22 356.59 60.22H366.28V59.1H357.15H357.18Z" fill="white" stroke="white" stroke-miterlimit="10"/>
<path d="M483.38 57.2V58L482.93 57.39L471.93 42.45C471.879 42.3785 471.811 42.3203 471.733 42.2803C471.655 42.2402 471.568 42.2196 471.48 42.22C471.424 42.2097 471.366 42.2097 471.31 42.22C471.196 42.2545 471.097 42.3247 471.027 42.4202C470.957 42.5158 470.919 42.6314 470.92 42.75V59.41H472V44.41L472.45 45.02L483.45 59.96C483.504 60.028 483.572 60.083 483.65 60.1211C483.728 60.1592 483.813 60.1793 483.9 60.18H484.08C484.193 60.141 484.29 60.0682 484.36 59.9716C484.43 59.8749 484.468 59.7592 484.47 59.64V43H483.34L483.38 57.2Z" fill="white" stroke="white" stroke-miterlimit="10"/>
<path d="M503.53 49.72C499.29 48.72 498.93 47.25 498.92 46V45.77C498.916 45.4112 498.983 45.0552 499.117 44.7224C499.251 44.3895 499.449 44.0862 499.7 43.83C500.201 43.3979 500.782 43.0694 501.41 42.8634C502.038 42.6574 502.701 42.5781 503.36 42.63C506.9 42.63 507.7 45.03 507.88 45.85L509 45.74C508.73 44.15 507.29 41.5 503.36 41.5C502.55 41.4367 501.736 41.5418 500.968 41.8085C500.2 42.0753 499.496 42.498 498.9 43.05C498.543 43.4161 498.262 43.8494 498.073 44.3249C497.884 44.8003 497.791 45.3085 497.8 45.82V46C497.8 47.72 498.48 49.64 503.27 50.81C508.06 51.98 508.17 53.76 508.19 55.3C508.19 56.68 507.6 59.02 503.26 59.1H503.14C500.21 59.1 499.05 58.21 498.14 55.17L497.06 55.49C498 58.49 499.33 60.22 503.06 60.22H503.29C507.79 60.14 509.36 57.62 509.29 55.28C509.27 52.72 508.29 50.89 503.53 49.72Z" fill="white" stroke="white" stroke-miterlimit="10"/>
<path d="M503.25 58.85H502.66H503.13H503.25Z" fill="white" stroke="white" stroke-miterlimit="10"/>
<path d="M507.66 46.13L508.47 46.05L507.66 46.13Z" fill="white" stroke="white" stroke-miterlimit="10"/>
<path d="M89.63 17.43V16.71L90.07 17.27L102 32.35C102.072 32.441 102.17 32.5076 102.281 32.5406C102.392 32.5735 102.511 32.5711 102.62 32.5338C102.73 32.4965 102.825 32.4261 102.893 32.3323C102.961 32.2385 102.999 32.1259 103 32.01V15.33H101.87V30.38L101.43 29.82L89.51 14.74C89.4562 14.672 89.3878 14.617 89.31 14.5789C89.2321 14.5408 89.1467 14.5207 89.06 14.52C89.0004 14.5105 88.9396 14.5105 88.88 14.52C88.7708 14.5601 88.6762 14.632 88.6085 14.7265C88.5407 14.821 88.5029 14.9337 88.5 15.05V31.76H89.63V17.43Z" fill="white" stroke="white" stroke-miterlimit="10"/>
<path d="M384.49 31H373.9V14.89H372.77V31.56C372.773 31.7094 372.834 31.8519 372.94 31.9566C373.047 32.0613 373.191 32.12 373.34 32.12H384.49V31Z" fill="white" stroke="white" stroke-miterlimit="10"/>
<path d="M394.81 14.97H393.69V32.12H394.81V14.97Z" fill="white" stroke="white" stroke-miterlimit="10"/>
<path d="M302.65 14.91H301.53V32.06H302.65V14.91Z" fill="white" stroke="white" stroke-miterlimit="10"/>
<path d="M225.15 14.71C225.034 14.7093 224.921 14.7433 224.825 14.8074C224.729 14.8716 224.654 14.963 224.61 15.07L218.29 32.23L219.35 32.62L221.64 26.4L221.7 26.23H228.7L228.76 26.39L231.1 32.62L232.15 32.23L225.7 15.07C225.659 14.9588 225.584 14.8637 225.485 14.7988C225.386 14.7339 225.268 14.7028 225.15 14.71ZM228.24 25.11H222.11L222.24 24.77L224.91 17.51L225.14 16.88L225.38 17.51L228.11 24.77L228.24 25.11Z" fill="white" stroke="white" stroke-miterlimit="10"/>
<path d="M458.44 14.13C458.324 14.1315 458.21 14.1674 458.114 14.2332C458.018 14.2991 457.944 14.3919 457.9 14.5L451.58 31.65L452.63 32.04L454.93 25.82L454.99 25.66H461.99L462.05 25.82L464.39 32.05L465.39 31.65L459 14.5C458.959 14.3861 458.883 14.2885 458.782 14.2218C458.681 14.1551 458.561 14.1229 458.44 14.13ZM461.53 24.53H455.4L455.52 24.2L458.2 16.93L458.43 16.3L458.67 16.93L461.4 24.19L461.53 24.53Z" fill="white" stroke="white" stroke-miterlimit="10"/>
<path d="M244.72 30.88V14.26H243.6V31.44C243.6 31.5885 243.659 31.731 243.764 31.836C243.869 31.941 244.012 32 244.16 32H253.21V30.88H244.72Z" fill="white" stroke="white" stroke-miterlimit="10"/>
<path d="M316.7 30.88V22.88H325.08V21.77H316.7V14.83H325.55V13.71H316.14C315.992 13.71 315.849 13.769 315.744 13.874C315.639 13.979 315.58 14.1215 315.58 14.27V31.44C315.58 31.5885 315.639 31.731 315.744 31.836C315.849 31.941 315.992 32 316.14 32H325.83V30.88H316.7Z" fill="white" stroke="white" stroke-miterlimit="10"/>
<path d="M184.42 23.13C184.554 21.7452 184.409 20.3475 183.994 19.0197C183.578 17.6919 182.9 16.4611 182 15.4C181.322 14.7006 180.506 14.1494 179.604 13.781C178.702 13.4127 177.734 13.2353 176.76 13.26C173.01 13.26 168.54 14.97 168.54 23.1C168.54 29.21 172.59 31.99 176.35 31.99C179.89 32 184.16 29.67 184.42 23.13ZM169.62 23.13C169.62 17.27 171.94 14.42 176.72 14.42C177.543 14.3917 178.362 14.5364 179.125 14.8448C179.888 15.1531 180.578 15.6182 181.15 16.21C181.95 17.1583 182.552 18.2577 182.92 19.443C183.287 20.6282 183.413 21.8752 183.29 23.11C183.06 28.85 179.54 30.9 176.29 30.9C173.04 30.9 169.62 28.47 169.62 23.1V23.13Z" fill="white" stroke="white" stroke-miterlimit="10"/>
<path d="M157.09 14.52H155.97V31.67H157.09V14.52Z" fill="white" stroke="white" stroke-miterlimit="10"/>
<path d="M335.61 15.43H341.1H341.35V15.68V32H342.47V15.68V15.43H342.72H348.16V14.3H335.61V15.43Z" fill="white" stroke="white" stroke-miterlimit="10"/>
<path d="M195.92 17.55V16.79L196.37 17.4L207.37 32.34C207.424 32.4106 207.494 32.4679 207.574 32.5078C207.653 32.5476 207.741 32.5689 207.83 32.57C207.886 32.5803 207.944 32.5803 208 32.57C208.112 32.5328 208.209 32.4619 208.279 32.367C208.349 32.2721 208.388 32.1578 208.39 32.04V15.33H207.3V30.33L206.85 29.72L195.85 14.78C195.798 14.7091 195.731 14.6513 195.653 14.6114C195.574 14.5714 195.488 14.5504 195.4 14.55C195.344 14.5397 195.286 14.5397 195.23 14.55C195.117 14.5845 195.017 14.6547 194.947 14.7502C194.877 14.8458 194.839 14.9614 194.84 15.08V31.76H195.96L195.92 17.55Z" fill="white" stroke="white" stroke-miterlimit="10"/>
<path d="M292.18 22.61C292.169 20.328 291.258 18.1426 289.643 16.5299C288.028 14.9172 285.842 14.0079 283.56 14H277.5C277.426 14 277.354 14.0145 277.286 14.0426C277.218 14.0708 277.156 14.112 277.104 14.164C277.052 14.216 277.011 14.2778 276.983 14.3457C276.954 14.4136 276.94 14.4865 276.94 14.56V31.44C276.94 31.5135 276.954 31.5864 276.983 31.6543C277.011 31.7222 277.052 31.784 277.104 31.836C277.156 31.888 277.218 31.9292 277.286 31.9574C277.354 31.9855 277.426 32 277.5 32H283.56C288.72 32 292.18 27.15 292.18 22.61ZM278.07 30.88V15.08H283.56C285.551 15.0906 287.457 15.8882 288.862 17.299C290.267 18.7097 291.057 20.6189 291.06 22.61C291.06 26.08 288.45 30.88 283.56 30.88H278.07Z" fill="white" stroke="white" stroke-miterlimit="10"/>
<path d="M417.13 22.36L416.74 22.17L417.1 21.93C417.735 21.5182 418.253 20.9492 418.604 20.2781C418.954 19.607 419.125 18.8567 419.1 18.1C419.128 17.5364 419.037 16.9733 418.831 16.4477C418.626 15.922 418.312 15.4457 417.91 15.05C416.784 14.1287 415.365 13.6425 413.91 13.68H413.77L408.39 13.76C408.242 13.7652 408.103 13.8275 408 13.9339C407.897 14.0402 407.84 14.1822 407.84 14.33V31.52C407.84 31.6668 407.898 31.8077 408.001 31.9125C408.103 32.0172 408.243 32.0774 408.39 32.08C408.39 32.08 410.39 32.08 413.86 32.08C417.71 32.08 419.86 30.14 419.86 26.63C419.868 25.7302 419.614 24.8475 419.13 24.0893C418.645 23.3312 417.95 22.7304 417.13 22.36ZM409.01 21.36V14.88H409.26L413.83 14.81H414C415.151 14.7802 416.277 15.1553 417.18 15.87C417.469 16.1621 417.692 16.5116 417.837 16.8957C417.982 17.2799 418.044 17.6902 418.02 18.1C418.011 18.979 417.68 19.8243 417.091 20.4764C416.501 21.1285 415.694 21.5424 414.82 21.64H409L409.01 21.36ZM413.91 30.96H409.26H409V22.76H414.12C415.32 22.76 418.74 23.48 418.74 26.67C418.75 29.58 417.17 31 413.91 31V30.96Z" fill="white" stroke="white" stroke-miterlimit="10"/>
<path d="M441 28V27.82C441 26.87 440.95 26.44 440.92 26.26C440.834 25.7414 440.647 25.2449 440.369 24.7988C440.091 24.3526 439.727 23.9657 439.3 23.66L438.99 23.44L439.3 23.24C440.033 22.747 440.617 22.0618 440.988 21.2594C441.358 20.4569 441.501 19.568 441.4 18.69C441.4 18.1285 441.286 17.5729 441.064 17.0571C440.842 16.5413 440.518 16.0761 440.11 15.69C438.926 14.7514 437.451 14.2562 435.94 14.29H435.8L430.42 14.38C430.271 14.38 430.129 14.439 430.024 14.544C429.919 14.649 429.86 14.7915 429.86 14.94V32H431V24H436.12C438.28 24 439.46 24.8 439.82 26.52C439.82 26.68 439.82 27.2 439.88 27.87C439.94 28.54 439.88 29.06 439.95 29.41C439.972 30.3364 440.194 31.247 440.6 32.08L441.6 31.54C441.273 30.8444 441.096 30.0882 441.08 29.32C441.07 29 441.06 28.49 441 28ZM436.11 22.84H431V15.46H431.24L435.83 15.39H436C437.226 15.3578 438.425 15.7459 439.4 16.49C439.702 16.7755 439.941 17.1219 440.099 17.5063C440.258 17.8907 440.333 18.3044 440.32 18.72C440.43 22.57 437.42 22.81 437.08 22.83L436.11 22.84Z" fill="white" stroke="white" stroke-miterlimit="10"/>
<path d="M486.32 27.91V27.81C486.32 26.87 486.27 26.44 486.24 26.25C486.154 25.7314 485.967 25.2349 485.689 24.7888C485.411 24.3427 485.048 23.9557 484.62 23.65L484.3 23.43L484.62 23.23C485.353 22.737 485.937 22.0518 486.308 21.2494C486.678 20.4469 486.821 19.5581 486.72 18.68C486.72 18.1185 486.606 17.5629 486.384 17.0471C486.162 16.5313 485.838 16.0661 485.43 15.68C484.246 14.7414 482.771 14.2462 481.26 14.28H481.12L475.74 14.37C475.591 14.37 475.449 14.429 475.344 14.534C475.239 14.639 475.18 14.7815 475.18 14.93V32H476.31V24H481.42C483.59 24 484.76 24.8 485.13 26.52C485.13 26.68 485.13 27.2 485.19 27.87C485.25 28.54 485.19 29.08 485.26 29.41C485.282 30.3364 485.504 31.247 485.91 32.08L486.91 31.54C486.579 30.8461 486.401 30.0888 486.39 29.32C486.35 29 486.34 28.44 486.32 27.91ZM481.42 22.83H476.31V15.46H476.55L481.14 15.39H481.27C482.495 15.3594 483.695 15.7474 484.67 16.49C484.969 16.7778 485.206 17.1246 485.364 17.5085C485.522 17.8923 485.599 18.3049 485.59 18.72C485.7 22.57 482.69 22.81 482.35 22.83H481.42Z" fill="white" stroke="white" stroke-miterlimit="10"/>
<path d="M502.4 24.99V25.06V32.12H503.52V24.99V24.92L503.56 24.86L509.67 15.21L508.72 14.61L503.15 23.4L502.94 23.73L502.73 23.39L497.28 14.6L496.32 15.2L502.36 24.93L502.4 24.99Z" fill="white" stroke="white" stroke-miterlimit="10"/>
<path d="M43.58 58.52C42.9575 58.8254 42.2734 58.9843 41.58 58.9843C40.8866 58.9843 40.2025 58.8254 39.58 58.52L14.21 46C14.0526 45.9368 13.8817 45.9147 13.7134 45.9357C13.545 45.9568 13.3848 46.0203 13.2478 46.1203C13.1108 46.2203 13.0015 46.3535 12.9302 46.5074C12.8588 46.6613 12.8278 46.8308 12.84 47L13.24 51.39C13.2545 51.5608 13.3128 51.7251 13.4091 51.8669C13.5054 52.0088 13.6366 52.1235 13.79 52.2L36.57 63.2C37.0165 64.1575 37.727 64.9676 38.618 65.5353C39.509 66.1029 40.5435 66.4044 41.6 66.4044C42.6565 66.4044 43.691 66.1029 44.582 65.5353C45.473 64.9676 46.1835 64.1575 46.63 63.2L69.4 52.2C69.5534 52.1235 69.6846 52.0088 69.7809 51.8669C69.8772 51.7251 69.9355 51.5608 69.95 51.39L70.35 47C70.3607 46.8333 70.3294 46.6665 70.2591 46.5149C70.1887 46.3634 70.0815 46.2319 69.9473 46.1324C69.813 46.033 69.656 45.9687 69.4905 45.9456C69.325 45.9225 69.1564 45.9412 69 46L43.58 58.52Z" fill="#0070AE"/>
<path d="M66.7101 40.78C56.5701 44.55 47.4401 42 42.0001 51.11C41.9553 51.1824 41.8927 51.2421 41.8183 51.2835C41.7439 51.3249 41.6602 51.3466 41.5751 51.3466C41.49 51.3466 41.4063 51.3249 41.3319 51.2835C41.2575 51.2421 41.1949 51.1824 41.1501 51.11C35.7601 42 26.6201 44.55 16.4801 40.78C16.3581 40.7291 16.2273 40.7029 16.0951 40.7029C15.9629 40.7029 15.8321 40.7291 15.7101 40.78L14.1601 41.49C13.9855 41.5695 13.8375 41.6976 13.7337 41.859C13.6299 42.0203 13.5747 42.2081 13.5747 42.4C13.5747 42.5919 13.6299 42.7797 13.7337 42.941C13.8375 43.1024 13.9855 43.2305 14.1601 43.31L39.7601 54.76C40.3377 55.0172 40.9628 55.1502 41.5951 55.1502C42.2274 55.1502 42.8525 55.0172 43.4301 54.76L69.0001 43.33C69.1747 43.2505 69.3227 43.1224 69.4265 42.961C69.5303 42.7997 69.5855 42.6118 69.5855 42.42C69.5855 42.2281 69.5303 42.0403 69.4265 41.879C69.3227 41.7176 69.1747 41.5895 69.0001 41.51L67.4501 40.8C67.2151 40.6989 66.9502 40.6918 66.7101 40.78Z" fill="#1B8600"/>
<path d="M44.19 11.37C43.5084 12.1437 42.7768 12.8719 42 13.55C41.6818 13.8206 41.2777 13.9691 40.86 13.9691C40.4423 13.9691 40.0382 13.8206 39.72 13.55C38.949 12.869 38.221 12.141 37.54 11.37C37.2739 11.0516 37.1282 10.6499 37.1282 10.235C37.1282 9.8201 37.2739 9.41838 37.54 9.10001C38.221 8.32904 38.949 7.60098 39.72 6.92001C40.0382 6.64945 40.4423 6.5009 40.86 6.5009C41.2777 6.5009 41.6818 6.64945 42 6.92001C42.7768 7.59807 43.5084 8.3263 44.19 9.10001C44.4617 9.41573 44.6111 9.81846 44.6111 10.235C44.6111 10.6516 44.4617 11.0543 44.19 11.37Z" fill="#DCD51E"/>
<path d="M61 18.93C60.3191 19.701 59.591 20.429 58.82 21.11C58.5001 21.3768 58.0967 21.523 57.68 21.523C57.2634 21.523 56.86 21.3768 56.54 21.11C55.7723 20.4289 55.0476 19.7009 54.37 18.93C54.0995 18.6118 53.9509 18.2077 53.9509 17.79C53.9509 17.3723 54.0995 16.9682 54.37 16.65C55.0501 15.8815 55.7747 15.1536 56.54 14.47C56.86 14.2032 57.2634 14.057 57.68 14.057C58.0967 14.057 58.5001 14.2032 58.82 14.47C59.5886 15.1535 60.3165 15.8815 61 16.65C61.2706 16.9682 61.4191 17.3723 61.4191 17.79C61.4191 18.2077 61.2706 18.6118 61 18.93Z" fill="#DCD51E"/>
<path d="M50 22.09C49.319 22.861 48.5909 23.589 47.82 24.27C47.5 24.5368 47.0966 24.683 46.68 24.683C46.2634 24.683 45.8599 24.5368 45.54 24.27C44.7714 23.5865 44.0435 22.8585 43.36 22.09C43.0932 21.77 42.947 21.3666 42.947 20.95C42.947 20.5334 43.0932 20.13 43.36 19.81C44.0461 19.0438 44.7738 18.3161 45.54 17.63C45.8599 17.3632 46.2634 17.217 46.68 17.217C47.0966 17.217 47.5 17.3632 47.82 17.63C48.5885 18.3135 49.3164 19.0415 50 19.81C50.2668 20.13 50.4129 20.5334 50.4129 20.95C50.4129 21.3666 50.2668 21.77 50 22.09Z" fill="#C84800"/>
<path d="M25.8501 31C25.1691 31.771 24.441 32.499 23.6701 33.18C23.3501 33.4468 22.9467 33.593 22.5301 33.593C22.1135 33.593 21.71 33.4468 21.3901 33.18C20.6215 32.4965 19.8936 31.7685 19.2101 31C18.9433 30.68 18.7971 30.2766 18.7971 29.86C18.7971 29.4434 18.9433 29.04 19.2101 28.72C19.8962 27.9539 20.6239 27.2261 21.3901 26.54C21.71 26.2732 22.1135 26.127 22.5301 26.127C22.9467 26.127 23.3501 26.2732 23.6701 26.54C24.4386 27.2236 25.1665 27.9515 25.8501 28.72C26.1169 29.04 26.263 29.4434 26.263 29.86C26.263 30.2766 26.1169 30.68 25.8501 31Z" fill="#C84800"/>
<path d="M40.48 40C39.7996 40.7778 39.0715 41.5126 38.3 42.2C37.98 42.4668 37.5766 42.613 37.16 42.613C36.7433 42.613 36.3399 42.4668 36.02 42.2C35.2508 41.51 34.5229 40.7754 33.84 40C33.5731 39.68 33.427 39.2766 33.427 38.86C33.427 38.4434 33.5731 38.04 33.84 37.72C34.5201 36.9612 35.2412 36.2402 36 35.56C36.3199 35.2932 36.7233 35.147 37.14 35.147C37.5566 35.147 37.96 35.2932 38.28 35.56C39.0485 36.2435 39.7764 36.9715 40.46 37.74C40.7281 38.0544 40.877 38.4532 40.8806 38.8664C40.8843 39.2796 40.7425 39.6809 40.48 40Z" fill="#DCD51E"/>
<path d="M40.6599 27.09C39.1944 28.8255 37.5854 30.4345 35.8499 31.9C35.5236 32.1613 35.118 32.3036 34.6999 32.3036C34.2819 32.3036 33.8763 32.1613 33.5499 31.9C31.8176 30.4344 30.2119 28.8254 28.7499 27.09C28.4834 26.766 28.3376 26.3595 28.3376 25.94C28.3376 25.5205 28.4834 25.114 28.7499 24.79C30.2173 23.0626 31.8226 21.4574 33.5499 19.99C33.8739 19.7234 34.2804 19.5777 34.6999 19.5777C35.1195 19.5777 35.526 19.7234 35.8499 19.99C37.5829 21.4546 39.1917 23.0601 40.6599 24.79C40.9212 25.1163 41.0636 25.5219 41.0636 25.94C41.0636 26.3581 40.9212 26.7637 40.6599 27.09Z" fill="#DCD51E"/>
<path d="M56.2499 35.89C54.7817 37.6199 53.1729 39.2254 51.4399 40.69C51.1175 40.9558 50.7127 41.1011 50.2949 41.1011C49.8771 41.1011 49.4723 40.9558 49.1499 40.69C47.417 39.2254 45.8082 37.6199 44.3399 35.89C44.0786 35.5636 43.9363 35.1581 43.9363 34.74C43.9363 34.3219 44.0786 33.9163 44.3399 33.59C45.8054 31.8545 47.4145 30.2455 49.1499 28.78C49.4739 28.5178 49.8781 28.3747 50.2949 28.3747C50.7117 28.3747 51.1159 28.5178 51.4399 28.78C53.1754 30.2455 54.7844 31.8545 56.2499 33.59C56.5112 33.9163 56.6536 34.3219 56.6536 34.74C56.6536 35.1581 56.5112 35.5636 56.2499 35.89Z" fill="#C84800"/>
</g>
</svg>
