<?xml version="1.0" encoding="UTF-8"?>
<!DOCTYPE svg PUBLIC "-//W3C//DTD SVG 1.1//EN" "http://www.w3.org/Graphics/SVG/1.1/DTD/svg11.dtd">
<svg version="1.1" xmlns="http://www.w3.org/2000/svg" xmlns:xlink="http://www.w3.org/1999/xlink" x="0" y="0" width="400" height="400" viewBox="0, 0, 400, 400">
  <g id="Layer_1">
    <g>
      <path d="M187.661,50.644 C157.852,55.691 148.233,57.882 128.709,64.263 C119.185,67.406 103.757,73.691 101.185,75.501 C100.328,76.072 97.852,77.501 95.661,78.549 C90.233,81.215 77.757,93.787 75.757,98.453 C68.423,116.072 84.423,134.644 125.185,155.691 C131.09,158.739 135.28,160.263 135.947,159.691 C136.328,159.31 135.566,158.739 134.423,158.453 C133.185,158.072 132.233,157.501 132.233,157.215 C132.233,156.834 129.28,154.644 125.852,152.263 C118.518,147.501 114.995,144.644 107.757,137.501 C90.233,120.263 95.947,104.358 122.709,95.596 C137.756,90.644 156.614,87.025 177.661,85.025 C183.756,84.453 191.375,83.691 194.709,83.31 L200.709,82.549 L200.709,66.072 L200.709,49.596 L198.233,49.406 C196.804,49.406 192.042,49.882 187.661,50.644 z" fill="#000000"/>
      <path d="M264.709,106.549 C265.756,107.406 267.09,108.358 267.661,108.834 C268.233,109.215 269.852,110.358 271.185,111.31 C282.042,118.549 286.899,122.549 291.566,127.977 C300.613,138.358 302.804,145.025 299.375,151.691 C294.613,160.929 285.09,166.453 263.185,172.358 C250.614,175.787 230.614,178.549 196.899,181.596 C171.471,183.882 148.042,188.548 126.709,195.596 C99.852,204.548 81.376,216.548 75.566,228.644 C72.042,236.167 73.947,246.929 80.518,255.406 C83.376,259.12 99.376,273.025 100.804,273.025 C101.185,273.025 102.233,273.691 103.09,274.453 C106.137,277.025 128.709,289.025 130.518,289.025 C131.376,289.025 132.233,289.596 132.423,290.167 C132.614,290.834 133.661,291.12 134.709,290.834 C136.614,290.358 136.614,290.358 134.614,289.501 C126.137,285.786 104.995,266.548 101.757,259.596 C94.804,244.644 103.947,234.358 132.233,225.31 C144.328,221.406 166.423,217.977 199.661,215.025 C212.328,213.882 224.518,212.453 226.709,211.977 C228.899,211.501 235.375,210.168 241.185,209.025 C256.709,205.882 276.709,199.787 289.852,194.168 C311.471,184.929 326.232,170.549 326.232,158.834 C326.232,153.31 321.09,143.025 315.566,137.025 C310.899,132.072 299.375,123.31 290.709,118.168 C277.566,110.263 257.375,101.31 264.709,106.549 z" fill="#000000"/>
      <path d="M265.185,243.12 C265.185,243.691 266.328,244.548 267.661,245.025 C269.09,245.596 270.233,246.453 270.233,247.025 C270.233,247.596 270.709,248.072 271.28,248.072 C273.375,248.072 287.28,259.406 291.661,264.548 C301.756,276.453 302.709,285.406 294.804,293.406 C283.947,304.548 260.137,311.31 217.185,315.596 C208.137,316.548 199.756,317.406 198.709,317.596 C196.804,317.977 196.709,318.739 196.709,334.263 L196.709,350.548 L200.899,350.453 C205.471,350.358 212.518,349.31 232.709,345.501 C251.28,341.977 252.233,341.691 267.661,336.644 C295.756,327.501 314.709,315.786 320.804,303.882 C324.137,297.215 324.137,288.834 320.613,281.882 C317.185,275.215 305.471,263.691 296.709,258.548 C294.804,257.501 289.471,254.167 284.709,251.31 C279.947,248.453 274.994,245.787 273.661,245.501 C272.328,245.12 270.709,244.263 270.137,243.501 C268.804,241.882 265.185,241.596 265.185,243.12 z" fill="#000000"/>
    </g>
  </g>
</svg>
