<?xml version="1.0" encoding="UTF-8"?>
<!DOCTYPE svg PUBLIC "-//W3C//DTD SVG 1.1//EN" "http://www.w3.org/Graphics/SVG/1.1/DTD/svg11.dtd">
<svg version="1.1" xmlns="http://www.w3.org/2000/svg" xmlns:xlink="http://www.w3.org/1999/xlink" x="0" y="0" width="300" height="300" viewBox="0, 0, 300, 300">
  <g id="Layer_1">
    <g>
      <path d="M158.138,240.463 C155.587,241.715 152.782,242.366 149.94,242.366 C147.097,242.366 144.293,241.715 141.741,240.463 L37.739,189.138 C37.094,188.879 36.393,188.789 35.703,188.875 C35.013,188.961 34.356,189.222 33.794,189.632 C33.233,190.042 32.785,190.588 32.492,191.218 C32.2,191.849 32.073,192.544 32.123,193.238 L33.762,211.234 C33.822,211.934 34.061,212.608 34.456,213.189 C34.85,213.771 35.388,214.241 36.017,214.555 L129.402,259.648 C131.232,263.573 134.145,266.894 137.797,269.222 C141.45,271.548 145.691,272.784 150.022,272.784 C154.353,272.784 158.593,271.548 162.246,269.222 C165.899,266.894 168.811,263.573 170.642,259.648 L263.985,214.555 C264.614,214.241 265.152,213.771 265.547,213.189 C265.941,212.608 266.18,211.934 266.24,211.234 L267.879,193.238 C267.923,192.554 267.795,191.871 267.507,191.249 C267.218,190.628 266.779,190.089 266.229,189.681 C265.678,189.274 265.035,189.01 264.356,188.915 C263.678,188.821 262.986,188.897 262.345,189.138 L158.138,240.463 z" fill="#000000"/>
      <path d="M252.958,167.74 C211.39,183.194 173.963,172.741 151.662,210.086 C151.478,210.383 151.221,210.628 150.916,210.798 C150.611,210.967 150.268,211.056 149.92,211.056 C149.571,211.056 149.228,210.967 148.923,210.798 C148.618,210.628 148.361,210.383 148.177,210.086 C126.081,172.741 88.613,183.194 47.045,167.74 C46.545,167.531 46.009,167.424 45.467,167.424 C44.925,167.424 44.389,167.531 43.888,167.74 L37.534,170.65 C36.819,170.976 36.212,171.501 35.786,172.163 C35.361,172.824 35.135,173.594 35.135,174.381 C35.135,175.167 35.361,175.937 35.786,176.598 C36.212,177.26 36.819,177.785 37.534,178.111 L142.479,225.049 C144.847,226.104 147.409,226.649 150.001,226.649 C152.594,226.649 155.156,226.104 157.524,225.049 L262.346,178.193 C263.061,177.867 263.668,177.342 264.094,176.68 C264.519,176.019 264.745,175.249 264.745,174.463 C264.745,173.676 264.519,172.906 264.094,172.245 C263.668,171.583 263.061,171.058 262.346,170.732 L255.992,167.822 C255.028,167.407 253.942,167.378 252.958,167.74 z" fill="#000000"/>
      <path d="M160.639,47.176 C157.845,50.348 154.846,53.333 151.661,56.113 C150.357,57.222 148.7,57.831 146.988,57.831 C145.276,57.831 143.619,57.222 142.315,56.113 C139.154,53.321 136.17,50.337 133.378,47.176 C132.287,45.871 131.69,44.224 131.69,42.523 C131.69,40.822 132.287,39.176 133.378,37.87 C136.17,34.71 139.154,31.725 142.315,28.934 C143.619,27.825 145.276,27.216 146.988,27.216 C148.7,27.216 150.357,27.825 151.661,28.934 C154.846,31.713 157.845,34.699 160.639,37.87 C161.753,39.165 162.365,40.816 162.365,42.523 C162.365,44.231 161.753,45.882 160.639,47.176 z" fill="#000000"/>
      <path d="M229.55,78.168 C226.759,81.328 223.774,84.313 220.613,87.104 C219.302,88.198 217.648,88.797 215.94,88.797 C214.232,88.797 212.578,88.198 211.267,87.104 C208.12,84.312 205.149,81.328 202.371,78.168 C201.262,76.863 200.653,75.207 200.653,73.494 C200.653,71.782 201.262,70.125 202.371,68.821 C205.159,65.671 208.129,62.687 211.267,59.884 C212.578,58.79 214.232,58.191 215.94,58.191 C217.648,58.191 219.302,58.79 220.613,59.884 C223.764,62.686 226.748,65.671 229.55,68.821 C230.659,70.125 231.268,71.782 231.268,73.494 C231.268,75.207 230.659,76.863 229.55,78.168 z" fill="#000000"/>
      <path d="M184.457,91.122 C181.665,94.282 178.68,97.267 175.52,100.058 C174.208,101.152 172.554,101.751 170.847,101.751 C169.139,101.751 167.485,101.152 166.173,100.058 C163.022,97.256 160.038,94.272 157.237,91.122 C156.143,89.81 155.543,88.156 155.543,86.448 C155.543,84.741 156.143,83.087 157.237,81.775 C160.049,78.634 163.032,75.651 166.173,72.838 C167.485,71.745 169.139,71.145 170.847,71.145 C172.554,71.145 174.208,71.745 175.52,72.838 C178.67,75.64 181.654,78.625 184.457,81.775 C185.55,83.087 186.149,84.741 186.149,86.448 C186.149,88.156 185.55,89.81 184.457,91.122 z" fill="#000000"/>
      <path d="M85.456,127.647 C82.665,130.808 79.68,133.792 76.52,136.584 C75.208,137.678 73.554,138.277 71.846,138.277 C70.139,138.277 68.484,137.678 67.173,136.584 C64.022,133.782 61.038,130.798 58.236,127.647 C57.143,126.336 56.543,124.682 56.543,122.974 C56.543,121.266 57.143,119.613 58.236,118.301 C61.049,115.16 64.032,112.177 67.173,109.364 C68.484,108.27 70.139,107.671 71.846,107.671 C73.554,107.671 75.208,108.27 76.52,109.364 C79.67,112.166 82.654,115.15 85.456,118.301 C86.55,119.613 87.149,121.266 87.149,122.974 C87.149,124.682 86.55,126.336 85.456,127.647 z" fill="#000000"/>
      <path d="M145.43,164.542 C142.641,167.731 139.656,170.743 136.494,173.561 C135.182,174.654 133.528,175.254 131.82,175.254 C130.112,175.254 128.458,174.654 127.147,173.561 C123.994,170.732 121.01,167.721 118.21,164.542 C117.116,163.23 116.517,161.577 116.517,159.869 C116.517,158.161 117.116,156.507 118.21,155.195 C120.998,152.085 123.954,149.129 127.065,146.341 C128.376,145.247 130.03,144.648 131.738,144.648 C133.446,144.648 135.1,145.247 136.412,146.341 C139.562,149.143 142.546,152.127 145.348,155.277 C146.447,156.566 147.058,158.201 147.072,159.895 C147.088,161.589 146.506,163.234 145.43,164.542 z" fill="#000000"/>
      <path d="M146.168,111.619 C140.16,118.733 133.564,125.329 126.45,131.337 C125.112,132.408 123.449,132.991 121.735,132.991 C120.022,132.991 118.359,132.408 117.021,131.337 C109.92,125.329 103.337,118.733 97.344,111.619 C96.251,110.29 95.654,108.624 95.654,106.904 C95.654,105.185 96.251,103.518 97.344,102.19 C103.359,95.109 109.94,88.528 117.021,82.513 C118.349,81.42 120.016,80.823 121.735,80.823 C123.455,80.823 125.122,81.42 126.45,82.513 C133.554,88.517 140.149,95.098 146.168,102.19 C147.239,103.528 147.823,105.19 147.823,106.904 C147.823,108.618 147.239,110.281 146.168,111.619 z" fill="#000000"/>
      <path d="M210.077,147.693 C204.059,154.785 197.464,161.367 190.359,167.371 C189.038,168.46 187.378,169.056 185.665,169.056 C183.953,169.056 182.293,168.46 180.972,167.371 C173.868,161.367 167.273,154.785 161.254,147.693 C160.182,146.355 159.599,144.693 159.599,142.979 C159.599,141.265 160.182,139.602 161.254,138.265 C167.261,131.15 173.858,124.554 180.972,118.547 C182.3,117.472 183.957,116.885 185.665,116.885 C187.374,116.885 189.031,117.472 190.359,118.547 C197.474,124.554 204.07,131.15 210.077,138.265 C211.149,139.602 211.732,141.265 211.732,142.979 C211.732,144.693 211.149,146.355 210.077,147.693 z" fill="#000000"/>
    </g>
  </g>
</svg>
