<?xml version="1.0" encoding="UTF-8"?>
<!DOCTYPE svg PUBLIC "-//W3C//DTD SVG 1.1//EN" "http://www.w3.org/Graphics/SVG/1.1/DTD/svg11.dtd">
<svg version="1.1" xmlns="http://www.w3.org/2000/svg" xmlns:xlink="http://www.w3.org/1999/xlink" x="0" y="0" width="500" height="500" viewBox="0, 0, 500, 500">
  <defs>
    <clipPath id="Clip_1">
      <path d="M25,443.5 L474.666,443.5 L474.666,56.928 L25,56.928 z"/>
    </clipPath>
  </defs>
  <g id="Layer_1">
    <path d="M84.571,425.107 C90.201,425.107 95.363,424.055 100.068,421.942 C104.778,419.84 108.809,416.974 112.165,413.35 C115.521,409.727 118.147,405.486 120.039,400.613 C121.936,395.751 122.882,390.567 122.882,385.052 L122.882,384.727 C122.882,379.21 121.936,373.996 120.039,369.076 C118.147,364.16 115.496,359.892 112.086,356.269 C108.678,352.645 104.59,349.749 99.831,347.589 C95.06,345.433 89.868,344.346 84.238,344.346 C78.612,344.346 73.442,345.407 68.74,347.51 C64.031,349.617 60,352.479 56.643,356.107 C53.287,359.726 50.667,363.968 48.765,368.839 C46.872,373.699 45.926,378.894 45.926,384.403 L45.926,384.727 C45.926,390.244 46.872,395.456 48.765,400.378 C50.667,405.294 53.314,409.565 56.722,413.188 C60.131,416.813 64.219,419.704 68.977,421.86 C73.74,424.029 78.941,425.107 84.571,425.107 z M84.238,443.5 C75.48,443.5 67.474,441.957 60.218,438.872 C52.971,435.794 46.75,431.595 41.553,426.289 C36.361,420.992 32.299,414.798 29.377,407.698 C26.459,400.613 25,393.064 25,385.052 L25,384.727 C25,376.721 26.459,369.168 29.377,362.079 C32.299,354.989 36.414,348.767 41.72,343.409 C47.017,338.05 53.291,333.8 60.547,330.664 C67.798,327.53 75.803,325.953 84.571,325.953 C93.33,325.953 101.339,327.491 108.59,330.589 C115.836,333.664 122.063,337.862 127.255,343.163 C132.447,348.47 136.504,354.666 139.431,361.755 C142.354,368.844 143.813,376.396 143.813,384.403 L143.813,384.727 C143.813,392.74 142.354,400.285 139.431,407.375 C136.504,414.465 132.395,420.684 127.088,426.044 C121.791,431.403 115.517,435.657 108.262,438.79 C101.014,441.931 93.01,443.5 84.238,443.5" fill="#1A1919"/>
    <path d="M209.886,443.5 C201.662,443.5 194.003,441.988 186.913,438.952 C179.82,435.921 173.703,431.784 168.573,426.53 C163.429,421.281 159.402,415.086 156.479,407.944 C153.562,400.802 152.103,393.17 152.103,385.052 L152.103,384.727 C152.103,376.608 153.536,369.01 156.401,361.912 C159.262,354.832 163.292,348.606 168.485,343.243 C173.677,337.887 179.876,333.664 187.076,330.589 C194.271,327.491 202.148,325.953 210.705,325.953 C215.892,325.953 220.629,326.391 224.906,327.255 C229.181,328.126 233.103,329.345 236.678,330.918 C240.25,332.495 243.549,334.365 246.585,336.53 C249.618,338.703 252.482,341.087 255.191,343.695 L242.362,358.473 C237.813,354.249 233.002,350.84 227.912,348.247 C222.824,345.648 217.032,344.346 210.539,344.346 C205.123,344.346 200.12,345.407 195.519,347.51 C190.918,349.617 186.962,352.479 183.667,356.107 C180.368,359.726 177.765,363.968 175.872,368.839 C173.975,373.699 173.033,378.894 173.033,384.403 L173.033,384.727 C173.033,390.244 173.975,395.456 175.872,400.378 C177.765,405.294 180.368,409.595 183.667,413.267 C186.962,416.948 190.918,419.84 195.519,421.942 C200.12,424.055 205.123,425.107 210.539,425.107 C214,425.107 217.19,424.756 220.117,424.047 C223.043,423.349 225.795,422.377 228.393,421.128 C231,419.884 233.505,418.341 235.947,416.502 C238.382,414.662 240.789,412.606 243.172,410.332 L255.996,423.323 C253.079,426.349 250.015,429.125 246.827,431.613 C243.627,434.11 240.192,436.258 236.512,438.049 C232.832,439.838 228.805,441.194 224.415,442.12 C220.033,443.036 215.197,443.5 209.886,443.5" fill="#1A1919"/>
    <path d="M270.144,327.965 L290.124,327.965 L290.124,423.416 L349.874,423.416 L349.874,441.598 L270.144,441.598 L270.144,327.965" fill="#1A1919"/>
    <g clip-path="url(#Clip_1)">
      <path d="M407.105,443.5 C398.881,443.5 391.218,441.988 384.129,438.952 C377.039,435.921 370.922,431.784 365.788,426.53 C360.649,421.281 356.618,415.086 353.699,407.944 C350.778,400.802 349.318,393.17 349.318,385.052 L349.318,384.727 C349.318,376.608 350.75,369.01 353.617,361.912 C356.477,354.832 360.508,348.606 365.701,343.243 C370.897,337.887 377.092,333.664 384.291,330.589 C391.49,327.491 399.363,325.953 407.917,325.953 C413.108,325.953 417.849,326.391 422.121,327.255 C426.398,328.126 430.323,329.345 433.894,330.918 C437.46,332.495 440.768,334.365 443.796,336.53 C446.832,338.703 449.703,341.087 452.41,343.695 L439.577,358.473 C435.034,354.249 430.217,350.84 425.13,348.247 C420.04,345.648 414.248,344.346 407.753,344.346 C402.342,344.346 397.334,345.407 392.735,347.51 C388.128,349.617 384.181,352.479 380.886,356.107 C377.579,359.726 374.984,363.968 373.087,368.839 C371.194,373.699 370.248,378.894 370.248,384.403 L370.248,384.727 C370.248,390.244 371.194,395.456 373.087,400.378 C374.984,405.294 377.579,409.595 380.886,413.267 C384.181,416.948 388.128,419.84 392.735,421.942 C397.334,424.055 402.342,425.107 407.753,425.107 C411.215,425.107 414.405,424.756 417.333,424.047 C420.258,423.349 423.014,422.377 425.609,421.128 C428.21,419.884 430.725,418.341 433.162,416.502 C435.602,414.662 438.003,412.606 440.391,410.332 L453.212,423.323 C450.289,426.349 447.236,429.125 444.041,431.613 C440.842,434.11 437.408,436.258 433.732,438.049 C430.051,439.838 426.02,441.194 421.63,442.12 C417.248,443.036 412.411,443.5 407.105,443.5" fill="#1A1919"/>
      <path d="M315.65,135.244 C307.23,84.283 259.064,49.77 208.085,58.194 C157.097,66.609 122.589,114.772 131.01,165.74 C137.293,203.828 165.786,232.711 201.062,241.365 C201.167,238.6 201.521,235.83 202.139,233.083 C176.867,224.206 156.909,201.685 152.133,172.706 C145.229,130.933 172.428,91.644 212.887,84.969 C248.937,79.017 283.32,100.969 295.277,135.367 C303.548,138.321 310.848,142.92 316.881,148.77 C316.794,144.301 316.399,139.784 315.65,135.244" fill="#1A1919"/>
    </g>
    <path d="M296.065,118.535 C257.302,107.897 217.26,130.703 206.63,169.447 C202.24,185.457 203.559,201.672 209.338,215.956 C211.45,213.016 213.829,210.383 216.436,208.091 C214.683,199.043 214.889,189.43 217.513,179.874 C226.373,147.609 258.875,128.388 290.128,136.966 C321.382,145.541 339.539,178.665 330.687,210.934 C324.664,232.886 307.676,248.773 287.596,254.001 C286.865,256.392 285.909,258.742 284.766,261.046 C313.551,257.869 338.859,237.583 346.992,207.96 C357.621,169.214 334.811,129.165 296.065,118.535" fill="#1A1919"/>
    <path d="M278.282,263.578 C265.863,282.523 240.92,288.137 222.566,276.11 C204.211,264.078 199.401,238.963 211.831,220.017 C224.262,201.072 249.201,195.46 267.546,207.491 C285.892,219.518 290.707,244.637 278.282,263.578 z M274.928,194.259 C250.923,178.516 218.701,185.228 202.971,209.235 C187.225,233.232 193.92,265.458 217.944,281.2 C241.95,296.939 274.174,290.235 289.914,266.23 C305.652,242.223 298.944,209.997 274.928,194.259" fill="#1A1919"/>
  </g>
</svg>
