<?xml version="1.0" encoding="UTF-8"?>
<!DOCTYPE svg PUBLIC "-//W3C//DTD SVG 1.1//EN" "http://www.w3.org/Graphics/SVG/1.1/DTD/svg11.dtd">
<svg version="1.1" xmlns="http://www.w3.org/2000/svg" xmlns:xlink="http://www.w3.org/1999/xlink" x="0" y="0" width="256" height="256" viewBox="0, 0, 256, 256">
  <g id="Layer_1">
    <path d="M256,128 C256,198.7 198.7,256 128,256 C57.3,256 0,198.7 0,128 C0,57.3 57.3,0 128,0 C198.7,0 256,57.3 256,128 z" fill="#000000"/>
    <g>
      <path d="M86.3,186.2 L70.9,186.2 L70.9,79.1 L86.3,79.1 L86.3,127.5 L86.3,186.2 z" fill="#FFFFFF"/>
      <path d="M108.9,79.1 L150.5,79.1 C190.1,79.1 207.5,107.4 207.5,132.7 C207.5,160.2 186,186.3 150.7,186.3 L108.9,186.3 L108.9,79.1 z M124.3,172.4 L148.8,172.4 C183.7,172.4 191.7,145.9 191.7,132.7 C191.7,111.2 178,93 148,93 L124.3,93 L124.3,172.4 z" fill="#FFFFFF"/>
      <path d="M88.7,56.8 C88.7,62.3 84.2,66.9 78.6,66.9 C73,66.9 68.5,62.3 68.5,56.8 C68.5,51.2 73,46.7 78.6,46.7 C84.2,46.7 88.7,51.3 88.7,56.8 z" fill="#FFFFFF"/>
    </g>
  </g>
</svg>
