<?xml version="1.0" encoding="UTF-8"?>
<!DOCTYPE svg PUBLIC "-//W3C//DTD SVG 1.1//EN" "http://www.w3.org/Graphics/SVG/1.1/DTD/svg11.dtd">
<svg version="1.1" xmlns="http://www.w3.org/2000/svg" xmlns:xlink="http://www.w3.org/1999/xlink" x="0" y="0" width="400" height="400" viewBox="0, 0, 400, 400">
  <g id="Layer_1">
    <g>
      <path d="M76.894,65.809 C72.929,68.188 70.55,70.567 68.172,74.452 C61.669,85.395 61.828,82.382 62.145,202.593 C62.383,302.981 62.542,311.465 64.207,316.223 C66.982,324.39 71.661,330.496 77.925,333.985 L83.396,337.077 L198.374,337.315 C302.726,337.553 313.748,337.474 318.268,335.967 C327.466,332.875 334.365,324.311 336.823,312.734 C338.409,305.28 338.409,93.88 336.823,86.347 C335.316,79.448 331.907,72.867 327.783,68.902 C320.726,62.162 329.132,62.558 199.643,62.558 L82.365,62.558 L76.894,65.809 z M100.92,99.034 L102.031,102.523 L107.264,100.223 C115.511,96.576 121.458,95.307 127.643,95.783 C135.097,96.259 139.061,99.192 142.709,106.567 C145.326,111.8 145.405,112.752 145.405,127.58 C145.405,142.17 145.246,143.36 142.788,148.673 C140.964,152.558 139.061,154.937 136.365,156.602 C130.022,160.488 124.313,160.408 104.172,155.809 L101.951,155.333 L101.951,172.937 L101.951,190.54 L97.907,190.54 L93.943,190.54 L93.943,143.043 L93.943,95.545 L96.876,95.545 C99.255,95.545 99.969,96.1 100.92,99.034 z M220.497,98.162 C226.127,102.285 227.237,104.902 227.713,114.417 L228.189,123.377 L224.621,127.184 L221.052,131.069 L203.766,131.386 C194.251,131.545 186.083,132.021 185.608,132.496 C185.211,132.893 185.29,136.144 185.845,139.633 C186.638,144.629 187.431,146.611 189.572,148.435 C192.189,150.734 192.586,150.734 209.555,150.417 L226.92,150.1 L226.92,152.875 C226.92,156.523 224.621,157.316 209.555,158.743 C189.493,160.567 181.96,157.633 178.788,146.849 C176.647,139.395 176.885,113.386 179.185,107.439 C182.912,97.844 188.304,95.466 205.59,95.783 C216.057,96.021 218.118,96.338 220.497,98.162 z M269.819,99.51 L270.929,103.474 L279.176,99.51 C286.471,95.941 288.057,95.545 295.035,95.545 C301.854,95.545 302.726,95.783 303.202,97.607 C304.471,102.523 303.281,103.316 294.083,103.792 C287.184,104.109 284.013,104.822 278.383,107.36 L271.405,110.452 L271.167,134.479 L270.85,158.584 L266.885,158.584 L262.92,158.584 L262.92,127.104 L262.92,95.545 L265.775,95.545 C268.233,95.545 268.788,96.1 269.819,99.51 z M141.678,232.487 C143.581,232.567 143.898,233.122 143.898,236.056 L143.898,239.545 L125.978,239.545 C108.533,239.545 107.978,239.624 106.471,241.765 C104.489,244.62 104.409,253.421 106.392,256.276 C107.74,258.179 108.929,258.417 122.727,258.734 C139.061,259.13 141.202,259.765 145.008,265.871 C146.674,268.567 146.991,270.47 146.674,278.241 C146.198,294.179 142.868,296.082 119.079,294.496 C99.81,293.148 99.89,293.227 99.89,289.58 L99.89,286.567 L117.81,286.567 C138.268,286.567 138.031,286.725 138.744,278.003 C139.061,274.038 138.744,271.897 137.555,270.073 C135.89,267.615 135.731,267.536 121.854,267.536 C100.445,267.536 97.59,265.712 97.035,251.439 C96.718,241.686 97.59,238.117 101.555,234.47 C104.727,231.457 109.96,230.901 126.453,231.694 C133.59,232.091 140.409,232.408 141.678,232.487 z M297.334,232.963 C302.806,235.263 305.184,239.703 305.739,248.664 C306.215,257.545 305.739,260.32 303.123,263.333 C300.03,266.901 296.462,267.536 279.889,267.536 L263.951,267.536 L263.951,273.324 C263.951,280.064 266.488,285.139 270.374,286.17 C271.722,286.487 280.127,286.646 288.929,286.408 L305.026,286.091 L304.709,289.025 C304.312,292.593 302.647,293.148 287.105,294.655 C260.938,297.113 255.387,291.721 255.387,263.571 C255.387,243.271 257.766,237.166 266.885,233.201 C271.643,231.139 292.577,230.981 297.334,232.963 z" fill="#000000"/>
      <path d="M113.925,104.981 C111.467,105.695 107.74,107.043 105.678,107.915 L101.872,109.501 L102.11,128.69 L102.427,147.959 L105.44,148.752 C107.105,149.228 112.498,150.1 117.493,150.655 C134.304,152.717 137.317,149.228 137.396,128.056 C137.396,116.558 137.158,114.576 135.176,110.452 C133.907,107.915 131.766,105.377 130.339,104.743 C127.167,103.237 119.713,103.395 113.925,104.981 z" fill="#000000"/>
      <path d="M192.268,104.981 C188.304,106.805 186.4,110.373 185.449,117.827 L184.735,123.536 L200.119,123.536 C219.546,123.536 220.418,123.14 219.625,114.259 C218.832,105.298 217.326,104.188 205.193,103.871 C198.215,103.633 194.489,103.95 192.268,104.981 z" fill="#000000"/>
      <path d="M270.136,241.051 C266.092,242.796 263.951,247.553 263.951,254.531 L263.951,259.606 L278.7,259.606 C296.621,259.606 297.889,259.051 297.889,251.597 C297.889,245.175 296.303,241.923 292.656,240.655 C288.215,239.069 274.021,239.386 270.136,241.051 z" fill="#000000"/>
    </g>
    <path d="M184.835,231.21 C175.478,235.492 173.337,241.36 173.337,262.69 C173.337,277.677 173.416,278.39 176.191,283.941 C180.553,292.822 183.804,294.17 200.852,294.17 C216.473,294.17 219.645,293.06 223.213,286.161 C226.306,280.293 226.227,267.448 223.134,263.086 C219.487,258.012 216.156,257.219 198.632,257.219 L182.852,257.219 L182.852,253.73 C182.852,248.1 184.755,242.787 187.372,241.042 C189.434,239.694 192.526,239.536 207.354,239.853 L224.958,240.25 L224.641,236.761 C224.324,233.351 224.086,233.192 218.852,231.924 C215.839,231.21 207.751,230.417 200.852,230.1 C190.782,229.703 187.689,229.941 184.835,231.21 z M214.412,268.399 C216.711,270.699 215.998,281.404 213.381,283.227 C209.178,286.399 192.13,286.241 187.293,283.069 C184.676,281.324 182.852,276.249 182.852,270.461 L182.852,266.655 L197.76,266.655 C210.447,266.655 212.984,266.972 214.412,268.399 z" fill="#FFFFFF"/>
    <path d="M183.883,272.285 C183.962,273.474 184.2,273.712 184.517,272.84 C184.835,272.126 184.755,271.254 184.438,270.937 C184.121,270.619 183.883,271.254 183.883,272.285 z" fill="#000000"/>
    <path d="M175.319,235.73 C174.923,236.364 174.843,236.998 175.081,237.316 C175.399,237.553 175.874,237.078 176.191,236.205 C176.826,234.461 176.271,234.144 175.319,235.73 z" fill="#000000"/>
    <path d="M191.654,243.342 C192.368,243.659 193.24,243.659 193.557,243.263 C193.874,242.946 193.319,242.708 192.288,242.787 C191.099,242.787 190.861,243.025 191.654,243.342 z" fill="#000000"/>
    <path d="M186.658,244.373 C187.372,244.69 188.244,244.611 188.562,244.294 C188.879,243.976 188.324,243.738 187.293,243.738 C186.103,243.818 185.865,244.056 186.658,244.373 z" fill="#000000"/>
    <path d="M224.641,246.355 C225.354,246.672 226.227,246.593 226.544,246.276 C226.94,245.959 226.306,245.721 225.275,245.8 C224.086,245.8 223.848,246.038 224.641,246.355 z" fill="#000000"/>
    <path d="M179.363,293.694 C178.967,294.249 179.205,294.725 179.76,294.725 C180.394,294.725 180.87,294.249 180.87,293.694 C180.87,293.139 180.632,292.664 180.394,292.664 C180.156,292.664 179.68,293.139 179.363,293.694 z" fill="#000000"/>
    <path d="M201.724,309.95 L208.623,318.197 L214.015,318.038 C216.949,317.959 219.645,317.8 219.962,317.8 C220.28,317.721 216.949,314.073 212.429,309.712 C204.5,301.941 204.024,301.703 199.504,301.703 L194.747,301.703 L201.724,309.95 z" fill="#FFFFFF"/>
    <path d="M214.808,310.029 C214.808,310.267 215.601,311.06 216.632,311.853 C218.218,313.042 218.218,313.042 216.949,311.456 C215.68,309.791 214.808,309.236 214.808,310.029 z" fill="#000000"/>
    <path d="M214.65,326.364 C215.363,326.681 216.235,326.602 216.553,326.285 C216.87,325.967 216.315,325.73 215.284,325.73 C214.094,325.809 213.857,326.047 214.65,326.364 z" fill="#000000"/>
  </g>
</svg>
