<?xml version="1.0" encoding="UTF-8"?>
<!DOCTYPE svg PUBLIC "-//W3C//DTD SVG 1.1//EN" "http://www.w3.org/Graphics/SVG/1.1/DTD/svg11.dtd">
<svg version="1.1" xmlns="http://www.w3.org/2000/svg" xmlns:xlink="http://www.w3.org/1999/xlink" x="0" y="0" width="400" height="400" viewBox="0, 0, 400, 400">
  <g id="Layer_1">
    <g>
      <path d="M77.935,309.582 L77.935,193.013 L110.863,193.013 C115.498,192.974 120.122,193.601 124.651,194.88 C128.662,195.972 132.467,198.084 135.847,201.094 C139.072,204.064 141.667,208.044 143.39,212.666 C145.358,218.221 146.306,224.293 146.159,230.405 C146.272,236.5 145.296,242.546 143.307,248.068 C141.514,252.875 138.878,257.069 135.611,260.313 C132.254,263.583 128.446,265.988 124.392,267.399 C119.959,268.995 115.38,269.799 110.78,269.787 L98.17,269.787 L98.17,309.582 L77.935,309.582 z M98.17,249.17 L109.46,249.17 Q125.959,249.17 125.959,230.619 Q125.959,221.298 121.787,217.472 Q117.615,213.645 109.484,213.645 L98.17,213.645 L98.17,249.17 z" fill="#000000"/>
      <path d="M157.343,309.582 L157.343,193.013 L180.466,193.013 L195.433,245.39 L200.807,265.731 L201.349,265.731 L206.723,245.39 L221.29,193.013 L244,193.013 L244,309.582 L223.753,309.582 L223.753,266.864 Q223.753,262.593 224.036,257.389 Q224.319,252.185 224.79,246.92 Q225.262,241.64 225.686,236.527 Q226.11,231.415 226.546,227.145 L225.969,227.145 L218.462,254.114 L204.673,299.327 L196.553,299.327 L182.682,254.114 L175.504,227.145 L174.844,227.145 Q175.281,231.415 175.764,236.527 Q176.247,241.64 176.612,246.92 Q176.978,252.201 177.272,257.359 Q177.567,262.517 177.567,266.879 L177.567,309.582 L157.343,309.582 z" fill="#000000"/>
      <path d="M256.952,252.063 C256.839,243.239 258.014,234.467 260.417,226.211 C262.521,219.064 265.684,212.522 269.727,206.957 C273.558,201.744 278.198,197.649 283.339,194.941 C288.557,192.196 294.138,190.802 299.768,190.839 C305.055,190.741 310.281,192.317 314.994,195.431 C319.191,198.184 323.016,201.802 326.32,206.145 L315.23,222.492 C313.146,219.943 310.808,217.77 308.277,216.033 C305.712,214.399 302.883,213.59 300.027,213.676 C297.019,213.632 294.044,214.502 291.341,216.217 C288.605,218.003 286.194,220.529 284.27,223.625 C282.149,227.133 280.55,231.125 279.556,235.395 C278.343,240.473 277.754,245.767 277.812,251.083 Q277.812,269.129 283.704,279.032 C287.425,285.481 293.33,289.175 299.532,288.935 C302.876,289.033 306.187,288.061 309.172,286.103 C311.956,284.185 314.467,281.665 316.597,278.649 L327.758,294.521 C324.249,299.98 319.865,304.378 314.912,307.409 C310.008,310.313 304.674,311.786 299.285,311.725 C293.692,311.769 288.142,310.467 282.915,307.883 C277.851,305.378 273.258,301.495 269.444,296.496 C265.441,291.162 262.338,284.802 260.334,277.823 C257.987,269.583 256.841,260.848 256.952,252.063 z" fill="#000000"/>
      <path d="M44.5,129.585 L355.5,129.585 L204.673,44.5 L44.5,129.585 z" fill="#000000"/>
      <path d="M44.5,142.412 L355.5,142.412 L355.5,160.626 L44.5,160.626 z" fill="#000000"/>
      <path d="M44.5,337.286 L355.5,337.286 L355.5,355.5 L44.5,355.5 z" fill="#000000"/>
    </g>
  </g>
</svg>
