<?xml version="1.0" encoding="UTF-8"?>
<!DOCTYPE svg PUBLIC "-//W3C//DTD SVG 1.1//EN" "http://www.w3.org/Graphics/SVG/1.1/DTD/svg11.dtd">
<svg version="1.1" xmlns="http://www.w3.org/2000/svg" xmlns:xlink="http://www.w3.org/1999/xlink" x="0" y="0" width="2500" height="2500" viewBox="0, 0, 2500, 2500">
  <g id="Layer_1">
    <path d="M1420.642,1957.996 C1326.646,1855.714 1200.856,1691.426 1096.216,1505.71 C1269.068,1465.284 1397.068,1302.994 1397.068,1140.852 C1397.068,901.85 1211.432,790.922 968.07,790.922 C842.286,790.922 741.926,797.278 648.216,797.278 C562.712,797.278 477.282,797.278 424.07,795.208 L424.07,857.138 L505.068,871.994 C560.78,882.71 592.496,908.142 592.496,1040.566 L592.496,1881.212 C592.496,2013.572 560.782,2039.142 505.068,2049.712 L424.07,2064.852 L424.07,2126.57 C481.64,2124.5 581.926,2120.28 682.286,2120.28 C778.286,2120.28 902.072,2124.5 955.43,2126.57 L955.43,2064.852 L844.428,2049.712 C786.864,2041.352 756.854,2013.572 756.854,1881.212 L756.854,1524.926 C808.068,1529.212 852.854,1529.212 921.286,1529.212 C1051.43,1761.712 1175.208,1936.778 1245.5,2017.784 C1309.638,2094.708 1407.716,2143.714 1531.496,2143.714 C1567.716,2143.714 1606.08,2137.35 1629.5,2126.57 L1629.5,2071.208 C1552.714,2071.208 1475.93,2017.784 1420.64,1957.998 z M910.5,1433.138 C837.928,1433.138 806.074,1431.208 756.856,1426.57 L756.856,891.208 C806.074,886.922 872.07,886.922 929.714,886.922 C1109.068,886.922 1215.644,980.926 1215.644,1151.494 C1215.644,1320.066 1100.502,1433.138 910.5,1433.138 z M1561.86,894.566 C1559.716,883.354 1557.786,870.282 1556.074,855.208 C1554.29,839.994 1553.14,822.14 1552.432,801.068 C1551.716,780.142 1551.43,754.572 1551.43,725.284 C1551.43,695.852 1551.716,670.638 1552.432,649.64 C1553.142,628.568 1554.29,610.494 1556.074,595.426 C1557.786,580.424 1559.716,567.28 1561.86,556.068 C1563.93,544.782 1566.644,534.066 1570.148,523.57 C1588.5,468.07 1618.576,426.356 1660.648,398.35 C1702.646,370.35 1754.146,356.286 1815.286,356.286 C1846.716,356.286 1875.22,359.928 1900.504,367.352 C1925.504,374.71 1947.93,384.856 1967.714,397.852 C1987.214,410.71 2004.074,425.852 2018,442.996 C2032.284,460.206 2043.782,478.566 2052.786,498.284 C2056.282,504.566 2055.288,509.57 2049.714,513.066 L1972.072,544.992 C1965.496,548.496 1960.86,546.71 1957.21,539.776 C1939.788,507.49 1924.924,486.28 1900.502,470.854 C1875.788,455.494 1852.93,448.208 1815.284,448.208 C1774.354,448.208 1756.068,456.348 1730.43,474.708 C1704.998,492.708 1686.354,515.354 1675.354,549.848 C1673.146,556.066 1671.14,563.782 1668.786,572.852 C1666.856,582.068 1665.282,593.354 1664.288,606.564 C1663.286,619.78 1662.358,636.136 1661.502,655.424 C1660.932,674.712 1660.646,698.14 1660.646,725.282 C1660.646,752.564 1660.932,775.992 1661.502,795.28 C1662.358,814.494 1663.286,830.85 1664.288,844.066 C1665.282,857.422 1666.856,868.634 1668.786,877.924 C1671.142,886.854 1673.146,894.564 1675.354,900.854 C1686.354,935.21 1702.074,953.992 1725.216,969.068 C1748.074,984.354 1774.354,995.356 1815.284,995.356 C1851.644,995.356 1884.93,984.998 1906.64,969.208 C1928.144,953.424 1945.998,932.57 1954,904.066 C1957.504,892.064 1962.002,877.134 1965.074,858.85 C1967.86,840.564 1967.86,821.21 1967.86,794.498 C1967.86,790.278 1965.498,788.134 1961.57,788.134 L1837.212,788.134 C1830.212,788.134 1826.782,784.71 1826.782,777.712 L1826.782,706.426 C1826.782,699.354 1830.212,695.922 1837.212,695.922 L2065.426,695.922 C2072.572,695.922 2075.93,699.352 2075.93,706.426 L2075.93,767.354 C2075.93,799.64 2075.93,829.57 2072.572,857.284 C2069.354,884.998 2065.002,908.996 2059.502,926.492 C2042.072,981.284 2014.432,1020.284 1972.074,1049.35 C1929.57,1078.636 1874.786,1094.42 1815.284,1094.42 C1754.144,1094.42 1702.644,1080.354 1660.646,1052.422 C1618.574,1024.138 1588.498,982.636 1570.146,927.136 C1566.642,916.64 1563.928,905.852 1561.858,894.566 z" fill="#000000"/>
  </g>
</svg>
