<?xml version="1.0" encoding="UTF-8"?>
<!DOCTYPE svg PUBLIC "-//W3C//DTD SVG 1.1//EN" "http://www.w3.org/Graphics/SVG/1.1/DTD/svg11.dtd">
<svg version="1.1" xmlns="http://www.w3.org/2000/svg" xmlns:xlink="http://www.w3.org/1999/xlink" x="0" y="0" width="455.731" height="455.731" viewBox="0, 0, 455.731, 455.731">
  <g id="Layer_1">
    <g>
      <path d="M296.208,159.16 C234.445,97.397 152.266,63.382 64.81,63.382 L64.81,127.73 C135.078,127.73 201.098,155.051 250.708,204.661 C300.317,254.271 327.639,320.291 327.639,390.559 L391.987,390.559 C391.986,303.103 357.971,220.923 296.208,159.16 z" fill="#000000"/>
      <path d="M64.143,172.273 L64.143,236.621 C149.024,236.621 218.081,305.677 218.081,390.56 L282.429,390.56 C282.429,270.196 184.507,172.273 64.143,172.273 z" fill="#000000"/>
      <path d="M155.921,346.26 C155.921,371.714 135.287,392.348 109.833,392.348 C84.379,392.348 63.745,371.714 63.745,346.26 C63.745,320.806 84.379,300.172 109.833,300.172 C135.287,300.172 155.921,320.806 155.921,346.26 z" fill="#000000"/>
    </g>
  </g>
</svg>
