<?xml version="1.0" encoding="UTF-8"?>
<!DOCTYPE svg PUBLIC "-//W3C//DTD SVG 1.1//EN" "http://www.w3.org/Graphics/SVG/1.1/DTD/svg11.dtd">
<svg version="1.1" xmlns="http://www.w3.org/2000/svg" xmlns:xlink="http://www.w3.org/1999/xlink" x="0" y="0" width="400" height="400" viewBox="0, 0, 400, 400">
  <g id="Layer_1">
    <g>
      <path d="M87.544,62.453 L87.544,71.5 L68.497,71.5 L49.449,71.5 L49.83,154.262 C50.021,217.119 50.402,237.881 51.354,240.643 C53.068,245.786 60.687,253.881 66.306,256.643 L71.068,259.024 L199.544,259.024 L328.02,259.024 L333.735,256.167 C336.877,254.643 341.068,251.595 342.973,249.31 C349.83,241.31 349.544,246.072 349.544,144.834 L349.544,53.5 L218.592,53.5 L87.544,53.5 L87.544,62.453 z M330.592,153.405 L330.592,235.31 L327.449,237.881 L324.401,240.453 L214.401,240.453 C114.401,240.453 104.401,240.357 104.973,238.929 C105.259,238.072 105.544,199.976 105.544,154.453 L105.544,71.5 L218.02,71.5 L330.592,71.5 L330.592,153.405 z M87.544,161.5 C87.544,214.357 87.259,233.119 86.306,235.024 C83.83,240.453 76.497,242.072 71.83,238.072 L69.068,235.691 L68.782,163.119 L68.497,90.453 L78.021,90.453 L87.544,90.453 L87.544,161.5 z" fill="#000000"/>
      <path d="M124.592,137.5 L124.592,184.453 L171.544,184.453 L218.592,184.453 L218.592,137.5 L218.592,90.453 L171.544,90.453 L124.592,90.453 L124.592,137.5 z M199.544,137.5 L199.544,165.5 L171.544,165.5 L143.544,165.5 L143.544,137.5 L143.544,109.5 L171.544,109.5 L199.544,109.5 L199.544,137.5 z" fill="#000000"/>
      <path d="M237.544,99.976 L237.544,109.5 L275.068,109.5 L312.592,109.5 L312.592,99.976 L312.592,90.453 L275.068,90.453 L237.544,90.453 L237.544,99.976 z" fill="#000000"/>
      <path d="M237.544,137.5 L237.544,146.453 L275.068,146.453 L312.592,146.453 L312.592,137.5 L312.592,128.453 L275.068,128.453 L237.544,128.453 L237.544,137.5 z" fill="#000000"/>
      <path d="M237.544,175.024 L237.544,184.453 L275.068,184.453 L312.592,184.453 L312.592,175.024 L312.592,165.5 L275.068,165.5 L237.544,165.5 L237.544,175.024 z" fill="#000000"/>
      <path d="M125.163,203.214 C124.878,203.5 124.592,207.786 124.592,212.643 L124.592,221.5 L171.544,221.5 L218.592,221.5 L218.306,212.262 L218.02,203.024 L171.925,202.738 C146.592,202.643 125.544,202.834 125.163,203.214 z" fill="#000000"/>
      <path d="M237.544,212.453 L237.544,221.5 L275.068,221.5 L312.592,221.5 L312.592,212.453 L312.592,203.5 L275.068,203.5 L237.544,203.5 L237.544,212.453 z" fill="#000000"/>
      <path d="M60.592,284.738 C52.973,288.833 50.402,297.024 54.782,303.595 C56.687,306.452 58.497,307.5 65.449,309.786 C75.354,313.024 77.068,314.167 75.354,316.262 C73.64,318.357 67.449,317.31 60.497,313.691 L54.782,310.833 L52.211,316.167 L49.544,321.5 L52.782,323.5 C64.402,330.643 83.925,329.881 89.068,322.167 C91.544,318.262 92.021,312.357 90.116,308.738 C88.021,304.548 85.354,302.833 77.354,300.357 C69.83,298.072 66.878,296.357 67.925,294.643 C69.068,292.833 73.544,293.31 80.021,295.976 C83.354,297.405 86.116,298.452 86.306,298.452 C86.401,298.452 87.735,296.167 89.163,293.31 C91.64,288.357 91.735,288.072 89.925,286.833 C83.64,282.167 67.544,281.119 60.592,284.738 z" fill="#000000"/>
      <path d="M105.449,285.31 C90.211,293.214 89.354,315.976 103.925,324.929 C112.592,330.357 125.544,329.31 133.544,322.643 L136.878,319.881 L132.687,315.214 L128.401,310.643 L124.878,313.119 C117.449,318.071 109.735,314.833 108.878,306.452 C107.83,295.691 117.068,291.024 125.354,297.976 L128.306,300.548 L132.687,295.405 L136.973,290.262 L134.02,287.881 C126.497,281.881 114.116,280.738 105.449,285.31 z" fill="#000000"/>
      <path d="M139.544,305.5 L139.544,328.452 L147.068,328.452 L154.592,328.452 L154.592,319.976 L154.592,311.5 L161.544,311.5 L168.592,311.5 L168.592,319.976 L168.592,328.452 L176.02,328.452 L183.544,328.452 L183.544,305.5 L183.544,282.452 L176.02,282.452 L168.592,282.452 L168.592,291.5 L168.592,300.452 L161.544,300.452 L154.592,300.452 L154.592,291.5 L154.592,282.452 L147.068,282.452 L139.544,282.452 L139.544,305.5 z" fill="#000000"/>
      <path d="M242.592,305.5 L242.592,328.452 L259.544,328.452 L276.592,328.452 L276.592,321.976 L276.592,315.5 L267.068,315.5 L257.544,315.5 L257.544,299.024 L257.544,282.452 L250.02,282.452 L242.592,282.452 L242.592,305.5 z" fill="#000000"/>
      <path d="M280.592,305.5 L280.592,328.452 L288.02,328.452 L295.544,328.452 L295.544,305.5 L295.544,282.452 L288.02,282.452 L280.592,282.452 L280.592,305.5 z" fill="#000000"/>
      <path d="M308.497,302.262 C304.02,313.119 299.639,323.5 298.877,325.214 L297.544,328.452 L304.973,328.452 L312.496,328.452 L314.02,325.024 L315.449,321.5 L323.925,321.5 L332.401,321.5 L333.544,325.024 L334.687,328.452 L342.592,328.452 L350.496,328.452 L348.782,324.262 C347.83,321.881 343.639,311.595 339.544,301.214 L332.02,282.548 L324.401,282.548 L316.782,282.452 L308.497,302.262 z M327.925,309.214 C328.592,311.405 328.401,311.5 324.116,311.5 C321.639,311.5 319.544,311.119 319.544,310.738 C319.544,310.357 320.496,307.119 321.735,303.691 L323.925,297.31 L325.639,302.167 C326.496,304.833 327.544,307.976 327.925,309.214 z" fill="#000000"/>
      <path d="M190.592,305.976 L190.592,328.452 L213.068,328.452 L235.544,328.452 L235.544,305.976 L235.544,283.5 L213.068,283.5 L190.592,283.5 L190.592,305.976 z M226.592,305.976 L226.592,319.5 L213.068,319.5 L199.544,319.5 L199.544,305.976 L199.544,292.452 L213.068,292.452 L226.592,292.452 L226.592,305.976 z" fill="#000000"/>
      <path d="M190.592,341.976 L190.592,346.452 L213.068,346.452 L235.544,346.452 L235.544,341.976 L235.544,337.5 L213.068,337.5 L190.592,337.5 L190.592,341.976 z" fill="#000000"/>
    </g>
  </g>
</svg>
