<?xml version="1.0" encoding="UTF-8"?>
<!DOCTYPE svg PUBLIC "-//W3C//DTD SVG 1.1//EN" "http://www.w3.org/Graphics/SVG/1.1/DTD/svg11.dtd">
<svg version="1.1" xmlns="http://www.w3.org/2000/svg" xmlns:xlink="http://www.w3.org/1999/xlink" x="0" y="0" width="300" height="300" viewBox="0, 0, 300, 300">
  <g id="Layer_1">
    <g>
      <path d="M111.866,58.021 L105.39,64.497 L112.151,64.497 L118.913,64.497 L118.913,58.021 C118.913,54.402 118.723,51.449 118.628,51.449 C118.437,51.449 115.39,54.402 111.866,58.021 z" fill="#000000"/>
      <path d="M98.151,71.735 L91.866,78.021 L91.866,118.783 L91.866,159.449 L132.151,159.449 L172.437,159.449 L178.913,152.973 L185.294,146.497 L179.104,146.497 L172.913,146.497 L172.913,112.497 L172.913,78.497 L138.913,78.497 L104.913,78.497 L104.628,71.926 L104.342,65.449 L98.151,71.735 z" fill="#000000"/>
      <path d="M185.866,139.259 L185.866,145.925 L192.342,139.449 C195.961,135.926 198.913,132.973 198.913,132.783 C198.913,132.592 195.961,132.497 192.342,132.497 L185.866,132.497 L185.866,139.259 z" fill="#000000"/>
      <path d="M166.532,174.021 C164.151,176.402 164.437,178.592 167.866,182.687 C171.961,187.64 174.151,193.068 173.389,196.497 C172.437,200.687 166.913,205.925 161.39,207.925 C141.009,215.259 134.628,220.783 133.009,232.306 C132.342,237.354 130.628,238.402 125.294,237.068 C121.675,236.116 121.39,232.687 124.342,222.021 C125.771,216.783 126.723,212.021 126.342,211.449 C124.628,208.592 118.628,211.354 104.913,221.449 C98.342,226.306 90.818,230.497 88.913,230.497 C87.009,230.497 87.771,228.021 92.532,218.878 C96.628,210.973 97.104,209.544 95.961,208.116 C94.151,205.925 89.009,206.116 85.39,208.497 C83.675,209.544 81.485,210.497 80.342,210.592 C78.723,210.687 78.818,210.783 80.913,211.354 C84.628,212.402 84.437,215.259 79.866,224.021 C75.866,232.021 74.913,237.068 77.104,239.259 C77.771,239.925 80.628,240.497 83.39,240.497 C89.58,240.497 99.58,235.925 107.199,229.544 C109.866,227.354 112.247,225.449 112.437,225.449 C112.723,225.544 112.628,227.925 112.247,230.878 C111.485,237.354 112.818,240.116 117.39,242.116 C122.056,244.021 125.771,243.83 129.675,241.449 L133.104,239.449 L135.39,241.925 C142.342,249.449 159.58,238.973 172.437,219.449 C176.247,213.735 178.056,211.925 180.056,211.735 C181.485,211.544 183.485,210.497 184.437,209.449 C186.151,207.544 186.151,207.354 184.056,204.497 C182.247,202.116 181.866,200.211 181.866,193.83 C181.866,188.402 181.294,184.783 179.961,182.021 C176.628,174.687 169.866,170.687 166.532,174.021 z M160.913,218.402 C160.913,221.925 145.866,234.878 144.437,232.592 C142.818,229.925 149.009,222.973 156.342,219.068 C159.77,217.259 160.913,217.164 160.913,218.402 z" fill="#000000"/>
      <path d="M67.771,202.878 C61.104,204.687 54.152,209.068 52.247,212.687 C51.009,215.068 50.818,217.259 51.294,221.449 L51.961,227.068 L44.437,232.306 C36.247,237.925 33.39,241.354 34.342,244.306 C36.152,250.021 51.675,249.83 58.723,244.021 C63.58,239.925 64.437,236.592 62.532,228.687 C60.532,220.687 61.39,216.306 65.771,212.021 C68.342,209.64 69.294,209.354 73.009,209.735 C75.39,209.925 76.628,210.021 75.675,209.735 C74.152,209.449 74.342,208.973 76.628,207.068 C78.913,205.068 79.104,204.497 77.961,203.068 C76.437,201.259 74.056,201.164 67.771,202.878 z M51.39,237.068 C49.009,240.687 44.152,242.973 41.294,241.64 C37.961,240.116 39.009,238.306 46.247,232.402 L52.342,227.449 L52.723,231.068 C52.818,233.163 52.342,235.64 51.39,237.068 z" fill="#000000"/>
      <path d="M239.389,206.973 C226.818,209.735 218.247,214.973 214.913,221.925 C206.723,238.783 225.961,249.259 247.008,239.354 C252.628,236.687 265.866,228.021 265.866,226.973 C265.866,226.687 263.008,228.021 259.58,229.925 C247.199,236.687 235.866,238.306 229.77,234.211 C225.58,231.449 224.913,227.449 227.866,222.687 C230.342,218.687 236.247,215.83 243.866,214.973 C253.199,213.925 253.866,213.64 253.866,211.068 C253.866,206.497 248.532,204.973 239.389,206.973 z" fill="#000000"/>
      <path d="M187.104,210.592 C182.818,213.735 177.199,220.878 175.104,225.83 C173.294,229.83 173.58,239.068 175.485,242.021 C176.342,243.354 179.009,245.163 181.389,246.021 C185.77,247.735 185.77,247.735 192.247,244.687 C196.913,242.497 199.58,240.497 201.77,237.449 C204.723,233.354 204.913,232.687 204.913,223.544 C204.913,214.402 205.009,213.735 207.104,212.687 C209.389,211.64 209.389,211.64 206.723,211.544 C205.294,211.544 203.009,210.592 201.58,209.449 C197.77,206.497 192.151,206.878 187.104,210.592 z M194.342,223.83 C196.247,226.687 194.818,232.687 191.294,236.211 C188.437,238.973 186.151,238.878 184.342,236.021 C182.628,233.354 184.723,226.878 188.342,223.735 C191.675,220.973 192.437,220.973 194.342,223.83 z" fill="#000000"/>
    </g>
  </g>
</svg>
