<?xml version="1.0" encoding="UTF-8"?>
<!DOCTYPE svg PUBLIC "-//W3C//DTD SVG 1.1//EN" "http://www.w3.org/Graphics/SVG/1.1/DTD/svg11.dtd">
<svg version="1.1" xmlns="http://www.w3.org/2000/svg" xmlns:xlink="http://www.w3.org/1999/xlink" x="0" y="0" width="400" height="400" viewBox="0, 0, 400, 400">
  <g id="Layer_1">
    <g>
      <path d="M183.473,60.486 C181.569,60.963 177.378,62.105 174.235,63.058 C167.378,64.963 167.093,66.201 172.235,70.963 C177.093,75.344 178.807,75.725 185.95,73.725 C200.14,69.915 218.616,68.772 234.045,70.867 C240.807,71.725 241.092,72.105 237.664,75.248 C235.664,77.058 232.997,78.296 229.759,78.772 C222.521,79.82 210.331,84.963 205.283,89.153 C199.854,93.534 195.473,99.058 192.14,105.82 C189.188,111.534 185.759,123.915 186.712,124.867 C187.854,126.01 199.283,122.296 209.378,117.534 C231.473,107.058 241.188,97.058 240.235,85.629 C239.854,80.486 239.95,80.105 243.188,77.248 C246.997,73.82 248.616,73.725 256.045,75.82 C259.473,76.867 261.473,78.01 261.473,78.963 C261.473,81.439 256.712,87.629 252.997,89.82 C243.854,95.344 236.997,104.201 234.045,114.201 C232.235,120.582 231.854,139.248 233.569,139.248 C234.14,139.248 236.045,138.296 237.854,137.058 C242.807,133.629 251.759,126.296 250.997,126.296 C250.616,126.296 251.759,124.677 253.473,122.582 C258.997,116.391 262.521,107.534 262.616,100.01 C262.616,96.391 262.331,92.486 261.95,91.344 C260.997,88.201 264.521,80.296 266.807,80.296 C269.378,80.296 282.616,87.534 289.569,92.677 C301.378,101.344 311.092,111.915 316.426,121.82 C318.235,125.058 320.14,128.201 320.616,128.772 C321.092,129.248 321.473,130.296 321.473,131.058 C321.473,133.724 325.759,138.582 329.854,140.391 C337.95,144.105 338.235,142.963 331.854,130.677 C326.426,120.201 317.283,108.201 308.331,99.82 C301.378,93.153 287.473,82.963 280.521,79.248 C278.045,77.915 275.854,76.486 275.664,76.01 C275.473,75.629 274.807,75.248 274.331,75.248 C273.759,75.248 270.521,74.01 267.092,72.391 C258.616,68.296 247.95,64.867 234.616,61.82 C224.521,59.629 221.093,59.344 205.093,59.439 C195.093,59.439 185.378,59.915 183.473,60.486 z" fill="#000000"/>
      <path d="M140.426,67.344 C137.188,70.772 134.807,77.248 135.855,79.82 C136.14,80.677 139.378,82.772 142.902,84.296 C146.426,85.915 149.569,87.724 149.95,88.201 C150.807,89.629 143.854,92.867 138.426,93.724 C134.712,94.201 133.474,94.01 131.664,92.486 C130.426,91.439 129.474,90.296 129.474,89.915 C129.474,89.534 128.235,87.915 126.807,86.296 C121.95,80.772 117.188,80.772 107.474,86.105 C97.093,91.82 92.521,95.344 92.521,97.724 C92.521,100.963 97.378,110.201 99.759,111.439 C102.997,113.153 110.521,111.915 117.855,108.391 C121.664,106.677 124.997,105.439 125.283,105.82 C126.712,107.248 121.759,113.248 115.378,117.534 C103.093,126.01 100.235,132.963 100.045,154.772 C99.95,171.343 100.616,175.248 103.283,175.248 C105.664,175.248 114.331,166.677 116.045,162.772 C117.569,159.058 121.95,141.629 122.902,135.534 C123.759,129.629 126.426,123.248 128.045,123.248 C129.093,123.248 129.474,124.963 129.474,130.391 C129.474,138.677 130.902,141.82 136.331,146.201 C141.283,150.105 142.902,150.105 144.712,146.01 C147.664,139.724 148.331,135.629 148.712,122.01 C149.093,110.105 149.378,107.82 151.188,105.534 C152.235,104.01 153.569,103.058 154.045,103.248 C154.616,103.534 154.807,106.582 154.616,110.01 L154.235,116.105 L158.331,118.772 C164.616,122.963 166.616,122.105 168.616,114.296 C169.759,109.915 170.14,105.915 169.759,102.105 C168.902,93.724 169.759,91.534 174.712,89.439 C181.283,86.582 191.569,84.296 198.235,84.105 C203.188,84.01 204.426,83.629 204.807,82.105 C205.093,81.153 204.807,80.01 204.331,79.724 C203.093,78.963 192.712,80.677 182.045,83.439 C173.569,85.629 168.902,85.439 164.902,82.772 C162.807,81.439 162.426,80.486 162.426,75.058 C162.426,71.629 162.14,68.296 161.664,67.725 C160.426,65.915 154.426,64.296 148.712,64.296 C143.95,64.296 142.902,64.677 140.426,67.344 z" fill="#000000"/>
      <path d="M89.093,119.344 C86.521,122.582 84.521,125.534 84.521,125.82 C84.521,126.963 76.807,137.058 73.188,140.772 C65.378,148.772 58.902,161.058 56.426,172.772 C53.569,186.01 55.378,204.01 60.521,214.581 C61.95,217.534 62.712,221.343 62.997,227.248 C63.474,237.724 66.997,250.486 72.902,262.962 C78.521,274.772 81.855,279.534 90.426,288.01 C102.14,299.629 112.616,305.915 125.474,308.962 C131.95,310.581 132.712,310.581 138.712,308.962 C142.14,307.915 146.616,305.819 148.712,304.2 C151.569,301.915 154.331,300.962 160.902,299.819 C173.664,297.534 178.616,295.439 180.712,291.343 C181.664,289.439 182.235,287.724 182.14,287.629 C181.95,287.439 178.807,288.677 175.188,290.296 C166.426,294.486 156.712,296.01 152.616,293.915 C150.997,293.058 143.283,290.772 135.474,288.867 C117.283,284.296 113.569,283.058 104.521,278.105 C90.616,270.486 80.426,260.772 72.712,247.724 C68.807,240.962 64.712,230.677 63.95,225.248 L63.283,220.772 L67.95,226.105 C72.807,231.534 78.807,235.248 82.521,235.248 C87.855,235.343 92.807,229.915 96.997,219.629 C100.616,210.867 100.14,204.677 94.712,192.296 C89.188,179.439 81.474,148.677 81.474,139.058 C81.474,134.01 86.807,124.01 92.426,118.677 C96.045,115.344 96.807,113.248 94.521,113.248 C94.045,113.248 91.569,116.01 89.093,119.344 z" fill="#000000"/>
      <path d="M273.473,120.391 C273.473,120.963 274.331,122.677 275.378,124.105 C278.235,128.201 283.664,139.058 286.807,146.772 C288.426,150.677 290.235,155.153 290.997,156.772 C293.664,163.058 297.759,176.296 300.997,189.248 C308.426,219.153 311.473,247.343 309.569,269.248 C308.902,276.391 307.759,284.391 306.997,286.962 C304.14,296.2 305.569,296.105 315.283,286.296 C329.473,272.105 338.426,255.153 343.092,233.248 C345.473,222.105 345.569,198.01 343.188,187.534 C338.235,166.105 326.997,148.105 310.521,135.343 C305.759,131.629 296.521,126.296 294.997,126.296 C294.711,126.296 296.616,129.153 299.283,132.582 C311.569,148.296 322.045,171.915 327.569,196.296 C330.33,208.677 331.188,229.534 329.092,237.248 L327.664,242.772 L327.569,231.153 C327.378,210.772 324.235,195.248 316.521,176.391 C307.188,153.724 296.426,138.01 281.569,125.058 C274.902,119.248 273.473,118.391 273.473,120.391 z" fill="#000000"/>
      <path d="M249.569,138.01 C246.997,145.439 242.331,152.105 233.854,160.867 C221.95,173.058 212.235,188.105 207.95,201.153 C205.283,209.439 206.14,223.343 209.759,229.534 C212.235,233.724 217.283,239.439 218.902,239.629 C219.283,239.724 220.902,235.724 222.616,230.772 C226.14,220.105 232.807,205.82 237.759,198.01 C244.235,187.915 248.616,178.105 250.997,168.486 C252.331,163.343 253.569,158.867 253.95,158.486 C254.235,158.201 254.521,160.201 254.521,162.962 C254.521,172.105 250.902,182.962 242.426,199.534 C238.045,208.201 233.759,217.915 232.902,221.153 C230.902,229.058 229.569,240.581 230.521,241.629 C230.902,242.105 236.616,237.153 243.092,230.677 C258.616,215.248 262.902,207.248 266.045,188.296 C267.759,178.105 267.854,168.296 266.331,162.772 C264.997,157.915 260.616,148.582 256.235,141.629 C251.473,133.915 251.092,133.724 249.569,138.01 z" fill="#000000"/>
      <path d="M166.997,141.343 C159.664,142.582 153.474,144.963 151.378,147.439 C148.14,151.153 148.997,153.629 155.283,159.153 C160.997,164.105 164.426,168.677 163.188,169.915 C162.807,170.296 161.188,169.343 159.474,167.915 C155.759,164.867 147.759,162.296 141.759,162.296 C129.95,162.296 123.759,171.058 127.664,182.391 C130.045,189.153 131.569,189.343 145.569,183.724 C150.331,181.82 155.759,180.296 157.569,180.296 L160.997,180.391 L155.474,185.058 C142.807,195.82 138.521,201.915 138.521,208.962 C138.521,212.201 138.807,212.581 144.997,215.343 C148.616,216.962 153.474,218.581 155.759,218.962 C159.569,219.439 160.426,219.153 163.378,216.391 L166.712,213.248 L166.045,203.058 C165.569,194.962 165.664,192.391 166.807,190.867 C168.045,189.058 168.426,189.439 171.569,195.343 C175.854,203.439 185.664,213.534 190.807,215.248 C192.902,215.915 194.712,216.296 194.807,216.105 C204.14,201.629 205.854,197.058 204.14,191.82 C203.093,188.486 199.569,187.153 191.093,186.582 C186.331,186.296 181.95,185.439 180.521,184.486 L178.045,182.962 L183.473,181.153 C193.473,177.724 209.473,168.391 209.473,165.82 C209.473,164.486 199.759,154.963 196.807,153.439 C191.093,150.486 187.664,152.772 182.902,162.677 C180.426,167.629 175.854,173.058 174.807,172.01 C174.712,171.82 174.997,168.772 175.569,165.248 C176.807,157.724 176.235,149.248 174.045,144.01 C173.188,142.01 172.331,140.391 172.235,140.391 C172.045,140.486 169.759,140.867 166.997,141.343 z" fill="#000000"/>
      <path d="M276.616,177.439 C275.378,187.915 273.188,195.153 264.997,216.581 C261.95,224.677 258.712,234.201 257.759,237.724 C256.235,244.105 256.235,244.105 253.092,243.629 C246.521,242.581 242.426,248.772 237.569,266.867 C234.616,277.915 234.331,278.2 232.807,270.486 L231.95,266.105 L229.283,268.581 C227.759,270.01 221.473,274.962 215.188,279.629 C201.664,289.82 196.997,294.677 195.473,300.2 L194.426,304.2 L187.95,303.629 C177.664,302.677 166.14,307.248 150.902,318.391 C143.855,323.629 141.759,325.915 142.997,327.153 C144.235,328.391 165.854,328.486 173.569,327.343 C213.093,321.534 261.473,286.2 279.569,249.915 C283.664,241.724 284.521,240.581 283.95,243.82 C282.997,249.534 279.759,258.867 276.426,265.629 C262.045,294.677 220.712,326.677 183.664,337.439 C176.521,339.439 180.807,340.296 200.426,340.581 C219.664,340.772 220.902,340.486 219.664,336.105 C219.188,334.2 219.473,334.2 225.093,334.962 C228.331,335.439 233.188,335.724 235.95,335.629 C241.95,335.439 252.331,333.343 253.092,332.2 C253.378,331.724 254.235,331.343 254.997,331.343 C257.188,331.343 274.14,320.581 274.807,318.772 C275.569,316.772 271.569,312.581 268.331,311.915 C266.997,311.629 264.331,311.153 262.331,310.867 C260.331,310.486 257.95,309.343 256.997,308.296 C255.188,306.296 255.283,306.296 258.521,306.296 C260.426,306.296 264.426,307.439 267.283,308.772 C274.997,312.391 279.759,312.105 283.569,308.01 C290.521,300.486 294.521,287.058 292.14,279.153 L290.807,274.677 L293.473,275.058 C294.997,275.343 297.188,274.962 298.235,274.391 C300.045,273.439 300.235,272.581 299.854,264.581 C298.235,230.581 295.664,210.867 290.997,195.343 C288.426,186.772 282.902,174.677 279.664,170.486 C277.854,168.105 277.854,168.201 276.616,177.439 z" fill="#000000"/>
      <path d="M119.664,219.343 C115.378,221.534 113.474,223.058 113.474,224.296 C113.474,225.343 113.95,226.486 114.521,226.772 C116.712,228.201 115.188,228.772 110.235,228.486 C105.474,228.201 104.712,228.391 101.95,231.248 C99.378,234.01 98.997,235.153 99.093,239.534 C99.188,245.82 101.093,247.724 106.997,246.962 C109.188,246.677 111.664,246.772 112.521,247.343 C113.474,247.915 113.569,248.296 112.807,248.296 C108.712,248.296 105.855,256.677 108.997,259.343 C110.521,260.581 116.807,260.201 122.426,258.677 L124.997,257.915 L122.235,261.153 C118.902,265.058 118.712,268.105 121.569,271.629 C124.426,275.343 130.14,275.248 137.093,271.343 C140.045,269.629 142.616,268.772 142.997,269.248 C143.283,269.82 142.616,272.105 141.474,274.391 C138.807,279.534 139.378,282.391 143.95,285.915 C147.474,288.581 147.569,288.581 151.854,286.867 C157.759,284.677 160.235,282.01 161.569,276.772 C162.235,274.296 163.188,272.296 163.854,272.296 C164.426,272.296 166.045,273.915 167.378,275.82 C170.807,280.867 174.712,282.581 181.95,282.391 C188.045,282.2 192.045,280.486 193.188,277.629 C193.473,276.772 192.807,274.105 191.664,271.629 C190.426,269.248 189.473,266.867 189.473,266.391 C189.473,265.915 191.759,265.343 194.521,265.058 C200.616,264.486 204.902,260.867 206.712,254.962 C208.045,250.486 207.378,249.82 201.283,248.772 C197.473,248.105 197.473,248.105 198.14,244.201 C198.807,240.105 196.616,235.248 194.14,235.248 C193.473,235.248 190.235,236.867 186.997,238.772 C183.854,240.677 181.093,242.296 180.902,242.296 C180.712,242.296 180.426,240.581 180.331,238.581 C180.045,235.248 179.664,234.772 177.378,234.962 C175.95,235.058 172.14,236.962 168.997,239.248 C165.759,241.439 162.997,243.153 162.807,242.962 C162.616,242.772 162.902,240.581 163.569,238.105 C165.283,231.724 164.331,229.915 159.759,230.677 C157.759,230.962 153.854,232.581 151.188,234.296 C145.854,237.629 144.712,237.629 146.426,234.486 C147.854,231.82 146.235,227.724 143.569,226.772 C142.426,226.486 140.235,226.772 138.712,227.534 C135.95,228.962 135.855,228.867 136.331,226.105 C136.997,221.343 135.759,218.581 132.331,217.439 C127.664,215.82 126.426,216.01 119.664,219.343 z M133.664,245.439 C139.474,249.343 151.093,255.534 155.283,256.772 C156.616,257.153 157.378,257.724 157.093,258.01 C155.569,259.534 138.045,251.248 129.759,245.058 C125.093,241.534 119.474,235.343 119.474,233.82 C119.474,233.534 121.378,235.058 123.759,237.343 C126.045,239.629 130.521,243.248 133.664,245.439 z" fill="#000000"/>
    </g>
  </g>
</svg>
