<?xml version="1.0" encoding="UTF-8"?>
<!DOCTYPE svg PUBLIC "-//W3C//DTD SVG 1.1//EN" "http://www.w3.org/Graphics/SVG/1.1/DTD/svg11.dtd">
<svg version="1.1" xmlns="http://www.w3.org/2000/svg" xmlns:xlink="http://www.w3.org/1999/xlink" x="0" y="0" width="500" height="500" viewBox="0, 0, 500, 500">
  <g id="g2492">
    <path d="M248.696,35.001 C180.423,35.455 120.003,70.975 83.056,125.234 L416.944,125.234 C379.758,70.625 318.832,35.001 250.016,35.001 C249.574,35.001 249.137,34.998 248.696,35.001 z" fill="#000000" id="path1334"/>
    <path d="M71.208,144.838 C54.533,175.937 45,211.789 45,249.985 C45,368.665 136.856,465 250.016,465 C363.175,465 455,368.665 455,249.985 C455,211.789 445.498,175.937 428.823,144.838 L71.208,144.838 z" fill="#000000" id="path2488"/>
    <path d="M83.056,125.234 C78.774,131.522 74.836,138.072 71.208,144.838 L428.823,144.838 C425.195,138.072 421.226,131.522 416.944,125.234 L83.056,125.234 z" fill="#FFFFFF" id="path2361"/>
    <path d="M337.565,59.107 C336.714,59.122 335.8,59.311 334.831,59.607 C325.699,74.184 325.727,122.48 325.844,132.926 C325.863,132.93 325.887,132.921 325.907,132.926 C339.426,135.925 357.326,132.481 357.929,119.544 C358.962,102.494 359.994,85.958 350.952,75.334 C342.686,79.104 344.255,63.847 340.896,60.42 C340.058,59.463 338.892,59.085 337.565,59.107 z" fill="#000000" id="path2219"/>
    <path d="M334.831,59.607 C330.016,61.079 324.155,65.447 321.256,66.861 C318.735,67.13 314.058,66.935 310.571,67.83 C303.075,69.755 296.251,74.332 292.314,81.525 C287.228,66.755 276.313,84.918 263.371,95.376 C256.202,89.978 241.761,79.21 228.521,72.27 C217.872,77.668 206.711,95.897 200.082,97.439 C193.193,98.724 183.483,97.965 179.436,102.848 C172.719,109.788 170.64,117.749 169.348,125.203 C185.107,130.772 201.638,130.941 217.397,128.799 C226.352,126.657 232.725,129.673 241.94,129.33 C269.905,130.529 300.195,127.118 325.844,132.926 C325.727,122.48 325.699,74.184 334.831,59.607 z" fill="#FFFFFF" id="path2230"/>
    <path d="M241.427,88.708 C244.791,98.817 247.707,108.927 246.594,119.037 C245.388,125.292 248.058,124.863 253.053,122.379 C257.961,119.723 260.544,116.81 267.778,114.411 C273.375,112.868 269.414,108.756 266.744,105.929 C258.761,98.373 250.08,93.599 241.427,88.708 z" fill="#000000" id="path2221"/>
    <g id="path2364">
      <path d="M270.128,144.838 C276.012,222.671 328.557,232.232 361.637,216.499 C345.097,200.226 351.096,167.059 368.739,166.693 C401.372,165.903 392.081,226.549 392.087,255.988 C409.929,252.378 408.76,185.214 404.972,144.838 L270.128,144.838 z" fill="#000000"/>
      <path d="M270.128,144.838 C276.012,222.671 328.557,232.232 361.637,216.499 C345.097,200.226 351.096,167.059 368.739,166.693 C401.372,165.903 392.081,226.549 392.087,255.988 C409.929,252.378 408.76,185.214 404.972,144.838 L270.128,144.838 z" fill-opacity="0" stroke="#000000" stroke-width="1.006"/>
    </g>
    <path d="M101.125,144.838 C101.766,151.538 102.4,158.242 103.042,164.942 C107.358,172.805 110.568,180.654 109.672,188.516 C118.199,186.426 123.28,185.332 127.867,194.019 C147.932,206.449 166.991,207.931 185.752,206.088 C189.566,251.252 188.454,287.581 186.852,341.563 C198.246,360.396 209.648,378.257 221.042,397.091 C227.585,408.541 239.062,412.157 248.067,398.623 C255.786,395.149 263.477,391.685 271.196,388.211 C271.196,392.051 271.196,395.877 271.196,399.717 C283.05,402.685 294.775,407.199 289.391,419.477 C285.294,427.406 287.6,430.934 299.258,425.636 C309.557,420.646 315.912,428.386 321.287,429.763 C313.625,421.644 320.219,405.66 320.461,389.151 C331.456,388.152 344.011,378.236 355.006,377.237 C377.614,355.405 381.507,347.282 381.466,319.082 C383.737,311.768 386.999,309.837 385.331,297.134 C386.618,289.271 388.413,278.983 389.699,271.121 C390.58,265.975 391.428,260.936 392.276,255.957 C392.215,255.971 392.149,255.976 392.087,255.988 C392.081,226.549 401.372,165.903 368.739,166.693 C351.096,167.059 345.097,200.226 361.637,216.499 C357.802,218.323 353.699,219.831 349.444,220.908 C350.785,228.583 345.212,236.459 337.911,236.791 C330.626,236.143 319.91,243.336 313.117,259.834 C302.26,282.617 292.38,262.796 288.417,256.676 C283.33,249.955 289.577,243.708 275.627,247.765 C266.431,250.594 254.759,252.463 251.964,238.636 C240.202,226.75 228.939,216.316 217.177,204.431 C212.481,198.87 216.392,194.291 216.423,192.331 C216.422,192.289 216.423,192.221 216.423,192.175 C216.422,192.167 216.423,192.15 216.423,192.143 C216.417,192.121 216.398,192.071 216.391,192.049 C216.385,192.026 216.368,191.978 216.36,191.956 C216.345,191.919 216.318,191.864 216.297,191.831 C216.292,191.82 216.271,191.779 216.265,191.768 C216.257,191.76 216.238,191.741 216.234,191.737 C216.214,191.716 216.166,191.667 216.14,191.643 C216.11,191.62 216.056,191.577 216.014,191.549 C215.997,191.539 215.967,191.526 215.951,191.518 C215.897,191.492 215.828,191.477 215.763,191.455 C211.175,188.575 205.612,192.043 199.547,194.551 C183.716,197.443 177.534,194.659 175.822,186.328 C175.915,172.566 168.135,174.002 155.427,175.916 C118.796,181.109 112.872,168.209 102.193,144.838 L101.125,144.838 z" fill="#FFFFFF" id="path2370"/>
    <path d="M102.193,144.838 C112.872,168.209 118.796,181.109 155.427,175.916 C168.135,174.002 175.915,172.566 175.822,186.328 C177.534,194.659 183.716,197.443 199.547,194.551 C205.612,192.043 211.175,188.575 215.763,191.455 C215.828,191.477 215.897,191.492 215.951,191.518 C215.967,191.526 215.997,191.539 216.014,191.549 C216.056,191.577 216.11,191.62 216.14,191.643 C216.166,191.667 216.214,191.716 216.234,191.737 C216.238,191.741 216.257,191.76 216.265,191.768 C216.271,191.779 216.292,191.82 216.297,191.831 C216.318,191.864 216.345,191.919 216.36,191.956 C216.368,191.978 216.385,192.026 216.391,192.049 C216.398,192.071 216.417,192.121 216.423,192.143 C216.423,192.15 216.422,192.167 216.423,192.175 C216.423,192.222 216.422,192.289 216.423,192.331 C216.392,194.292 212.481,198.87 217.177,204.431 C228.939,216.316 240.202,226.75 251.964,238.636 C254.759,252.463 266.431,250.594 275.627,247.765 C289.577,243.708 283.33,249.955 288.417,256.676 C292.38,262.796 302.26,282.617 313.117,259.834 C319.91,243.336 330.626,236.143 337.911,236.791 C345.212,236.459 350.785,228.583 349.444,220.908 C316.995,229.12 275.33,213.648 270.128,144.838 L102.193,144.838 z" fill="#000000" id="path2383"/>
    <path d="M211.929,234.258 C201.372,234.944 206.875,270.062 208.032,286.691 C209.596,303.06 213.264,299.204 224.75,292.069 C230.032,302.728 226.82,308.683 219.345,315.581 C213.78,320.813 210.588,328.63 215.417,337.623 C216.894,340.073 218.134,341.111 219.848,344.971 C220.997,347.257 222.124,349.563 223.273,351.849 C224.599,356.904 223.103,360.057 220.885,362.761 C218.831,365.688 218.434,368.639 221.105,376.737 C222.562,381.44 218.568,387.056 224.75,391.994 C227.49,394.112 230.173,395.696 232.921,396.872 C230.537,389.969 230.466,380.007 231.632,371.453 C232.42,363.383 232.966,358.365 240.368,352.881 C246.826,349.59 245.034,332.207 245.585,321.865 C245.648,321.92 245.738,321.97 245.805,322.021 C245.796,321.975 245.812,321.911 245.805,321.865 C259.618,318.963 251.927,307.971 247.69,297.415 L213.909,234.508 C213.241,234.324 212.626,234.236 212.055,234.258 C212.013,234.26 211.97,234.256 211.929,234.258 z" fill="#000000" id="path2398"/>
    <path d="M213.909,234.508 L247.69,297.415 C251.927,307.971 259.618,318.963 245.805,321.865 C247.036,329.23 256.191,335.64 266.357,334.778 C276.93,334.1 284.62,341.966 288.103,349.911 C288.563,341.149 289.637,332.455 291.779,323.866 C293.145,319.62 300.881,315.859 294.45,310.203 C268.407,281.673 243.304,259.245 215.134,234.946 C214.706,234.761 214.302,234.617 213.909,234.508 z" fill="#000000" id="path2404"/>
    <path d="M245.585,321.865 C245.034,332.207 246.826,349.59 240.368,352.881 C232.966,358.365 232.42,363.383 231.632,371.453 C230.465,380.018 230.527,389.999 232.921,396.903 C235.364,397.942 237.867,398.646 240.525,399.092 C244.997,399.49 247.811,400.59 257.243,398.873 C265.502,397.925 270.461,393.912 279.901,392.495 C285.053,391.488 288.541,389.531 288.26,381.708 C287.866,371.023 287.549,360.416 288.103,349.911 C284.62,341.966 276.93,334.1 266.357,334.778 C256.31,335.63 247.236,329.371 245.836,322.115 C245.833,322.101 245.839,322.098 245.836,322.084 C245.831,322.08 245.841,322.057 245.836,322.053 C245.759,321.986 245.66,321.936 245.585,321.865 z" fill="#000000" id="path2407"/>
    <path d="M384.42,311.454 C383.552,313.847 382.428,315.985 381.466,319.082 C381.507,347.282 377.614,355.405 355.006,377.237 C354.803,377.288 348.338,392.371 342.845,396.309 C333.578,403.125 334.157,409.305 330.715,416.757 C328.224,420.523 324.784,421.13 322.293,420.446 C320.738,419.225 319.166,418.646 317.611,416.788 C317.512,419.835 317.726,422.61 318.522,425.042 C318.558,425.114 318.581,425.189 318.616,425.261 C318.619,425.271 318.613,425.283 318.616,425.292 C319.052,426.176 319.462,427.067 319.873,427.95 C319.896,427.986 319.913,428.008 319.936,428.044 C319.94,428.052 319.932,428.067 319.936,428.075 C320.31,428.655 320.741,429.214 321.224,429.732 C321.077,429.693 320.933,429.655 320.784,429.607 C330.276,444.707 343.68,449.43 360.883,443.489 C370.145,439.47 375.561,435.789 381.309,431.452 C386.309,426.733 392.258,417.875 382.88,417.288 C381.544,416.937 380.8,416.592 380.429,416.225 C380.415,416.211 380.378,416.177 380.366,416.163 C380.33,416.121 380.298,416.049 380.272,416.006 C380.234,415.942 380.197,415.855 380.177,415.788 C380.173,415.773 380.149,415.74 380.146,415.725 C380.142,415.702 380.148,415.654 380.146,415.631 C380.144,415.608 380.146,415.561 380.146,415.538 C380.165,414.192 382.738,412.273 380.774,408.378 C379.431,402.419 385.139,396.785 389.228,395.277 C386.417,389.16 383.585,383.041 380.774,376.924 C380.969,372.908 388.91,370.787 387.625,363.292 C389.917,344.439 393.024,316.454 384.42,311.454 z" fill="#000000" id="path2460"/>
    <path d="M333.7,237.197 C326.907,239.016 318.689,246.301 313.117,259.834 C310.572,265.174 308.074,268.173 305.701,269.557 C305.938,292.818 311.492,309.378 322.984,318.457 C319.576,331.914 316.179,350.466 322.356,361.698 C311.918,358.413 316.174,379.291 313.085,388.086 C307.867,402.709 303.278,402.072 298.379,403.344 C302.852,408.43 308.607,413.828 317.233,417.007 C317.235,417.024 317.23,417.053 317.233,417.07 C317.251,417.145 317.312,417.244 317.359,417.32 C318.002,418.291 320.896,419.349 322.293,420.446 C324.784,421.13 328.224,420.523 330.715,416.757 C334.157,409.305 333.578,403.125 342.845,396.309 C348.21,392.462 354.526,377.957 355.006,377.237 C336.67,366.984 328.003,347.444 330.966,328.619 C331.818,323.426 335.231,317.605 330.652,309.234 C325.176,286.229 328.663,259.464 333.7,237.197 z" fill="#000000" id="path2468"/>
  </g>
</svg>
