<?xml version="1.0" encoding="UTF-8"?>
<!DOCTYPE svg PUBLIC "-//W3C//DTD SVG 1.1//EN" "http://www.w3.org/Graphics/SVG/1.1/DTD/svg11.dtd">
<svg version="1.1" xmlns="http://www.w3.org/2000/svg" xmlns:xlink="http://www.w3.org/1999/xlink" x="0" y="0" width="400" height="400" viewBox="0, 0, 400, 400">
  <g id="Layer_1">
    <path d="M96.928,59.632 C95.595,60.87 96.928,62.68 99.881,63.632 C106.928,65.918 105.786,63.632 135.976,138.68 C148.262,169.251 158.833,195.442 159.595,196.966 C160.547,199.061 160.547,200.299 159.69,202.204 C158.071,205.727 153.881,205.442 143.881,201.156 C128.262,194.489 110.928,194.204 99.024,200.489 C91.976,204.299 83.881,212.585 80.738,219.442 C78.357,224.489 77.976,226.394 78.071,235.156 C78.071,243.823 78.357,245.918 80.643,250.68 C86.262,262.489 94.548,269.156 120.738,282.775 C130.167,287.727 139.881,293.346 142.167,295.251 C147.976,300.013 151.976,308.299 151.119,313.918 C147.5,336.108 115.881,339.537 96.548,319.727 C90.167,313.251 86.071,306.204 82.928,296.204 C81.5,291.823 80.071,289.061 79.119,288.87 C77.69,288.584 77.5,291.251 77.5,314.584 C77.5,340.013 77.595,340.68 79.5,340.68 C80.643,340.68 81.5,340.013 81.5,339.251 C81.5,337.442 86.928,332.87 90.071,332.108 C91.5,331.727 95.786,332.775 101.69,335.061 C116.833,340.775 124.643,341.727 137.309,339.537 C152.547,336.87 164.833,327.537 171.405,313.632 C173.595,308.87 173.976,306.87 173.976,298.204 C173.976,289.442 173.69,287.442 171.309,282.489 C165.786,270.68 156.547,263.251 131.024,250.204 C113.119,241.061 106.167,236.394 102.452,231.346 C99.69,227.727 98.738,219.918 100.452,215.727 C102.262,211.346 108.738,206.013 113.69,204.585 C120.357,202.775 131.69,204.108 137.786,207.442 C148.643,213.346 158.167,225.346 160.643,236.299 C161.595,240.68 162.167,241.727 163.881,241.727 C165.976,241.727 165.976,241.442 165.5,221.442 L165.024,201.156 L179.881,165.632 C188.071,146.108 196.357,126.394 198.262,121.632 C200.166,116.966 202.071,112.87 202.452,112.394 C202.833,112.013 206.833,121.442 211.405,133.442 C219.976,155.918 236.357,198.394 237.119,200.204 C237.405,200.775 235.405,202.299 232.738,203.537 C212.452,213.442 197.5,232.775 192.452,255.632 C190.071,266.204 189.976,274.108 192.071,284.299 C198.262,314.489 219.119,334.108 250.547,339.251 C266.928,341.918 280.547,340.68 296.357,335.061 C307.69,331.061 312.262,330.775 315.214,333.918 C316.357,335.156 317.595,337.156 317.976,338.394 C318.357,339.727 319.404,340.68 320.547,340.68 C322.452,340.68 322.547,339.727 322.547,316.584 C322.547,292.87 322.452,292.584 320.452,292.87 C318.928,293.061 317.881,294.775 316.166,299.727 C311.881,312.394 303.214,322.584 291.785,328.299 C286.262,330.965 285.309,331.156 273.024,331.156 C260.262,331.156 259.785,331.061 253.309,327.918 C241.785,322.203 235.405,313.061 230.738,295.727 C228.452,287.251 228.166,284.204 228.166,268.204 C228.071,248.489 229.405,241.156 235.119,228.965 C240.547,217.442 253.881,207.061 265.976,204.966 C287.976,201.251 307.785,213.632 316.071,236.394 C318.071,241.823 319.214,243.727 320.357,243.442 C321.785,243.156 322.071,240.204 322.262,219.442 C322.547,196.489 322.452,195.632 320.547,195.632 C319.404,195.632 318.357,196.585 317.976,197.918 C316.738,201.918 313.404,204.68 309.69,204.68 C307.881,204.68 302.166,203.251 297.119,201.632 C286.547,198.013 274.357,195.727 266.547,195.727 C261.119,195.727 246.643,197.823 243.309,199.156 C242.071,199.632 243.024,196.108 247.5,184.489 C250.643,176.108 260.452,150.299 269.214,127.156 C292.738,65.442 292.547,65.918 299.023,63.537 C300.928,62.87 302.452,61.728 302.547,60.966 C302.547,59.632 301.881,59.632 283.5,59.632 C266.452,59.632 266.547,59.632 266.547,61.156 C266.547,62.013 267.404,62.68 268.452,62.68 C272.071,62.68 278.166,65.728 279.5,68.204 C281.5,71.823 280.166,78.204 274.071,94.013 C257.119,138.204 253.5,147.823 253.5,148.68 C253.5,149.251 253.119,149.632 252.738,149.632 C251.595,149.632 222.547,73.251 222.547,70.299 C222.547,65.823 227.69,62.68 235.119,62.68 C238.262,62.68 238.357,59.728 235.214,59.632 C233.976,59.632 220.452,59.632 205.214,59.632 C189.881,59.632 175.595,59.632 173.405,59.632 C170.643,59.632 169.5,60.109 169.5,61.156 C169.5,62.109 170.452,62.68 171.976,62.68 C181.405,62.68 186.262,68.966 195.405,92.775 L198.643,101.347 L187.69,127.728 L176.643,154.013 L175.024,150.108 C164.547,125.347 145.309,75.632 144.833,72.204 C144.071,66.87 146.357,64.204 152.452,63.156 C155.405,62.68 156.547,62.013 156.262,60.966 C156.071,59.728 151.595,59.537 126.643,59.347 C110.548,59.251 97.119,59.347 96.928,59.632 z" fill="#000000"/>
  </g>
</svg>
