<?xml version="1.0" encoding="UTF-8"?>
<!DOCTYPE svg PUBLIC "-//W3C//DTD SVG 1.1//EN" "http://www.w3.org/Graphics/SVG/1.1/DTD/svg11.dtd">
<svg version="1.1" xmlns="http://www.w3.org/2000/svg" xmlns:xlink="http://www.w3.org/1999/xlink" x="0" y="0" width="297.85" height="283.466" viewBox="0, 0, 297.85, 283.466">
  <g id="Layer_1">
    <g>
      <path d="M0.021,1.394 C0.021,2.536 0.307,2.822 0.593,1.965 C0.879,1.298 0.879,0.441 0.498,0.06 C0.212,-0.226 -0.074,0.346 0.021,1.394 z" fill="#000000"/>
      <path d="M142.974,5.394 C129.926,7.013 118.402,9.394 111.926,11.965 C89.355,20.917 63.355,39.108 43.259,60.155 C24.879,79.298 21.069,85.012 16.879,98.822 C14.498,106.632 7.164,125.584 4.498,130.727 C2.212,135.108 2.402,145.965 4.783,148.822 C7.831,152.727 15.545,152.631 30.307,148.822 C43.736,145.298 47.926,145.298 47.926,148.917 C47.926,152.536 46.021,154.727 40.593,157.393 C31.831,161.87 19.545,170.441 14.974,175.393 C10.974,179.679 10.783,180.25 11.355,184.155 C11.736,186.441 12.688,189.393 13.545,190.727 C14.974,192.822 15.736,193.012 20.498,192.631 C24.783,192.25 27.355,191.203 34.117,186.822 C72.974,161.965 84.974,156.155 93.355,158.251 C96.498,159.012 96.783,161.965 94.021,166.441 C91.926,169.87 85.545,173.87 74.021,178.822 C58.498,185.584 27.831,205.203 25.355,209.87 C22.402,215.774 24.593,222.822 29.545,222.822 C32.688,222.822 40.212,219.012 50.402,212.346 C69.64,199.774 77.926,197.774 77.926,205.774 C77.926,209.012 73.355,214.631 60.117,227.298 C48.402,238.536 46.498,241.489 47.355,246.441 C48.117,250.441 51.164,252.822 55.64,252.822 C58.307,252.822 60.498,251.489 66.783,245.869 C71.069,242.155 76.498,236.822 78.879,234.155 C84.688,227.489 90.783,222.822 93.545,222.822 C95.64,222.822 95.926,223.298 95.926,226.631 C95.926,228.727 94.307,236.25 92.212,243.393 C87.736,259.298 87.164,269.965 90.593,274.536 C94.212,279.488 99.355,278.822 103.164,273.012 C104.688,270.727 107.45,262.917 109.926,253.774 C114.974,234.822 117.355,228.06 120.402,224.25 C122.402,221.679 122.878,221.489 124.402,222.822 C126.212,224.346 126.212,232.06 124.307,265.298 C123.64,277.774 124.498,281.298 128.593,282.917 C132.117,284.25 136.688,283.203 138.021,280.727 C138.593,279.679 139.926,274.631 141.069,269.584 C142.688,262.06 143.259,254.917 143.831,231.774 C144.402,207.774 144.783,202.822 146.307,200.06 C147.545,197.584 148.593,196.822 150.783,196.822 C156.212,196.822 156.307,197.393 157.164,232.25 C158.212,276.25 159.64,282.822 168.307,282.822 C170.117,282.822 172.402,282.155 173.45,281.393 C175.259,280.06 175.45,278.25 175.926,255.584 C176.402,234.536 176.688,230.822 178.212,228.536 C179.164,227.012 180.593,225.774 181.355,225.774 C183.259,225.774 186.212,233.393 190.307,248.917 C194.783,265.965 197.355,272.822 200.402,276.25 C203.736,279.869 208.212,279.679 212.021,275.869 C216.497,271.393 216.307,265.488 210.974,246.346 C207.164,232.822 206.497,229.012 206.783,223.965 C207.069,219.584 211.069,222.346 224.021,235.393 C239.45,251.108 242.974,253.774 248.116,253.774 C253.735,253.869 256.974,250.346 256.974,244.441 C256.974,239.965 256.783,239.774 241.45,223.965 C226.307,208.346 222.974,203.584 226.021,201.774 C228.021,200.536 230.878,201.393 243.926,207.012 C268.307,217.584 271.45,218.822 275.64,218.822 C280.497,218.822 282.974,216.346 282.974,211.203 C282.974,206.25 277.831,202.727 251.64,189.489 C219.831,173.489 214.021,169.965 210.688,164.727 C208.212,160.822 208.021,160.251 209.45,158.822 C210.593,157.774 212.974,157.298 217.736,157.393 L224.402,157.393 L245.926,169.965 C274.212,186.536 279.259,189.012 284.783,189.584 C293.45,190.441 297.259,184.346 293.545,175.489 C291.831,171.489 285.545,166.727 270.212,157.965 C258.212,151.108 256.116,149.298 257.259,146.441 C258.212,143.965 271.831,144.251 279.45,146.822 C287.069,149.489 291.164,149.393 294.497,146.536 C296.783,144.536 297.259,143.203 297.64,137.203 C298.116,130.727 297.926,129.774 294.497,123.012 C292.497,119.012 288.497,109.298 285.64,101.489 C277.735,80.251 267.069,65.679 246.212,47.774 C221.926,26.822 202.021,15.489 175.926,7.584 C169.545,5.679 150.974,4.441 142.974,5.394 z M162.497,50.536 C162.497,60.06 164.497,76.346 166.402,82.346 C169.831,92.917 169.164,115.679 165.355,121.489 C164.117,123.393 164.783,123.203 169.64,120.346 C177.259,115.774 184.497,113.393 196.593,111.298 C203.259,110.155 208.116,109.87 211.926,110.441 C214.974,110.822 225.45,111.012 235.164,110.917 C253.64,110.632 258.021,111.679 247.164,113.774 C244.021,114.346 237.355,115.965 232.402,117.298 C227.45,118.632 220.116,120.155 216.021,120.822 C211.926,121.393 208.307,122.06 207.926,122.346 C207.545,122.536 200.307,123.393 191.831,124.346 C174.117,126.155 172.783,126.441 167.45,129.108 C161.831,131.87 159.545,133.965 161.069,134.917 C161.736,135.298 162.974,135.298 163.831,134.917 C164.688,134.441 171.259,132.822 178.402,131.393 C185.545,129.87 195.926,127.584 201.45,126.155 C213.926,123.108 235.735,121.87 244.021,123.774 C249.926,125.203 258.974,129.393 258.974,130.727 C258.974,131.203 256.116,130.917 252.688,130.06 C248.307,129.012 242.974,128.727 234.688,129.108 L222.878,129.584 L212.497,134.727 C200.307,140.917 188.593,143.393 175.926,142.251 L168.402,141.584 L176.593,150.06 C183.45,157.203 185.64,160.441 190.783,170.727 C195.259,179.774 196.974,184.06 196.974,187.012 C196.974,191.489 199.164,195.012 212.116,210.441 C215.831,214.917 218.974,219.108 218.974,219.679 C218.974,222.536 215.64,220.06 205.355,209.489 C195.736,199.584 193.259,196.346 185.926,183.774 C173.259,161.679 160.021,142.822 157.355,142.822 C154.593,142.822 155.926,147.298 159.831,151.298 C163.831,155.393 186.783,190.631 191.45,199.87 C194.021,204.917 197.926,218.346 197.926,222.06 C197.926,225.869 195.64,223.108 194.212,217.774 C191.736,208.06 186.688,201.298 174.021,190.917 C167.45,185.489 161.355,176.155 156.402,164.06 C154.307,159.012 152.212,154.822 151.831,154.822 C151.45,154.822 150.878,155.965 150.497,157.489 C149.831,160.251 137.545,181.012 133.259,186.631 C131.926,188.346 128.021,192.155 124.593,194.917 C117.069,201.108 113.545,205.584 111.259,211.679 C109.164,217.489 108.307,218.536 106.783,217.108 C105.164,215.393 107.926,207.489 114.117,196.441 C126.021,175.108 132.593,164.822 138.974,157.203 C147.736,146.917 150.878,139.584 144.402,144.631 C138.402,149.393 130.688,159.393 125.355,169.489 C113.259,192.346 109.45,198.06 101.069,206.06 C96.593,210.346 92.593,213.869 92.117,213.869 C89.736,213.869 90.498,212.06 95.64,206.06 C101.831,198.727 105.259,191.87 107.831,181.298 C108.783,177.489 110.593,172.441 111.736,170.155 C114.402,164.917 124.688,151.393 129.355,146.917 C131.355,145.012 132.974,143.108 132.974,142.727 C132.974,142.346 126.974,142.06 119.64,142.155 C102.974,142.346 90.974,140.155 82.593,135.203 C72.117,129.108 68.117,128.251 55.736,129.679 C49.831,130.346 44.212,131.108 43.355,131.489 C42.117,131.965 41.831,131.584 42.117,130.346 C42.307,129.108 44.783,127.679 49.45,125.965 C55.736,123.679 57.831,123.393 70.021,123.489 C78.498,123.489 86.402,124.155 90.974,125.203 C95.069,126.06 104.021,127.679 110.974,128.822 C117.831,129.965 127.45,131.774 132.402,132.917 C144.878,135.774 144.974,135.774 144.974,134.727 C144.974,133.489 141.736,131.965 133.64,129.203 C123.355,125.679 107.64,123.012 89.259,121.489 C74.212,120.251 72.783,119.965 67.45,116.917 C56.688,110.822 49.355,104.822 52.783,104.822 C53.259,104.822 56.783,106.251 60.593,108.06 L67.45,111.298 L91.926,111.298 L116.498,111.298 L128.307,117.108 C134.783,120.251 140.307,122.822 140.497,122.822 C140.783,122.822 139.736,120.441 138.212,117.584 C135.64,112.632 135.45,111.584 135.45,99.774 C135.545,89.584 136.021,85.584 138.212,77.584 C139.64,72.251 141.355,63.203 142.021,57.584 C143.069,48.155 144.117,44.727 145.355,45.965 C145.64,46.251 146.402,51.87 146.974,58.536 C147.831,68.346 147.736,72.536 146.497,80.822 C144.402,94.917 146.021,116.727 150.117,127.108 C151.355,130.155 152.117,130.441 153.926,128.346 C155.45,126.441 158.307,90.822 157.545,82.822 C156.974,76.917 158.307,51.013 159.45,46.536 C160.783,41.298 162.402,43.584 162.497,50.536 z M225.926,47.965 C225.926,51.87 219.259,64.632 213.45,71.965 C208.688,77.87 200.878,83.774 197.736,83.774 C195.45,83.774 194.497,80.06 195.831,76.441 C199.355,67.298 220.116,44.822 225.164,44.822 C225.545,44.822 225.926,46.251 225.926,47.965 z M86.307,49.965 C95.355,55.965 107.736,71.774 108.593,78.632 C109.355,83.774 107.259,85.012 102.402,82.346 C94.307,77.965 77.926,56.536 77.926,50.155 C77.926,45.87 80.021,45.774 86.307,49.965 z" fill="#000000"/>
    </g>
  </g>
</svg>
