<?xml version="1.0" encoding="UTF-8"?>
<!DOCTYPE svg PUBLIC "-//W3C//DTD SVG 1.1//EN" "http://www.w3.org/Graphics/SVG/1.1/DTD/svg11.dtd">
<svg version="1.1" xmlns="http://www.w3.org/2000/svg" xmlns:xlink="http://www.w3.org/1999/xlink" x="0" y="0" width="700" height="700" viewBox="0, 0, 700, 700">
  <g id="Layer_1">
    <path d="M-0,0 L700,0 L700,700 L-0,700 L-0,0 z" fill="#000000"/>
    <path d="M357.087,341 L357.087,591 L455.658,591 C519.087,591 557.563,590.408 563.753,589.374 C609.563,581.39 639.849,544.578 650.229,483.963 C651.658,475.684 652.42,465.187 652.801,448.185 C653.372,420.686 651.849,407.085 646.039,388.901 C638.61,365.542 621.753,341 605.372,329.616 C602.991,327.99 601.087,326.068 601.087,325.477 C601.087,324.885 604.325,321.189 608.325,317.345 C634.706,291.621 646.61,251.999 642.134,204.838 C636.896,148.51 611.468,110.811 569.087,96.027 L557.563,92.035 L457.372,91.591 L357.087,91 L357.087,341 z M522.325,203.064 C525.182,204.099 528.896,205.873 530.611,207.203 C546.515,219.474 550.039,255.991 537.277,275.654 C529.182,288.221 526.896,288.812 488.801,289.551 L456.134,290.143 L456.134,245.79 L456.134,201.29 L486.515,201.29 C505.182,201.29 518.991,202.029 522.325,203.064 z M534.515,389.935 C541.372,393.927 548.325,405.015 550.61,415.512 C552.896,426.304 552.325,444.785 549.372,453.655 C546.515,461.934 541.658,469.031 535.563,473.318 C530.706,476.866 529.753,476.866 493.372,477.31 L456.134,477.753 L456.134,431.922 L456.134,385.944 L492.801,386.387 C525.753,386.979 530.134,387.274 534.515,389.935 z" fill="#FFFFFF"/>
    <path d="M56.135,153.5 L56.135,216 L125.182,216.446 L194.23,216.893 L120.706,341.744 L47.087,466.595 L47.087,528.797 L47.087,591 L187.087,591 L327.087,591 L327.087,528.5 L327.087,466 L254.039,466 C213.563,466 181.087,465.405 181.278,464.661 C181.468,463.917 214.325,407.964 254.325,340.107 L327.087,216.893 L327.087,153.947 L327.087,91 L191.563,91 L56.135,91 L56.135,153.5 z" fill="#FFFFFF"/>
  </g>
</svg>
